999
dxfrw 0.6.3
  0
SECTION
  2
HEADER
  9
$ACADVER
  1
AC1021
  9
$DWGCODEPAGE
  3
ANSI_1252
  9
$INSBASE
 10
0
 20
0
 30
0
  9
$EXTMIN
 10
0.090159
 20
0.09016
 30
0
  9
$EXTMAX
 10
276.706053
 20
215.90002
 30
0
  9
$LIMMIN
 10
0
 20
0
  9
$LIMMAX
 10
420
 20
297
  9
$ORTHOMODE
 70
    0
  9
$REGENMODE
 70
    1
  9
$FILLMODE
 70
    1
  9
$QTEXTMODE
 70
    0
  9
$MIRRTEXT
 70
    0
  9
$LTSCALE
 40
1
  9
$ATTMODE
 70
    0
  9
$TEXTSIZE
 40
2.5
  9
$TRACEWID
 40
15.68
  9
$TEXTSTYLE
  7
STANDARD
  9
$CLAYER
  8
dim
  9
$CELTYPE
  6
BYLAYER
  9
$CECOLOR
 62
  256
  9
$CELTSCALE
 40
1
  9
$DISPSILH
 70
    0
  9
$DIMSCALE
 40
2.5
  9
$DIMASZ
 40
0.35
  9
$DIMEXO
 40
0.2
  9
$DIMDLI
 40
3.75
  9
$DIMRND
 40
0
  9
$DIMDLE
 40
0
  9
$DIMEXE
 40
0.65
  9
$DIMTP
 40
0
  9
$DIMTM
 40
0
  9
$DIMTXT
 40
0.35
  9
$DIMCEN
 40
2.5
  9
$DIMTSZ
 40
0
  9
$DIMTOL
 70
    0
  9
$DIMLIM
 70
    0
  9
$DIMTIH
 70
    0
  9
$DIMTOH
 70
    0
  9
$DIMSE1
 70
    0
  9
$DIMSE2
 70
    0
  9
$DIMTAD
 70
    1
  9
$DIMZIN
 70
    8
  9
$DIMBLK
  1

  9
$DIMASO
 70
    1
  9
$DIMSHO
 70
    1
  9
$DIMPOST
  1

  9
$DIMAPOST
  1

  9
$DIMALT
 70
    0
  9
$DIMALTD
 70
    3
  9
$DIMALTF
 40
0.03937
  9
$DIMLFAC
 40
1
  9
$DIMTOFL
 70
    1
  9
$DIMTVP
 40
0
  9
$DIMTIX
 70
    0
  9
$DIMSOXD
 70
    0
  9
$DIMSAH
 70
    0
  9
$DIMBLK1
  1

  9
$DIMBLK2
  1

  9
$DIMSTYLE
  2
Standard
  9
$DIMCLRD
 70
    0
  9
$DIMCLRE
 70
    0
  9
$DIMCLRT
 70
    0
  9
$DIMTFAC
 40
1
  9
$DIMGAP
 40
0.2
  9
$DIMJUST
 70
    0
  9
$DIMSD1
 70
    0
  9
$DIMSD2
 70
    0
  9
$DIMTOLJ
 70
    0
  9
$DIMTZIN
 70
    8
  9
$DIMALTZ
 70
    0
  9
$DIMALTTZ
 70
    0
  9
$DIMUPT
 70
    0
  9
$DIMDEC
 70
    1
  9
$DIMTDEC
 70
    2
  9
$DIMALTU
 70
    2
  9
$DIMALTTD
 70
    3
  9
$DIMTXSTY
  7
cursive
  9
$DIMAUNIT
 70
    0
  9
$DIMADEC
 70
    0
  9
$DIMALTRND
 40
0
  9
$DIMAZIN
 70
    0
  9
$DIMDSEP
 70
    0
  9
$DIMATFIT
 70
    3
  9
$DIMFRAC
 70
    0
  9
$DIMLDRBLK
  1
STANDARD
  9
$DIMLUNIT
 70
    2
  9
$DIMLWD
 70
   -2
  9
$DIMLWE
 70
   -2
  9
$DIMTMOVE
 70
    0
  9
$DIMFXL
 40
1
  9
$DIMFXLON
 70
    0
  9
$DIMJOGANG
 40
0.7854
  9
$DIMTFILL
 70
    0
  9
$DIMTFILLCLR
 70
    0
  9
$DIMARCSYM
 70
    0
  9
$DIMLTYPE
  6

  9
$DIMLTEX1
  6

  9
$DIMLTEX2
  6

  9
$LUNITS
 70
    2
  9
$LUPREC
 70
    1
  9
$SKETCHINC
 40
1
  9
$FILLETRAD
 40
0
  9
$AUNITS
 70
    0
  9
$AUPREC
 70
    1
  9
$MENU
  1
.
  9
$ELEVATION
 40
0
  9
$PELEVATION
 40
0
  9
$THICKNESS
 40
0
  9
$LIMCHECK
 70
    0
  9
$CHAMFERA
 40
0
  9
$CHAMFERB
 40
0
  9
$CHAMFERC
 40
0
  9
$CHAMFERD
 40
0
  9
$SKPOLY
 70
    0
  9
$USRTIMER
 70
    1
  9
$ANGBASE
 50
0
  9
$ANGDIR
 70
    0
  9
$PDMODE
 70
   34
  9
$PDSIZE
 40
0
  9
$PLINEWID
 40
0
  9
$SPLFRAME
 70
    0
  9
$SPLINETYPE
 70
    2
  9
$SPLINESEGS
 70
    8
  9
$HANDSEED
  5
20000
  9
$SURFTAB1
 70
    6
  9
$SURFTAB2
 70
    6
  9
$SURFTYPE
 70
    6
  9
$SURFU
 70
    6
  9
$SURFV
 70
    6
  9
$UCSBASE
  2

  9
$UCSNAME
  2

  9
$UCSORG
 10
0
 20
0
 30
0
  9
$UCSXDIR
 10
1
 20
0
 30
0
  9
$UCSYDIR
 10
0
 20
1
 30
0
  9
$UCSORTHOREF
  2

  9
$UCSORTHOVIEW
 70
    0
  9
$UCSORGTOP
 10
0
 20
0
 30
0
  9
$UCSORGBOTTOM
 10
0
 20
0
 30
0
  9
$UCSORGLEFT
 10
0
 20
0
 30
0
  9
$UCSORGRIGHT
 10
0
 20
0
 30
0
  9
$UCSORGFRONT
 10
0
 20
0
 30
0
  9
$UCSORGBACK
 10
0
 20
0
 30
0
  9
$PUCSBASE
  2

  9
$PUCSNAME
  2

  9
$PUCSORG
 10
0
 20
0
 30
0
  9
$PUCSXDIR
 10
1
 20
0
 30
0
  9
$PUCSYDIR
 10
0
 20
1
 30
0
  9
$PUCSORTHOREF
  2

  9
$PUCSORTHOVIEW
 70
    0
  9
$PUCSORGTOP
 10
0
 20
0
 30
0
  9
$PUCSORGBOTTOM
 10
0
 20
0
 30
0
  9
$PUCSORGLEFT
 10
0
 20
0
 30
0
  9
$PUCSORGRIGHT
 10
0
 20
0
 30
0
  9
$PUCSORGFRONT
 10
0
 20
0
 30
0
  9
$PUCSORGBACK
 10
0
 20
0
 30
0
  9
$USERI1
 70
    0
  9
$USERI2
 70
    0
  9
$USERI3
 70
    0
  9
$USERI4
 70
    0
  9
$USERI5
 70
    0
  9
$USERR1
 40
0
  9
$USERR2
 40
0
  9
$USERR3
 40
0
  9
$USERR4
 40
0
  9
$USERR5
 40
0
  9
$WORLDVIEW
 70
    1
  9
$SHADEDGE
 70
    3
  9
$SHADEDIF
 70
   70
  9
$TILEMODE
 70
    1
  9
$MAXACTVP
 70
   64
  9
$PINSBASE
 10
0
 20
0
 30
0
  9
$PLIMCHECK
 70
    0
  9
$PEXTMIN
 10
0
 20
0
 30
0
  9
$PEXTMAX
 10
0
 20
0
 30
0
  9
$GRIDMODE
 70
    1
  9
$SNAPSTYLE
 70
    0
  9
$GRIDUNIT
 10
0.001
 20
0.001
  9
$PLIMMIN
 10
0
 20
0
  9
$PLIMMAX
 10
279.4
 20
215.9
  9
$UNITMODE
 70
    0
  9
$VISRETAIN
 70
    1
  9
$PLINEGEN
 70
    0
  9
$PSLTSCALE
 70
    1
  9
$TREEDEPTH
 70
 3020
  9
$CMLSTYLE
  2
Standard
  9
$CMLJUST
 70
    0
  9
$CMLSCALE
 40
20
  9
$PROXYGRAPHICS
 70
    1
  9
$MEASUREMENT
 70
    1
  9
$CELWEIGHT
370
   -1
  9
$ENDCAPS
280
    0
  9
$JOINSTYLE
280
    0
  9
$LWDISPLAY
290
    0
  9
$INSUNITS
 70
    4
  9
$HYPERLINKBASE
  1

  9
$STYLESHEET
  1

  9
$XEDIT
290
    1
  9
$CEPSNTYPE
380
    0
  9
$PSTYLEMODE
290
    1
  9
$EXTNAMES
290
    1
  9
$PSVPSCALE
 40
1
  9
$OLESTARTUP
290
    0
  9
$SORTENTS
280
  127
  9
$INDEXCTL
280
    0
  9
$HIDETEXT
280
    1
  9
$XCLIPFRAME
290
    0
  9
$HALOGAP
280
    0
  9
$OBSCOLOR
 70
  257
  9
$OBSLTYPE
280
    0
  9
$INTERSECTIONDISPLAY
280
    0
  9
$INTERSECTIONCOLOR
 70
  257
  9
$DIMASSOC
280
    1
  9
$PROJECTNAME
  1

  9
$CAMERADISPLAY
290
    0
  9
$LENSLENGTH
 40
50
  9
$CAMERAHEIGHT
 40
0
  9
$STEPSPERSEC
 40
2
  9
$STEPSIZE
 40
50
  9
$3DDWFPREC
 40
2
  9
$PSOLWIDTH
 40
5
  9
$PSOLHEIGHT
 40
80
  9
$LOFTANG1
 40
1.570796326794897
  9
$LOFTANG2
 40
1.570796326794897
  9
$LOFTMAG1
 40
0
  9
$LOFTMAG2
 40
0
  9
$LOFTPARAM
 70
    7
  9
$LOFTNORMALS
280
    1
  9
$LATITUDE
 40
1
  9
$LONGITUDE
 40
1
  9
$NORTHDIRECTION
 40
0
  9
$TIMEZONE
 70
-8000
  9
$LIGHTGLYPHDISPLAY
280
    1
  9
$TILEMODELIGHTSYNCH
280
    1
  9
$SOLIDHIST
280
    1
  9
$SHOWHIST
280
    1
  9
$DWFFRAME
280
    2
  9
$DGNFRAME
280
    0
  9
$REALWORLDSCALE
290
    1
  9
$INTERFERECOLOR
 62
    1
  9
$CSHADOW
280
    0
  9
$SHADOWPLANELOCATION
 40
0
  0
ENDSEC
  0
SECTION
  2
CLASSES
  0
ENDSEC
  0
SECTION
  2
TABLES
  0
TABLE
  2
VPORT
  5
8
330
0
100
AcDbSymbolTable
 70
    1
  0
VPORT
  5
31
330
2
100
AcDbSymbolTableRecord
100
AcDbViewportTableRecord
  2
*ACTIVE
 70
    0
 10
0
 20
0
 11
1
 21
1
 12
91.83493678035897
 22
63.6504281352542
 13
0
 23
0
 14
10
 24
10
 15
0.001
 25
0.001
 16
0
 26
0
 36
1
 17
0
 27
0
 37
0
 40
85.69279429882472
 41
1.028901734104046
 42
50
 43
0
 44
0
 50
0
 51
0
 71
    0
 72
  100
 73
    1
 74
    3
 75
    0
 76
    1
 77
    0
 78
    0
281
    0
 65
    1
110
0
120
0
130
0
111
1
121
0
131
0
112
0
122
1
132
0
 79
    0
146
0
348
10020
 60
    3
 61
    5
292
1
282
    1
141
0
142
0
 63
  250
421
3358443
  0
ENDTAB
  0
TABLE
  2
LTYPE
  5
5
330
0
100
AcDbSymbolTable
 70
    4
  0
LTYPE
  5
14
330
5
100
AcDbSymbolTableRecord
100
AcDbLinetypeTableRecord
  2
ByBlock
 70
    0
  3

 72
   65
 73
    0
 40
0
  0
LTYPE
  5
15
330
5
100
AcDbSymbolTableRecord
100
AcDbLinetypeTableRecord
  2
ByLayer
 70
    0
  3

 72
   65
 73
    0
 40
0
  0
LTYPE
  5
16
330
5
100
AcDbSymbolTableRecord
100
AcDbLinetypeTableRecord
  2
Continuous
 70
    0
  3
Solid line
 72
   65
 73
    0
 40
0
  0
LTYPE
  5
32
330
5
100
AcDbSymbolTableRecord
100
AcDbLinetypeTableRecord
  2
DOT
 70
    0
  3
Dot . . . . . . . . . . . . . . . . . . . . . .
 72
   65
 73
    2
 40
6.35
 49
0
 74
    0
 49
-6.35
 74
    0
  0
LTYPE
  5
33
330
5
100
AcDbSymbolTableRecord
100
AcDbLinetypeTableRecord
  2
DOTTINY
 70
    0
  3
Dot (.15x) .....................................
 72
   65
 73
    2
 40
0.9525
 49
0
 74
    0
 49
-0.9525
 74
    0
  0
LTYPE
  5
34
330
5
100
AcDbSymbolTableRecord
100
AcDbLinetypeTableRecord
  2
DOT2
 70
    0
  3
Dot (.5x) .....................................
 72
   65
 73
    2
 40
3.175
 49
0
 74
    0
 49
-3.175
 74
    0
  0
LTYPE
  5
35
330
5
100
AcDbSymbolTableRecord
100
AcDbLinetypeTableRecord
  2
DOTX2
 70
    0
  3
Dot (2x) .  .  .  .  .  .  .  .  .  .  .  .  .
 72
   65
 73
    2
 40
12.7
 49
0
 74
    0
 49
-12.7
 74
    0
  0
LTYPE
  5
36
330
5
100
AcDbSymbolTableRecord
100
AcDbLinetypeTableRecord
  2
DASHED
 70
    0
  3
Dashed _ _ _ _ _ _ _ _ _ _ _ _ _ _ _ _ _
 72
   65
 73
    2
 40
19.05
 49
12.7
 74
    0
 49
-6.35
 74
    0
  0
LTYPE
  5
37
330
5
100
AcDbSymbolTableRecord
100
AcDbLinetypeTableRecord
  2
DASHEDTINY
 70
    0
  3
Dashed (.15x) _ _ _ _ _ _ _ _ _ _ _ _ _ _ _ _ _
 72
   65
 73
    2
 40
2.8575
 49
1.905
 74
    0
 49
-0.9525
 74
    0
  0
LTYPE
  5
38
330
5
100
AcDbSymbolTableRecord
100
AcDbLinetypeTableRecord
  2
DASHED2
 70
    0
  3
Dashed (.5x) _ _ _ _ _ _ _ _ _ _ _ _ _ _ _ _ _
 72
   65
 73
    2
 40
9.524999999999999
 49
6.35
 74
    0
 49
-3.175
 74
    0
  0
LTYPE
  5
39
330
5
100
AcDbSymbolTableRecord
100
AcDbLinetypeTableRecord
  2
DASHEDX2
 70
    0
  3
Dashed (2x) ____  ____  ____  ____  ____  ___
 72
   65
 73
    2
 40
38.09999999999999
 49
25.4
 74
    0
 49
-12.7
 74
    0
  0
LTYPE
  5
3A
330
5
100
AcDbSymbolTableRecord
100
AcDbLinetypeTableRecord
  2
DASHDOT
 70
    0
  3
Dash dot __ . __ . __ . __ . __ . __ . __ . __
 72
   65
 73
    4
 40
25.4
 49
12.7
 74
    0
 49
-6.35
 74
    0
 49
0
 74
    0
 49
-6.35
 74
    0
  0
LTYPE
  5
3B
330
5
100
AcDbSymbolTableRecord
100
AcDbLinetypeTableRecord
  2
DASHDOTTINY
 70
    0
  3
Dash dot (.15x) _._._._._._._._._._._._._._._.
 72
   65
 73
    4
 40
3.81
 49
1.905
 74
    0
 49
-0.9525
 74
    0
 49
0
 74
    0
 49
-0.9525
 74
    0
  0
LTYPE
  5
3C
330
5
100
AcDbSymbolTableRecord
100
AcDbLinetypeTableRecord
  2
DASHDOT2
 70
    0
  3
Dash dot (.5x) _._._._._._._._._._._._._._._.
 72
   65
 73
    4
 40
12.7
 49
6.35
 74
    0
 49
-3.175
 74
    0
 49
0
 74
    0
 49
-3.175
 74
    0
  0
LTYPE
  5
3D
330
5
100
AcDbSymbolTableRecord
100
AcDbLinetypeTableRecord
  2
DASHDOTX2
 70
    0
  3
Dash dot (2x) ____  .  ____  .  ____  .  ___
 72
   65
 73
    4
 40
50.8
 49
25.4
 74
    0
 49
-12.7
 74
    0
 49
0
 74
    0
 49
-12.7
 74
    0
  0
LTYPE
  5
3E
330
5
100
AcDbSymbolTableRecord
100
AcDbLinetypeTableRecord
  2
DIVIDE
 70
    0
  3
Divide ____ . . ____ . . ____ . . ____ . . ____
 72
   65
 73
    6
 40
31.75
 49
12.7
 74
    0
 49
-6.35
 74
    0
 49
0
 74
    0
 49
-6.35
 74
    0
 49
0
 74
    0
 49
-6.35
 74
    0
  0
LTYPE
  5
3F
330
5
100
AcDbSymbolTableRecord
100
AcDbLinetypeTableRecord
  2
DIVIDETINY
 70
    0
  3
Divide (.15x) __..__..__..__..__..__..__..__.._
 72
   65
 73
    6
 40
4.7625
 49
1.905
 74
    0
 49
-0.9525
 74
    0
 49
0
 74
    0
 49
-0.9525
 74
    0
 49
0
 74
    0
 49
-0.9525
 74
    0
  0
LTYPE
  5
40
330
5
100
AcDbSymbolTableRecord
100
AcDbLinetypeTableRecord
  2
DIVIDE2
 70
    0
  3
Divide (.5x) __..__..__..__..__..__..__..__.._
 72
   65
 73
    6
 40
15.875
 49
6.35
 74
    0
 49
-3.175
 74
    0
 49
0
 74
    0
 49
-3.175
 74
    0
 49
0
 74
    0
 49
-3.175
 74
    0
  0
LTYPE
  5
41
330
5
100
AcDbSymbolTableRecord
100
AcDbLinetypeTableRecord
  2
DIVIDEX2
 70
    0
  3
Divide (2x) ________  .  .  ________  .  .  _
 72
   65
 73
    6
 40
63.5
 49
25.4
 74
    0
 49
-12.7
 74
    0
 49
0
 74
    0
 49
-12.7
 74
    0
 49
0
 74
    0
 49
-12.7
 74
    0
  0
LTYPE
  5
42
330
5
100
AcDbSymbolTableRecord
100
AcDbLinetypeTableRecord
  2
BORDER
 70
    0
  3
Border __ __ . __ __ . __ __ . __ __ . __ __ .
 72
   65
 73
    6
 40
44.45
 49
12.7
 74
    0
 49
-6.35
 74
    0
 49
12.7
 74
    0
 49
-6.35
 74
    0
 49
0
 74
    0
 49
-6.35
 74
    0
  0
LTYPE
  5
43
330
5
100
AcDbSymbolTableRecord
100
AcDbLinetypeTableRecord
  2
BORDERTINY
 70
    0
  3
Border (.15x) __.__.__.__.__.__.__.__.__.__.__.
 72
   65
 73
    6
 40
6.6675
 49
1.905
 74
    0
 49
-0.9525
 74
    0
 49
1.905
 74
    0
 49
-0.9525
 74
    0
 49
0
 74
    0
 49
-0.9525
 74
    0
  0
LTYPE
  5
44
330
5
100
AcDbSymbolTableRecord
100
AcDbLinetypeTableRecord
  2
BORDER2
 70
    0
  3
Border (.5x) __.__.__.__.__.__.__.__.__.__.__.
 72
   65
 73
    6
 40
22.225
 49
6.35
 74
    0
 49
-3.175
 74
    0
 49
6.35
 74
    0
 49
-3.175
 74
    0
 49
0
 74
    0
 49
-3.175
 74
    0
  0
LTYPE
  5
45
330
5
100
AcDbSymbolTableRecord
100
AcDbLinetypeTableRecord
  2
BORDERX2
 70
    0
  3
Border (2x) ____  ____  .  ____  ____  .  ___
 72
   65
 73
    6
 40
88.89999999999999
 49
25.4
 74
    0
 49
-12.7
 74
    0
 49
25.4
 74
    0
 49
-12.7
 74
    0
 49
0
 74
    0
 49
-12.7
 74
    0
  0
LTYPE
  5
46
330
5
100
AcDbSymbolTableRecord
100
AcDbLinetypeTableRecord
  2
CENTER
 70
    0
  3
Center ____ _ ____ _ ____ _ ____ _ ____ _ ____
 72
   65
 73
    4
 40
50.8
 49
31.75
 74
    0
 49
-6.35
 74
    0
 49
6.35
 74
    0
 49
-6.35
 74
    0
  0
LTYPE
  5
47
330
5
100
AcDbSymbolTableRecord
100
AcDbLinetypeTableRecord
  2
CENTERTINY
 70
    0
  3
Center (.15x) ___ _ ___ _ ___ _ ___ _ ___ _ ___
 72
   65
 73
    4
 40
7.619999999999999
 49
4.7625
 74
    0
 49
-0.9525
 74
    0
 49
0.9525
 74
    0
 49
-0.9525
 74
    0
  0
LTYPE
  5
48
330
5
100
AcDbSymbolTableRecord
100
AcDbLinetypeTableRecord
  2
CENTER2
 70
    0
  3
Center (.5x) ___ _ ___ _ ___ _ ___ _ ___ _ ___
 72
   65
 73
    4
 40
28.575
 49
19.05
 74
    0
 49
-3.175
 74
    0
 49
3.175
 74
    0
 49
-3.175
 74
    0
  0
LTYPE
  5
49
330
5
100
AcDbSymbolTableRecord
100
AcDbLinetypeTableRecord
  2
CENTERX2
 70
    0
  3
Center (2x) ________  __  ________  __  _____
 72
   65
 73
    4
 40
101.6
 49
63.5
 74
    0
 49
-12.7
 74
    0
 49
12.7
 74
    0
 49
-12.7
 74
    0
  0
ENDTAB
  0
TABLE
  2
LAYER
  5
2
330
0
100
AcDbSymbolTable
 70
    1
  0
LAYER
  5
10
330
2
100
AcDbSymbolTableRecord
100
AcDbLayerTableRecord
  2
0
 70
    0
 62
    7
  6
CONTINUOUS
370
    9
390
F
  0
LAYER
  5
4A
330
2
100
AcDbSymbolTableRecord
100
AcDbLayerTableRecord
  2
ProjItem
 70
    0
 62
    7
  6
CONTINUOUS
370
    9
390
F
  0
LAYER
  5
4B
330
2
100
AcDbSymbolTableRecord
100
AcDbLayerTableRecord
  2
ProjItem001
 70
    0
 62
    7
  6
CONTINUOUS
370
    9
390
F
  0
LAYER
  5
4C
330
2
100
AcDbSymbolTableRecord
100
AcDbLayerTableRecord
  2
ProjItem002
 70
    0
 62
    7
  6
CONTINUOUS
370
    9
390
F
  0
LAYER
  5
4D
330
2
100
AcDbSymbolTableRecord
100
AcDbLayerTableRecord
  2
dim
 70
    0
 62
    7
  6
CONTINUOUS
370
    9
390
F
  0
LAYER
  5
4E
330
2
100
AcDbSymbolTableRecord
100
AcDbLayerTableRecord
  2
leader
 70
    0
 62
    7
  6
DASHDOTTINY
370
    5
390
F
  0
ENDTAB
  0
TABLE
  2
STYLE
  5
3
330
0
100
AcDbSymbolTable
 70
    3
  0
STYLE
  5
4F
330
2
100
AcDbSymbolTableRecord
100
AcDbTextStyleTableRecord
  2
standard
 70
    0
 40
0
 41
1
 50
0
 71
    0
 42
1
  3
standard
  4

  0
ENDTAB
  0
TABLE
  2
VIEW
  5
6
330
0
100
AcDbSymbolTable
 70
    0
  0
ENDTAB
  0
TABLE
  2
UCS
  5
7
330
0
100
AcDbSymbolTable
 70
    0
  0
ENDTAB
  0
TABLE
  2
APPID
  5
9
330
0
100
AcDbSymbolTable
 70
    1
  0
APPID
  5
12
330
9
100
AcDbSymbolTableRecord
100
AcDbRegAppTableRecord
  2
ACAD
 70
    0
  0
APPID
  5
50
330
9
100
AcDbSymbolTableRecord
100
AcDbRegAppTableRecord
  2
LibreCad
 70
    0
  0
ENDTAB
  0
TABLE
  2
DIMSTYLE
  5
A
330
0
100
AcDbSymbolTable
 70
    1
100
AcDbDimStyleTable
 71
    1
  0
DIMSTYLE
105
51
330
A
100
AcDbSymbolTableRecord
100
AcDbDimStyleTableRecord
  2
Standard
 70
    0
 40
2.5
 41
0.35
 42
0.2
 43
0.38
 44
0.65
 45
0
 46
0
 47
0
 48
0
 49
1
140
0.35
141
0.09
142
0
143
25.4
144
1
145
0
146
1
147
0.2
148
0
 71
    0
 72
    0
 73
    0
 74
    1
 75
    0
 76
    0
 77
    0
 78
    8
 79
    0
170
    0
171
    2
172
    0
173
    0
174
    0
175
    0
176
    0
177
    0
178
    0
179
    0
271
    1
272
    4
273
    2
274
    2
275
    0
276
    0
277
    2
278
    0
279
    0
280
    0
281
    0
282
    0
283
    1
284
    0
285
    0
286
    0
288
    0
289
    3
340
cursive
341

371
   -2
372
   -2
  0
ENDTAB
  0
TABLE
  2
BLOCK_RECORD
  5
1
330
0
100
AcDbSymbolTable
 70
    2
  0
BLOCK_RECORD
  5
1F
330
1
100
AcDbSymbolTableRecord
100
AcDbBlockTableRecord
  2
*Model_Space
 70
    0
280
    1
281
    0
  0
BLOCK_RECORD
  5
1E
330
1
100
AcDbSymbolTableRecord
100
AcDbBlockTableRecord
  2
*Paper_Space
 70
    0
280
    1
281
    0
  0
BLOCK_RECORD
  5
52
330
1
100
AcDbSymbolTableRecord
100
AcDbBlockTableRecord
  2
*D6
 70
    0
280
    1
281
    0
  0
BLOCK_RECORD
  5
55
330
1
100
AcDbSymbolTableRecord
100
AcDbBlockTableRecord
  2
*D9
 70
    0
280
    1
281
    0
  0
BLOCK_RECORD
  5
58
330
1
100
AcDbSymbolTableRecord
100
AcDbBlockTableRecord
  2
*D5
 70
    0
280
    1
281
    0
  0
BLOCK_RECORD
  5
5B
330
1
100
AcDbSymbolTableRecord
100
AcDbBlockTableRecord
  2
*D7
 70
    0
280
    1
281
    0
  0
BLOCK_RECORD
  5
5E
330
1
100
AcDbSymbolTableRecord
100
AcDbBlockTableRecord
  2
*D1
 70
    0
280
    1
281
    0
  0
BLOCK_RECORD
  5
61
330
1
100
AcDbSymbolTableRecord
100
AcDbBlockTableRecord
  2
*D13
 70
    0
280
    1
281
    0
  0
BLOCK_RECORD
  5
64
330
1
100
AcDbSymbolTableRecord
100
AcDbBlockTableRecord
  2
*D2
 70
    0
280
    1
281
    0
  0
BLOCK_RECORD
  5
67
330
1
100
AcDbSymbolTableRecord
100
AcDbBlockTableRecord
  2
*D17
 70
    0
280
    1
281
    0
  0
BLOCK_RECORD
  5
6A
330
1
100
AcDbSymbolTableRecord
100
AcDbBlockTableRecord
  2
*D16
 70
    0
280
    1
281
    0
  0
BLOCK_RECORD
  5
6D
330
1
100
AcDbSymbolTableRecord
100
AcDbBlockTableRecord
  2
*D10
 70
    0
280
    1
281
    0
  0
BLOCK_RECORD
  5
70
330
1
100
AcDbSymbolTableRecord
100
AcDbBlockTableRecord
  2
*D11
 70
    0
280
    1
281
    0
  0
BLOCK_RECORD
  5
73
330
1
100
AcDbSymbolTableRecord
100
AcDbBlockTableRecord
  2
*D15
 70
    0
280
    1
281
    0
  0
BLOCK_RECORD
  5
76
330
1
100
AcDbSymbolTableRecord
100
AcDbBlockTableRecord
  2
*D3
 70
    0
280
    1
281
    0
  0
BLOCK_RECORD
  5
79
330
1
100
AcDbSymbolTableRecord
100
AcDbBlockTableRecord
  2
*D18
 70
    0
280
    1
281
    0
  0
BLOCK_RECORD
  5
7C
330
1
100
AcDbSymbolTableRecord
100
AcDbBlockTableRecord
  2
*D8
 70
    0
280
    1
281
    0
  0
BLOCK_RECORD
  5
7F
330
1
100
AcDbSymbolTableRecord
100
AcDbBlockTableRecord
  2
*D14
 70
    0
280
    1
281
    0
  0
BLOCK_RECORD
  5
82
330
1
100
AcDbSymbolTableRecord
100
AcDbBlockTableRecord
  2
*D19
 70
    0
280
    1
281
    0
  0
BLOCK_RECORD
  5
85
330
1
100
AcDbSymbolTableRecord
100
AcDbBlockTableRecord
  2
*D4
 70
    0
280
    1
281
    0
  0
BLOCK_RECORD
  5
88
330
1
100
AcDbSymbolTableRecord
100
AcDbBlockTableRecord
  2
*D12
 70
    0
280
    1
281
    0
  0
BLOCK_RECORD
  5
8B
330
1
100
AcDbSymbolTableRecord
100
AcDbBlockTableRecord
  2
*D20
 70
    0
280
    1
281
    0
  0
BLOCK_RECORD
  5
8E
330
1
100
AcDbSymbolTableRecord
100
AcDbBlockTableRecord
  2
Wireling_Accelerometer_AST1001_REV1-DETAILED_DRAWING-DXF
 70
    0
280
    1
281
    0
  0
BLOCK_RECORD
  5
91
330
1
100
AcDbSymbolTableRecord
100
AcDbBlockTableRecord
  2
Wireling_SWITCH_AST1029_REV1-DETAILED_DRAWING-DXF
 70
    0
280
    1
281
    0
  0
ENDTAB
  0
ENDSEC
  0
SECTION
  2
BLOCKS
  0
BLOCK
  5
20
330
1F
100
AcDbEntity
  8
0
100
AcDbBlockBegin
  2
*Model_Space
 70
    0
 10
0
 20
0
 30
0
  3
*Model_Space
  1

  0
ENDBLK
  5
21
330
1F
100
AcDbEntity
  8
0
100
AcDbBlockEnd
  0
BLOCK
  5
1C
330
1B
100
AcDbEntity
  8
0
100
AcDbBlockBegin
  2
*Paper_Space
 70
    0
 10
0
 20
0
 30
0
  3
*Paper_Space
  1

  0
ENDBLK
  5
1D
330
1F
100
AcDbEntity
  8
0
100
AcDbBlockEnd
  0
BLOCK
  5
53
330
52
100
AcDbEntity
  8
0
100
AcDbBlockBegin
  2
*D6
 70
    1
 10
0
 20
0
  3
*D6
  1

  0
LINE
  5
94
100
AcDbEntity
  8
dim
  6
ByBlock
 62
    0
370
   -2
100
AcDbLine
 10
121.35
 20
109.95
 11
128.05
 21
109.95
  0
MTEXT
  5
95
100
AcDbEntity
  8
dim
  6
CONTINUOUS
 62
    0
370
   -2
100
AcDbMText
 10
124.7
 20
110.8875
 30
0
 40
0.875
 41
1.496423545323248
 71
    5
 72
    1
  1
6.7
  7
cursive
210
0
220
0
230
1
 50
0
 73
    2
 44
1
  0
SOLID
  5
96
100
AcDbEntity
  8
dim
  6
ByBlock
 62
    0
370
   -2
100
AcDbTrace
 10
121.35
 20
109.95
 30
0
 11
122.225
 21
110.0956996302205
 31
0
 12
122.225
 22
109.8043003697795
 32
0
 13
122.225
 23
109.8043003697795
 33
0
  0
SOLID
  5
97
100
AcDbEntity
  8
dim
  6
ByBlock
 62
    0
370
   -2
100
AcDbTrace
 10
128.05
 20
109.95
 30
0
 11
127.175
 21
109.8043003697795
 31
0
 12
127.175
 22
110.0956996302205
 32
0
 13
127.175
 23
110.0956996302205
 33
0
  0
LINE
  5
98
100
AcDbEntity
  8
dim
  6
ByBlock
 62
    0
370
   -2
100
AcDbLine
 10
121.35
 20
109.9
 11
121.35
 21
111.575
  0
LINE
  5
99
100
AcDbEntity
  8
dim
  6
ByBlock
 62
    0
370
   -2
100
AcDbLine
 10
128.05
 20
109.9
 11
128.05
 21
111.575
  0
ENDBLK
  5
54
330
52
100
AcDbEntity
  8
0
100
AcDbBlockEnd
  0
BLOCK
  5
56
330
55
100
AcDbEntity
  8
0
100
AcDbBlockBegin
  2
*D9
 70
    1
 10
0
 20
0
  3
*D9
  1

  0
LINE
  5
9A
100
AcDbEntity
  8
dim
  6
ByBlock
 62
    0
370
   -2
100
AcDbLine
 10
134.85
 20
114
 11
139.75
 21
114
  0
MTEXT
  5
9B
100
AcDbEntity
  8
dim
  6
CONTINUOUS
 62
    0
370
   -2
100
AcDbMText
 10
139
 20
115
 30
0
 40
0.875
 41
1.329009305555556
 71
    5
 72
    1
  1
1.4
  7
cursive
210
0
220
0
230
1
 50
0
 73
    2
 44
1
  0
SOLID
  5
9C
100
AcDbEntity
  8
dim
  6
ByBlock
 62
    0
370
   -2
100
AcDbTrace
 10
136.6
 20
114
 30
0
 11
135.725
 21
113.8543003697795
 31
0
 12
135.725
 22
114.1456996302205
 32
0
 13
135.725
 23
114.1456996302205
 33
0
  0
SOLID
  5
9D
100
AcDbEntity
  8
dim
  6
ByBlock
 62
    0
370
   -2
100
AcDbTrace
 10
138
 20
114
 30
0
 11
138.875
 21
114.1456996302205
 31
0
 12
138.875
 22
113.8543003697795
 32
0
 13
138.875
 23
113.8543003697795
 33
0
  0
LINE
  5
9E
100
AcDbEntity
  8
dim
  6
ByBlock
 62
    0
370
   -2
100
AcDbLine
 10
136.6
 20
112.9
 11
136.6
 21
115.625
  0
LINE
  5
9F
100
AcDbEntity
  8
dim
  6
ByBlock
 62
    0
370
   -2
100
AcDbLine
 10
138
 20
112.5
 11
138
 21
115.625
  0
ENDBLK
  5
57
330
55
100
AcDbEntity
  8
0
100
AcDbBlockEnd
  0
BLOCK
  5
59
330
58
100
AcDbEntity
  8
0
100
AcDbBlockBegin
  2
*D5
 70
    1
 10
0
 20
0
  3
*D5
  1

  0
LINE
  5
A0
100
AcDbEntity
  8
dim
  6
ByBlock
 62
    0
370
   -2
100
AcDbLine
 10
129.7
 20
116
 11
124.7
 21
116
  0
MTEXT
  5
A1
100
AcDbEntity
  8
dim
  6
CONTINUOUS
 62
    0
370
   -2
100
AcDbMText
 10
127.2
 20
116.9375
 30
0
 40
0.875
 41
0.6234861111111112
 71
    5
 72
    1
  1
5
  7
cursive
210
0
220
0
230
1
 50
0
 73
    2
 44
1
  0
SOLID
  5
A2
100
AcDbEntity
  8
dim
  6
ByBlock
 62
    0
370
   -2
100
AcDbTrace
 10
129.7
 20
116
 30
0
 11
128.825
 21
115.8543003697795
 31
0
 12
128.825
 22
116.1456996302205
 32
0
 13
128.825
 23
116.1456996302205
 33
0
  0
SOLID
  5
A3
100
AcDbEntity
  8
dim
  6
ByBlock
 62
    0
370
   -2
100
AcDbTrace
 10
124.7
 20
116
 30
0
 11
125.575
 21
116.1456996302205
 31
0
 12
125.575
 22
115.8543003697795
 32
0
 13
125.575
 23
115.8543003697795
 33
0
  0
LINE
  5
A4
100
AcDbEntity
  8
dim
  6
ByBlock
 62
    0
370
   -2
100
AcDbLine
 10
129.7
 20
112.9
 11
129.7
 21
117.625
  0
LINE
  5
A5
100
AcDbEntity
  8
dim
  6
ByBlock
 62
    0
370
   -2
100
AcDbLine
 10
124.7
 20
112.5
 11
124.7
 21
117.625
  0
ENDBLK
  5
5A
330
58
100
AcDbEntity
  8
0
100
AcDbBlockEnd
  0
BLOCK
  5
5C
330
5B
100
AcDbEntity
  8
0
100
AcDbBlockBegin
  2
*D7
 70
    1
 10
0
 20
0
  3
*D7
  1

  0
LINE
  5
A6
100
AcDbEntity
  8
dim
  6
ByBlock
 62
    0
370
   -2
100
AcDbLine
 10
119
 20
109.4
 11
119
 21
112
  0
MTEXT
  5
A7
100
AcDbEntity
  8
dim
  6
CONTINUOUS
 62
    0
370
   -2
100
AcDbMText
 10
118.0625
 20
110.7
 30
0
 40
0.875
 41
1.646687797979816
 71
    5
 72
    1
  1
2.6
  7
cursive
210
0
220
0
230
1
 50
90
 73
    2
 44
1
  0
SOLID
  5
A8
100
AcDbEntity
  8
dim
  6
ByBlock
 62
    0
370
   -2
100
AcDbTrace
 10
119
 20
109.4
 30
0
 11
118.8543003697795
 21
110.275
 31
0
 12
119.1456996302205
 22
110.275
 32
0
 13
119.1456996302205
 23
110.275
 33
0
  0
SOLID
  5
A9
100
AcDbEntity
  8
dim
  6
ByBlock
 62
    0
370
   -2
100
AcDbTrace
 10
119
 20
112
 30
0
 11
119.1456996302205
 21
111.125
 31
0
 12
118.8543003697795
 22
111.125
 32
0
 13
118.8543003697795
 23
111.125
 33
0
  0
LINE
  5
AA
100
AcDbEntity
  8
dim
  6
ByBlock
 62
    0
370
   -2
100
AcDbLine
 10
120.85
 20
109.4
 11
117.375
 21
109.4
  0
LINE
  5
AB
100
AcDbEntity
  8
dim
  6
ByBlock
 62
    0
370
   -2
100
AcDbLine
 10
120.85
 20
112
 11
117.375
 21
112
  0
ENDBLK
  5
5D
330
5B
100
AcDbEntity
  8
0
100
AcDbBlockEnd
  0
BLOCK
  5
5F
330
5E
100
AcDbEntity
  8
0
100
AcDbBlockBegin
  2
*D1
 70
    1
 10
0
 20
0
  3
*D1
  1

  0
LINE
  5
AC
100
AcDbEntity
  8
dim
  6
ByBlock
 62
    0
370
   -2
100
AcDbLine
 10
123.3
 20
114
 11
126.1
 21
114
  0
MTEXT
  5
AD
100
AcDbEntity
  8
dim
  6
CONTINUOUS
 62
    0
370
   -2
100
AcDbMText
 10
119.0894255234974
 20
114.9375
 30
0
 40
0.875
 41
7.494261557117538
 71
    5
 72
    1
  1
2.8 TRAVEL
  7
cursive
210
0
220
0
230
1
 50
0
 73
    2
 44
1
  0
SOLID
  5
AE
100
AcDbEntity
  8
dim
  6
ByBlock
 62
    0
370
   -2
100
AcDbTrace
 10
123.3
 20
114
 30
0
 11
124.175
 21
114.1456996302205
 31
0
 12
124.175
 22
113.8543003697795
 32
0
 13
124.175
 23
113.8543003697795
 33
0
  0
SOLID
  5
AF
100
AcDbEntity
  8
dim
  6
ByBlock
 62
    0
370
   -2
100
AcDbTrace
 10
126.1
 20
114
 30
0
 11
125.225
 21
113.8543003697795
 31
0
 12
125.225
 22
114.1456996302205
 32
0
 13
125.225
 23
114.1456996302205
 33
0
  0
LINE
  5
B0
100
AcDbEntity
  8
dim
  6
ByBlock
 62
    0
370
   -2
100
AcDbLine
 10
123.3
 20
114
 11
123.3
 21
115.625
  0
LINE
  5
B1
100
AcDbEntity
  8
dim
  6
ByBlock
 62
    0
370
   -2
100
AcDbLine
 10
126.1
 20
114
 11
126.1
 21
115.625
  0
ENDBLK
  5
60
330
5E
100
AcDbEntity
  8
0
100
AcDbBlockEnd
  0
BLOCK
  5
62
330
61
100
AcDbEntity
  8
0
100
AcDbBlockBegin
  2
*D13
 70
    1
 10
0
 20
0
  3
*D13
  1

  0
LINE
  5
B2
100
AcDbEntity
  8
dim
  6
ByBlock
 62
    0
370
   -2
100
AcDbLine
 10
144.698
 20
107.9
 11
149.698
 21
107.9
  0
MTEXT
  5
B3
100
AcDbEntity
  8
dim
  6
CONTINUOUS
 62
    0
370
   -2
100
AcDbMText
 10
144.1505590193372
 20
108.754751354752
 30
0
 40
0.875
 41
3.830333909090927
 71
    5
 72
    1
  1
2x 1.5
  7
cursive
210
0
220
0
230
1
 50
0
 73
    2
 44
1
  0
SOLID
  5
B4
100
AcDbEntity
  8
dim
  6
ByBlock
 62
    0
370
   -2
100
AcDbTrace
 10
146.448
 20
107.9
 30
0
 11
145.573
 21
107.7543003697795
 31
0
 12
145.573
 22
108.0456996302205
 32
0
 13
145.573
 23
108.0456996302205
 33
0
  0
SOLID
  5
B5
100
AcDbEntity
  8
dim
  6
ByBlock
 62
    0
370
   -2
100
AcDbTrace
 10
147.948
 20
107.9
 30
0
 11
148.823
 21
108.0456996302205
 31
0
 12
148.823
 22
107.7543003697795
 32
0
 13
148.823
 23
107.7543003697795
 33
0
  0
LINE
  5
B6
100
AcDbEntity
  8
dim
  6
ByBlock
 62
    0
370
   -2
100
AcDbLine
 10
146.448
 20
111.9
 11
146.448
 21
106.275
  0
LINE
  5
B7
100
AcDbEntity
  8
dim
  6
ByBlock
 62
    0
370
   -2
100
AcDbLine
 10
147.948
 20
107.4
 11
147.948
 21
106.275
  0
ENDBLK
  5
63
330
61
100
AcDbEntity
  8
0
100
AcDbBlockEnd
  0
BLOCK
  5
65
330
64
100
AcDbEntity
  8
0
100
AcDbBlockBegin
  2
*D2
 70
    1
 10
0
 20
0
  3
*D2
  1

  0
LINE
  5
B8
100
AcDbEntity
  8
dim
  6
ByBlock
 62
    0
370
   -2
100
AcDbLine
 10
121.2
 20
100
 11
128.2
 21
100
  0
MTEXT
  5
B9
100
AcDbEntity
  8
dim
  6
CONTINUOUS
 62
    0
370
   -2
100
AcDbMText
 10
124.7
 20
100.9375
 30
0
 40
0.875
 41
0.4289006944444445
 71
    5
 72
    1
  1
7
  7
cursive
210
0
220
0
230
1
 50
0
 73
    2
 44
1
  0
SOLID
  5
BA
100
AcDbEntity
  8
dim
  6
ByBlock
 62
    0
370
   -2
100
AcDbTrace
 10
121.2
 20
100
 30
0
 11
122.075
 21
100.1456996302205
 31
0
 12
122.075
 22
99.85430036977951
 32
0
 13
122.075
 23
99.85430036977951
 33
0
  0
SOLID
  5
BB
100
AcDbEntity
  8
dim
  6
ByBlock
 62
    0
370
   -2
100
AcDbTrace
 10
128.2
 20
100
 30
0
 11
127.325
 21
99.85430036977951
 31
0
 12
127.325
 22
100.1456996302205
 32
0
 13
127.325
 23
100.1456996302205
 33
0
  0
LINE
  5
BC
100
AcDbEntity
  8
dim
  6
ByBlock
 62
    0
370
   -2
100
AcDbLine
 10
121.2
 20
102.05
 11
121.2
 21
98.375
  0
LINE
  5
BD
100
AcDbEntity
  8
dim
  6
ByBlock
 62
    0
370
   -2
100
AcDbLine
 10
128.2
 20
102.05
 11
128.2
 21
98.375
  0
ENDBLK
  5
66
330
64
100
AcDbEntity
  8
0
100
AcDbBlockEnd
  0
BLOCK
  5
68
330
67
100
AcDbEntity
  8
0
100
AcDbBlockBegin
  2
*D17
 70
    1
 10
0
 20
0
  3
*D17
  1

  0
LINE
  5
BE
100
AcDbEntity
  8
dim
  6
ByBlock
 62
    0
370
   -2
100
AcDbLine
 10
159
 20
112.4
 11
159
 21
102.4
  0
MTEXT
  5
BF
100
AcDbEntity
  8
dim
  6
CONTINUOUS
 62
    0
370
   -2
100
AcDbMText
 10
158.0625
 20
107.4
 30
0
 40
0.875
 41
0.976973897469624
 71
    5
 72
    1
  1
10
  7
cursive
210
0
220
0
230
1
 50
90
 73
    2
 44
1
  0
SOLID
  5
C0
100
AcDbEntity
  8
dim
  6
ByBlock
 62
    0
370
   -2
100
AcDbTrace
 10
159
 20
112.4
 30
0
 11
159.1456996302205
 21
111.525
 31
0
 12
158.8543003697795
 22
111.525
 32
0
 13
158.8543003697795
 23
111.525
 33
0
  0
SOLID
  5
C1
100
AcDbEntity
  8
dim
  6
ByBlock
 62
    0
370
   -2
100
AcDbTrace
 10
159
 20
102.4
 30
0
 11
158.8543003697795
 21
103.275
 31
0
 12
159.1456996302205
 22
103.275
 32
0
 13
159.1456996302205
 23
103.275
 33
0
  0
LINE
  5
C2
100
AcDbEntity
  8
dim
  6
ByBlock
 62
    0
370
   -2
100
AcDbLine
 10
156.948
 20
112.4
 11
160.625
 21
112.4
  0
LINE
  5
C3
100
AcDbEntity
  8
dim
  6
ByBlock
 62
    0
370
   -2
100
AcDbLine
 10
156.948
 20
102.4
 11
160.625
 21
102.4
  0
ENDBLK
  5
69
330
67
100
AcDbEntity
  8
0
100
AcDbBlockEnd
  0
BLOCK
  5
6B
330
6A
100
AcDbEntity
  8
0
100
AcDbBlockBegin
  2
*D16
 70
    1
 10
0
 20
0
  3
*D16
  1

  0
LINE
  5
C4
100
AcDbEntity
  8
dim
  6
ByBlock
 62
    0
370
   -2
100
AcDbLine
 10
146.448
 20
114
 11
156.448
 21
114
  0
MTEXT
  5
C5
100
AcDbEntity
  8
dim
  6
CONTINUOUS
 62
    0
370
   -2
100
AcDbMText
 10
151.448
 20
114.9375
 30
0
 40
0.875
 41
0.976973897469624
 71
    5
 72
    1
  1
10
  7
cursive
210
0
220
0
230
1
 50
0
 73
    2
 44
1
  0
SOLID
  5
C6
100
AcDbEntity
  8
dim
  6
ByBlock
 62
    0
370
   -2
100
AcDbTrace
 10
146.448
 20
114
 30
0
 11
147.323
 21
114.1456996302205
 31
0
 12
147.323
 22
113.8543003697795
 32
0
 13
147.323
 23
113.8543003697795
 33
0
  0
SOLID
  5
C7
100
AcDbEntity
  8
dim
  6
ByBlock
 62
    0
370
   -2
100
AcDbTrace
 10
156.448
 20
114
 30
0
 11
155.573
 21
113.8543003697795
 31
0
 12
155.573
 22
114.1456996302205
 32
0
 13
155.573
 23
114.1456996302205
 33
0
  0
LINE
  5
C8
100
AcDbEntity
  8
dim
  6
ByBlock
 62
    0
370
   -2
100
AcDbLine
 10
146.448
 20
112.9
 11
146.448
 21
115.625
  0
LINE
  5
C9
100
AcDbEntity
  8
dim
  6
ByBlock
 62
    0
370
   -2
100
AcDbLine
 10
156.448
 20
112.9
 11
156.448
 21
115.625
  0
ENDBLK
  5
6C
330
6A
100
AcDbEntity
  8
0
100
AcDbBlockEnd
  0
BLOCK
  5
6E
330
6D
100
AcDbEntity
  8
0
100
AcDbBlockBegin
  2
*D10
 70
    1
 10
0
 20
0
  3
*D10
  1

  0
LINE
  5
CA
100
AcDbEntity
  8
dim
  6
ByBlock
 62
    0
370
   -2
100
AcDbLine
 10
140
 20
114.15
 11
140
 21
108.95
  0
MTEXT
  5
CB
100
AcDbEntity
  8
dim
  6
CONTINUOUS
 62
    0
370
   -2
100
AcDbMText
 10
139.0625
 20
111.55
 30
0
 40
0.875
 41
1.271798888888889
 71
    5
 72
    1
  1
1.7
  7
cursive
210
0
220
0
230
1
 50
90
 73
    2
 44
1
  0
SOLID
  5
CC
100
AcDbEntity
  8
dim
  6
ByBlock
 62
    0
370
   -2
100
AcDbTrace
 10
140
 20
112.4
 30
0
 11
139.8543003697795
 21
113.275
 31
0
 12
140.1456996302205
 22
113.275
 32
0
 13
140.1456996302205
 23
113.275
 33
0
  0
SOLID
  5
CD
100
AcDbEntity
  8
dim
  6
ByBlock
 62
    0
370
   -2
100
AcDbTrace
 10
140
 20
110.7
 30
0
 11
140.1456996302205
 21
109.825
 31
0
 12
139.8543003697795
 22
109.825
 32
0
 13
139.8543003697795
 23
109.825
 33
0
  0
LINE
  5
CE
100
AcDbEntity
  8
dim
  6
ByBlock
 62
    0
370
   -2
100
AcDbLine
 10
137.1
 20
112.4
 11
141.625
 21
112.4
  0
LINE
  5
CF
100
AcDbEntity
  8
dim
  6
ByBlock
 62
    0
370
   -2
100
AcDbLine
 10
138.5
 20
110.7
 11
141.625
 21
110.7
  0
ENDBLK
  5
6F
330
6D
100
AcDbEntity
  8
0
100
AcDbBlockEnd
  0
BLOCK
  5
71
330
70
100
AcDbEntity
  8
0
100
AcDbBlockBegin
  2
*D11
 70
    1
 10
0
 20
0
  3
*D11
  1

  0
LINE
  5
D0
100
AcDbEntity
  8
dim
  6
ByBlock
 62
    0
370
   -2
100
AcDbLine
 10
142
 20
102.4
 11
142
 21
104.675
  0
MTEXT
  5
D1
100
AcDbEntity
  8
dim
  6
CONTINUOUS
 62
    0
370
   -2
100
AcDbMText
 10
141.0625
 20
103.5375
 30
0
 40
0.875
 41
1.7530585299083
 71
    5
 72
    1
  1
2.3
  7
cursive
210
0
220
0
230
1
 50
90
 73
    2
 44
1
  0
SOLID
  5
D2
100
AcDbEntity
  8
dim
  6
ByBlock
 62
    0
370
   -2
100
AcDbTrace
 10
142
 20
102.4
 30
0
 11
141.8543003697795
 21
103.275
 31
0
 12
142.1456996302205
 22
103.275
 32
0
 13
142.1456996302205
 23
103.275
 33
0
  0
SOLID
  5
D3
100
AcDbEntity
  8
dim
  6
ByBlock
 62
    0
370
   -2
100
AcDbTrace
 10
142
 20
104.675
 30
0
 11
142.1456996302205
 21
103.8
 31
0
 12
141.8543003697795
 22
103.8
 32
0
 13
141.8543003697795
 23
103.8
 33
0
  0
LINE
  5
D4
100
AcDbEntity
  8
dim
  6
ByBlock
 62
    0
370
   -2
100
AcDbLine
 10
137.1
 20
102.4
 11
143.625
 21
102.4
  0
LINE
  5
D5
100
AcDbEntity
  8
dim
  6
ByBlock
 62
    0
370
   -2
100
AcDbLine
 10
139.995
 20
104.675
 11
143.625
 21
104.675
  0
ENDBLK
  5
72
330
70
100
AcDbEntity
  8
0
100
AcDbBlockEnd
  0
BLOCK
  5
74
330
73
100
AcDbEntity
  8
0
100
AcDbBlockBegin
  2
*D15
 70
    1
 10
0
 20
0
  3
*D15
  1

  0
SOLID
  5
D6
100
AcDbEntity
  8
dim
  6
ByBlock
 62
    0
370
   -2
100
AcDbTrace
 10
154.4252846523977
 20
107.3607693764437
 30
0
 11
153.920876893814
 21
106.6310939723584
 31
0
 12
153.7116473266883
 22
106.8339153647852
 32
0
 13
153.7116473266883
 23
106.8339153647852
 33
0
  0
LINE
  5
D7
100
AcDbEntity
  8
dim
  6
ByBlock
 62
    0
370
   -2
100
AcDbLine
 10
154.948
 20
107.9
 11
149.8039595138989
 21
102.5934327227187
  0
MTEXT
  5
D8
100
AcDbEntity
  8
dim
  6
CONTINUOUS
 62
    0
370
   -2
100
AcDbMText
 10
151.4414813247141
 20
105.629625201881
 30
0
 40
0.875
 41
4.889589204587161
 71
    5
 72
    1
  1
2x R0.8
  7
cursive
210
0
220
0
230
1
 50
45.89098632021634
 73
    2
 44
1
  0
ENDBLK
  5
75
330
73
100
AcDbEntity
  8
0
100
AcDbBlockEnd
  0
BLOCK
  5
77
330
76
100
AcDbEntity
  8
0
100
AcDbBlockBegin
  2
*D3
 70
    1
 10
0
 20
0
  3
*D3
  1

  0
LINE
  5
D9
100
AcDbEntity
  8
dim
  6
ByBlock
 62
    0
370
   -2
100
AcDbLine
 10
119
 20
106.8
 11
119
 21
102.55
  0
MTEXT
  5
DA
100
AcDbEntity
  8
dim
  6
CONTINUOUS
 62
    0
370
   -2
100
AcDbMText
 10
118.0625
 20
104.675
 30
0
 40
0.875
 41
1.660008093039595
 71
    5
 72
    1
  1
4.3
  7
cursive
210
0
220
0
230
1
 50
90
 73
    2
 44
1
  0
SOLID
  5
DB
100
AcDbEntity
  8
dim
  6
ByBlock
 62
    0
370
   -2
100
AcDbTrace
 10
119
 20
106.8
 30
0
 11
119.1456996302205
 21
105.925
 31
0
 12
118.8543003697795
 22
105.925
 32
0
 13
118.8543003697795
 23
105.925
 33
0
  0
SOLID
  5
DC
100
AcDbEntity
  8
dim
  6
ByBlock
 62
    0
370
   -2
100
AcDbTrace
 10
119
 20
102.55
 30
0
 11
118.8543003697795
 21
103.425
 31
0
 12
119.1456996302205
 22
103.425
 32
0
 13
119.1456996302205
 23
103.425
 33
0
  0
LINE
  5
DD
100
AcDbEntity
  8
dim
  6
ByBlock
 62
    0
370
   -2
100
AcDbLine
 10
120.7
 20
106.8
 11
117.375
 21
106.8
  0
LINE
  5
DE
100
AcDbEntity
  8
dim
  6
ByBlock
 62
    0
370
   -2
100
AcDbLine
 10
120.7
 20
102.55
 11
117.375
 21
102.55
  0
ENDBLK
  5
78
330
76
100
AcDbEntity
  8
0
100
AcDbBlockEnd
  0
BLOCK
  5
7A
330
79
100
AcDbEntity
  8
0
100
AcDbBlockBegin
  2
*D18
 70
    1
 10
0
 20
0
  3
*D18
  1

  0
LINE
  5
DF
100
AcDbEntity
  8
dim
  6
ByBlock
 62
    0
370
   -2
100
AcDbLine
 10
162
 20
113.5
 11
162
 21
102.4
  0
MTEXT
  5
E0
100
AcDbEntity
  8
dim
  6
CONTINUOUS
 62
    0
370
   -2
100
AcDbMText
 10
161.0625
 20
107.95
 30
0
 40
0.875
 41
1.627670138888889
 71
    5
 72
    1
  1
11.1
  7
cursive
210
0
220
0
230
1
 50
90
 73
    2
 44
1
  0
SOLID
  5
E1
100
AcDbEntity
  8
dim
  6
ByBlock
 62
    0
370
   -2
100
AcDbTrace
 10
162
 20
113.5
 30
0
 11
162.1456996302205
 21
112.625
 31
0
 12
161.8543003697795
 22
112.625
 32
0
 13
161.8543003697795
 23
112.625
 33
0
  0
SOLID
  5
E2
100
AcDbEntity
  8
dim
  6
ByBlock
 62
    0
370
   -2
100
AcDbTrace
 10
162
 20
102.4
 30
0
 11
161.8543003697795
 21
103.275
 31
0
 12
162.1456996302205
 22
103.275
 32
0
 13
162.1456996302205
 23
103.275
 33
0
  0
LINE
  5
E3
100
AcDbEntity
  8
dim
  6
ByBlock
 62
    0
370
   -2
100
AcDbLine
 10
153.348
 20
113.5
 11
163.625
 21
113.5
  0
LINE
  5
E4
100
AcDbEntity
  8
dim
  6
ByBlock
 62
    0
370
   -2
100
AcDbLine
 10
156.948
 20
102.4
 11
163.625
 21
102.4
  0
ENDBLK
  5
7B
330
79
100
AcDbEntity
  8
0
100
AcDbBlockEnd
  0
BLOCK
  5
7D
330
7C
100
AcDbEntity
  8
0
100
AcDbBlockBegin
  2
*D8
 70
    1
 10
0
 20
0
  3
*D8
  1

  0
LINE
  5
E5
100
AcDbEntity
  8
dim
  6
ByBlock
 62
    0
370
   -2
100
AcDbLine
 10
134.25
 20
116
 11
138.35
 21
116
  0
MTEXT
  5
E6
100
AcDbEntity
  8
dim
  6
CONTINUOUS
 62
    0
370
   -2
100
AcDbMText
 10
137.8531421055087
 20
116.9375
 30
0
 40
0.875
 41
1.506284211017288
 71
    5
 72
    1
  1
0.6
  7
cursive
210
0
220
0
230
1
 50
0
 73
    2
 44
1
  0
SOLID
  5
E7
100
AcDbEntity
  8
dim
  6
ByBlock
 62
    0
370
   -2
100
AcDbTrace
 10
136
 20
116
 30
0
 11
135.125
 21
115.8543003697795
 31
0
 12
135.125
 22
116.1456996302205
 32
0
 13
135.125
 23
116.1456996302205
 33
0
  0
SOLID
  5
E8
100
AcDbEntity
  8
dim
  6
ByBlock
 62
    0
370
   -2
100
AcDbTrace
 10
136.6
 20
116
 30
0
 11
137.475
 21
116.1456996302205
 31
0
 12
137.475
 22
115.8543003697795
 32
0
 13
137.475
 23
115.8543003697795
 33
0
  0
LINE
  5
E9
100
AcDbEntity
  8
dim
  6
ByBlock
 62
    0
370
   -2
100
AcDbLine
 10
136
 20
112.9
 11
136
 21
117.625
  0
LINE
  5
EA
100
AcDbEntity
  8
dim
  6
ByBlock
 62
    0
370
   -2
100
AcDbLine
 10
136.6
 20
112.9
 11
136.6
 21
117.625
  0
ENDBLK
  5
7E
330
7C
100
AcDbEntity
  8
0
100
AcDbBlockEnd
  0
BLOCK
  5
80
330
7F
100
AcDbEntity
  8
0
100
AcDbBlockBegin
  2
*D14
 70
    1
 10
0
 20
0
  3
*D14
  1

  0
LINE
  5
EB
100
AcDbEntity
  8
dim
  6
ByBlock
 62
    0
370
   -2
100
AcDbLine
 10
147.948
 20
102.4
 11
147.948
 21
107.9
  0
MTEXT
  5
EC
100
AcDbEntity
  8
dim
  6
CONTINUOUS
 62
    0
370
   -2
100
AcDbMText
 10
147.0105
 20
105.15
 30
0
 40
0.875
 41
4.20726738131315
 71
    5
 72
    1
  1
2x 5.5
  7
cursive
210
0
220
0
230
1
 50
90
 73
    2
 44
1
  0
SOLID
  5
ED
100
AcDbEntity
  8
dim
  6
ByBlock
 62
    0
370
   -2
100
AcDbTrace
 10
147.948
 20
102.4
 30
0
 11
147.8023003697795
 21
103.275
 31
0
 12
148.0936996302205
 22
103.275
 32
0
 13
148.0936996302205
 23
103.275
 33
0
  0
SOLID
  5
EE
100
AcDbEntity
  8
dim
  6
ByBlock
 62
    0
370
   -2
100
AcDbTrace
 10
147.948
 20
107.9
 30
0
 11
148.0936996302205
 21
107.025
 31
0
 12
147.8023003697795
 22
107.025
 32
0
 13
147.8023003697795
 23
107.025
 33
0
  0
LINE
  5
EF
100
AcDbEntity
  8
dim
  6
ByBlock
 62
    0
370
   -2
100
AcDbLine
 10
146.948
 20
102.4
 11
149.573
 21
102.4
  0
LINE
  5
F0
100
AcDbEntity
  8
dim
  6
ByBlock
 62
    0
370
   -2
100
AcDbLine
 10
148.448
 20
107.9
 11
149.573
 21
107.9
  0
ENDBLK
  5
81
330
7F
100
AcDbEntity
  8
0
100
AcDbBlockEnd
  0
BLOCK
  5
83
330
82
100
AcDbEntity
  8
0
100
AcDbBlockBegin
  2
*D19
 70
    1
 10
0
 20
0
  3
*D19
  1

  0
LINE
  5
F1
100
AcDbEntity
  8
dim
  6
ByBlock
 62
    0
370
   -2
100
AcDbLine
 10
136.6
 20
100
 11
139.495
 21
100
  0
MTEXT
  5
F2
100
AcDbEntity
  8
dim
  6
CONTINUOUS
 62
    0
370
   -2
100
AcDbMText
 10
138.0475
 20
100.9375
 30
0
 40
0.875
 41
1.646688588909285
 71
    5
 72
    1
  1
2.9
  7
cursive
210
0
220
0
230
1
 50
0
 73
    2
 44
1
  0
SOLID
  5
F3
100
AcDbEntity
  8
dim
  6
ByBlock
 62
    0
370
   -2
100
AcDbTrace
 10
136.6
 20
100
 30
0
 11
137.475
 21
100.1456996302205
 31
0
 12
137.475
 22
99.85430036977951
 32
0
 13
137.475
 23
99.85430036977951
 33
0
  0
SOLID
  5
F4
100
AcDbEntity
  8
dim
  6
ByBlock
 62
    0
370
   -2
100
AcDbTrace
 10
139.495
 20
100
 30
0
 11
138.62
 21
99.85430036977951
 31
0
 12
138.62
 22
100.1456996302205
 32
0
 13
138.62
 23
100.1456996302205
 33
0
  0
LINE
  5
F5
100
AcDbEntity
  8
dim
  6
ByBlock
 62
    0
370
   -2
100
AcDbLine
 10
136.6
 20
101.9
 11
136.6
 21
98.375
  0
LINE
  5
F6
100
AcDbEntity
  8
dim
  6
ByBlock
 62
    0
370
   -2
100
AcDbLine
 10
139.495
 20
102.05
 11
139.495
 21
98.375
  0
ENDBLK
  5
84
330
82
100
AcDbEntity
  8
0
100
AcDbBlockEnd
  0
BLOCK
  5
86
330
85
100
AcDbEntity
  8
0
100
AcDbBlockBegin
  2
*D4
 70
    1
 10
0
 20
0
  3
*D4
  1

  0
LINE
  5
F7
100
AcDbEntity
  8
dim
  6
ByBlock
 62
    0
370
   -2
100
AcDbLine
 10
119.7
 20
97
 11
124.7
 21
97
  0
MTEXT
  5
F8
100
AcDbEntity
  8
dim
  6
CONTINUOUS
 62
    0
370
   -2
100
AcDbMText
 10
122.2
 20
97.9375
 30
0
 40
0.875
 41
0.6234861111111112
 71
    5
 72
    1
  1
5
  7
cursive
210
0
220
0
230
1
 50
0
 73
    2
 44
1
  0
SOLID
  5
F9
100
AcDbEntity
  8
dim
  6
ByBlock
 62
    0
370
   -2
100
AcDbTrace
 10
119.7
 20
97
 30
0
 11
120.575
 21
97.14569963022049
 31
0
 12
120.575
 22
96.85430036977951
 32
0
 13
120.575
 23
96.85430036977951
 33
0
  0
SOLID
  5
FA
100
AcDbEntity
  8
dim
  6
ByBlock
 62
    0
370
   -2
100
AcDbTrace
 10
124.7
 20
97
 30
0
 11
123.825
 21
96.85430036977951
 31
0
 12
123.825
 22
97.14569963022049
 32
0
 13
123.825
 23
97.14569963022049
 33
0
  0
LINE
  5
FB
100
AcDbEntity
  8
dim
  6
ByBlock
 62
    0
370
   -2
100
AcDbLine
 10
119.7
 20
101.9
 11
119.7
 21
95.375
  0
LINE
  5
FC
100
AcDbEntity
  8
dim
  6
ByBlock
 62
    0
370
   -2
100
AcDbLine
 10
124.7
 20
99.23695649051018
 11
124.7
 21
95.375
  0
ENDBLK
  5
87
330
85
100
AcDbEntity
  8
0
100
AcDbBlockEnd
  0
BLOCK
  5
89
330
88
100
AcDbEntity
  8
0
100
AcDbBlockBegin
  2
*D12
 70
    1
 10
0
 20
0
  3
*D12
  1

  0
LINE
  5
FD
100
AcDbEntity
  8
dim
  6
ByBlock
 62
    0
370
   -2
100
AcDbLine
 10
147.948
 20
107.9
 11
154.948
 21
107.9
  0
MTEXT
  5
FE
100
AcDbEntity
  8
dim
  6
CONTINUOUS
 62
    0
370
   -2
100
AcDbMText
 10
151.448
 20
108.8375
 30
0
 40
0.875
 41
0.4289006944444445
 71
    5
 72
    1
  1
7
  7
cursive
210
0
220
0
230
1
 50
0
 73
    2
 44
1
  0
SOLID
  5
FF
100
AcDbEntity
  8
dim
  6
ByBlock
 62
    0
370
   -2
100
AcDbTrace
 10
147.948
 20
107.9
 30
0
 11
148.823
 21
108.0456996302205
 31
0
 12
148.823
 22
107.7543003697795
 32
0
 13
148.823
 23
107.7543003697795
 33
0
  0
SOLID
  5
100
100
AcDbEntity
  8
dim
  6
ByBlock
 62
    0
370
   -2
100
AcDbTrace
 10
154.948
 20
107.9
 30
0
 11
154.073
 21
107.7543003697795
 31
0
 12
154.073
 22
108.0456996302205
 32
0
 13
154.073
 23
108.0456996302205
 33
0
  0
LINE
  5
101
100
AcDbEntity
  8
dim
  6
ByBlock
 62
    0
370
   -2
100
AcDbLine
 10
147.948
 20
108.4
 11
147.948
 21
109.525
  0
LINE
  5
102
100
AcDbEntity
  8
dim
  6
ByBlock
 62
    0
370
   -2
100
AcDbLine
 10
154.948
 20
108.4
 11
154.948
 21
109.525
  0
ENDBLK
  5
8A
330
88
100
AcDbEntity
  8
0
100
AcDbBlockEnd
  0
BLOCK
  5
8C
330
8B
100
AcDbEntity
  8
0
100
AcDbBlockBegin
  2
*D20
 70
    1
 10
0
 20
0
  3
*D20
  1

  0
LINE
  5
103
100
AcDbEntity
  8
dim
  6
ByBlock
 62
    0
370
   -2
100
AcDbLine
 10
136
 20
97
 11
139.495
 21
97
  0
MTEXT
  5
104
100
AcDbEntity
  8
dim
  6
CONTINUOUS
 62
    0
370
   -2
100
AcDbMText
 10
137.7475
 20
97.9375
 30
0
 40
0.875
 41
1.797383093039595
 71
    5
 72
    1
  1
3.5
  7
cursive
210
0
220
0
230
1
 50
0
 73
    2
 44
1
  0
SOLID
  5
105
100
AcDbEntity
  8
dim
  6
ByBlock
 62
    0
370
   -2
100
AcDbTrace
 10
136
 20
97
 30
0
 11
136.875
 21
97.14569963022049
 31
0
 12
136.875
 22
96.85430036977951
 32
0
 13
136.875
 23
96.85430036977951
 33
0
  0
SOLID
  5
106
100
AcDbEntity
  8
dim
  6
ByBlock
 62
    0
370
   -2
100
AcDbTrace
 10
139.495
 20
97
 30
0
 11
138.62
 21
96.85430036977951
 31
0
 12
138.62
 22
97.14569963022049
 32
0
 13
138.62
 23
97.14569963022049
 33
0
  0
LINE
  5
107
100
AcDbEntity
  8
dim
  6
ByBlock
 62
    0
370
   -2
100
AcDbLine
 10
136
 20
101.9
 11
136
 21
95.375
  0
LINE
  5
108
100
AcDbEntity
  8
dim
  6
ByBlock
 62
    0
370
   -2
100
AcDbLine
 10
139.495
 20
102.05
 11
139.495
 21
95.375
  0
ENDBLK
  5
8D
330
8B
100
AcDbEntity
  8
0
100
AcDbBlockEnd
  0
BLOCK
  5
8F
330
8E
100
AcDbEntity
  8
0
100
AcDbBlockBegin
  2
Wireling_Accelerometer_AST1001_REV1-DETAILED_DRAWING-DXF
 70
    0
 10
0
 20
0
  3
Wireling_Accelerometer_AST1001_REV1-DETAILED_DRAWING-DXF
  1

  0
ENDBLK
  5
90
330
8E
100
AcDbEntity
  8
0
100
AcDbBlockEnd
  0
BLOCK
  5
92
330
91
100
AcDbEntity
  8
0
100
AcDbBlockBegin
  2
Wireling_SWITCH_AST1029_REV1-DETAILED_DRAWING-DXF
 70
    0
 10
0
 20
0
  3
Wireling_SWITCH_AST1029_REV1-DETAILED_DRAWING-DXF
  1

  0
LINE
  5
109
100
AcDbEntity
  8
ProjItem
  6
ByLayer
 62
  256
370
   -1
100
AcDbLine
 10
124
 20
106.8
 11
124
 21
107.7
  0
LINE
  5
10A
100
AcDbEntity
  8
ProjItem
  6
ByLayer
 62
  256
370
   -1
100
AcDbLine
 10
124
 20
107.7
 11
123.4
 21
107.7
  0
LINE
  5
10B
100
AcDbEntity
  8
ProjItem
  6
ByLayer
 62
  256
370
   -1
100
AcDbLine
 10
123.4
 20
107.7
 11
123.4
 21
106.8
  0
LINE
  5
10C
100
AcDbEntity
  8
ProjItem
  6
ByLayer
 62
  256
370
   -1
100
AcDbLine
 10
121.2
 20
104
 11
121.004
 21
104
  0
CIRCLE
  5
10D
100
AcDbEntity
  8
ProjItem
  6
ByLayer
 62
  256
370
   -1
100
AcDbCircle
 10
121.004
 20
103.996
 40
0.004
  0
LINE
  5
10E
100
AcDbEntity
  8
ProjItem
  6
ByLayer
 62
  256
370
   -1
100
AcDbLine
 10
121
 20
103.996
 11
121
 21
102.604
  0
CIRCLE
  5
10F
100
AcDbEntity
  8
ProjItem
  6
ByLayer
 62
  256
370
   -1
100
AcDbCircle
 10
121.004
 20
102.604
 40
0.004
  0
LINE
  5
110
100
AcDbEntity
  8
ProjItem
  6
ByLayer
 62
  256
370
   -1
100
AcDbLine
 10
121.004
 20
102.6
 11
121.2
 21
102.6
  0
LINE
  5
111
100
AcDbEntity
  8
ProjItem
  6
ByLayer
 62
  256
370
   -1
100
AcDbLine
 10
128.4
 20
102.6
 11
128.4
 21
104
  0
LINE
  5
112
100
AcDbEntity
  8
ProjItem
  6
ByLayer
 62
  256
370
   -1
100
AcDbLine
 10
128.4
 20
104
 11
128.2
 21
104
  0
LINE
  5
113
100
AcDbEntity
  8
ProjItem
  6
ByLayer
 62
  256
370
   -1
100
AcDbLine
 10
128.2
 20
102.6
 11
128.4
 21
102.6
  0
LINE
  5
114
100
AcDbEntity
  8
ProjItem
  6
ByLayer
 62
  256
370
   -1
100
AcDbLine
 10
125
 20
106.8
 11
125
 21
107.7
  0
LINE
  5
115
100
AcDbEntity
  8
ProjItem
  6
ByLayer
 62
  256
370
   -1
100
AcDbLine
 10
125
 20
107.7
 11
124.4
 21
107.7
  0
LINE
  5
116
100
AcDbEntity
  8
ProjItem
  6
ByLayer
 62
  256
370
   -1
100
AcDbLine
 10
124.4
 20
107.7
 11
124.4
 21
106.8
  0
LINE
  5
117
100
AcDbEntity
  8
ProjItem
  6
ByLayer
 62
  256
370
   -1
100
AcDbLine
 10
126
 20
106.8
 11
126
 21
107.7
  0
LINE
  5
118
100
AcDbEntity
  8
ProjItem
  6
ByLayer
 62
  256
370
   -1
100
AcDbLine
 10
126
 20
107.7
 11
125.4
 21
107.7
  0
LINE
  5
119
100
AcDbEntity
  8
ProjItem
  6
ByLayer
 62
  256
370
   -1
100
AcDbLine
 10
125.4
 20
107.7
 11
125.4
 21
106.8
  0
LINE
  5
11A
100
AcDbEntity
  8
ProjItem
  6
ByLayer
 62
  256
370
   -1
100
AcDbLine
 10
127
 20
106.8
 11
127
 21
107.7
  0
LINE
  5
11B
100
AcDbEntity
  8
ProjItem
  6
ByLayer
 62
  256
370
   -1
100
AcDbLine
 10
127
 20
107.7
 11
126.4
 21
107.7
  0
LINE
  5
11C
100
AcDbEntity
  8
ProjItem
  6
ByLayer
 62
  256
370
   -1
100
AcDbLine
 10
126.4
 20
107.7
 11
126.4
 21
106.8
  0
LINE
  5
11D
100
AcDbEntity
  8
ProjItem
  6
ByLayer
 62
  256
370
   -1
100
AcDbLine
 10
123
 20
106.8
 11
123
 21
107.7
  0
LINE
  5
11E
100
AcDbEntity
  8
ProjItem
  6
ByLayer
 62
  256
370
   -1
100
AcDbLine
 10
123
 20
107.7
 11
122.4
 21
107.7
  0
LINE
  5
11F
100
AcDbEntity
  8
ProjItem
  6
ByLayer
 62
  256
370
   -1
100
AcDbLine
 10
122.4
 20
107.7
 11
122.4
 21
106.8
  0
LINE
  5
120
100
AcDbEntity
  8
ProjItem
  6
ByLayer
 62
  256
370
   -1
100
AcDbLine
 10
128.725
 20
106.325
 11
128.725
 21
105.675
  0
LINE
  5
121
100
AcDbEntity
  8
ProjItem
  6
ByLayer
 62
  256
370
   -1
100
AcDbLine
 10
128.725
 20
105.675
 11
128.75
 21
105.675
  0
LINE
  5
122
100
AcDbEntity
  8
ProjItem
  6
ByLayer
 62
  256
370
   -1
100
AcDbLine
 10
129.25
 20
105.675
 11
129.275
 21
105.675
  0
LINE
  5
123
100
AcDbEntity
  8
ProjItem
  6
ByLayer
 62
  256
370
   -1
100
AcDbLine
 10
129.275
 20
105.675
 11
129.275
 21
106.325
  0
LINE
  5
124
100
AcDbEntity
  8
ProjItem
  6
ByLayer
 62
  256
370
   -1
100
AcDbLine
 10
129.275
 20
106.325
 11
128.725
 21
106.325
  0
LINE
  5
125
100
AcDbEntity
  8
ProjItem
  6
ByLayer
 62
  256
370
   -1
100
AcDbLine
 10
128.725
 20
105.125
 11
128.725
 21
104.475
  0
LINE
  5
126
100
AcDbEntity
  8
ProjItem
  6
ByLayer
 62
  256
370
   -1
100
AcDbLine
 10
128.725
 20
104.475
 11
129.275
 21
104.475
  0
LINE
  5
127
100
AcDbEntity
  8
ProjItem
  6
ByLayer
 62
  256
370
   -1
100
AcDbLine
 10
129.275
 20
104.475
 11
129.275
 21
105.125
  0
LINE
  5
128
100
AcDbEntity
  8
ProjItem
  6
ByLayer
 62
  256
370
   -1
100
AcDbLine
 10
129.275
 20
105.125
 11
129.25
 21
105.125
  0
LINE
  5
129
100
AcDbEntity
  8
ProjItem
  6
ByLayer
 62
  256
370
   -1
100
AcDbLine
 10
128.75
 20
105.125
 11
128.725
 21
105.125
  0
LINE
  5
12A
100
AcDbEntity
  8
ProjItem
  6
ByLayer
 62
  256
370
   -1
100
AcDbLine
 10
121.35
 20
110
 11
120.55
 21
110
  0
LINE
  5
12B
100
AcDbEntity
  8
ProjItem
  6
ByLayer
 62
  256
370
   -1
100
AcDbLine
 10
120.55
 20
110
 11
120.55
 21
109.2
  0
LINE
  5
12C
100
AcDbEntity
  8
ProjItem
  6
ByLayer
 62
  256
370
   -1
100
AcDbLine
 10
120.55
 20
109.2
 11
121.55
 21
109.2
  0
LINE
  5
12D
100
AcDbEntity
  8
ProjItem
  6
ByLayer
 62
  256
370
   -1
100
AcDbLine
 10
121.55
 20
109.2
 11
121.55
 21
109.4
  0
LINE
  5
12E
100
AcDbEntity
  8
ProjItem
  6
ByLayer
 62
  256
370
   -1
100
AcDbLine
 10
128.85
 20
110
 11
128.05
 21
110
  0
LINE
  5
12F
100
AcDbEntity
  8
ProjItem
  6
ByLayer
 62
  256
370
   -1
100
AcDbLine
 10
127.85
 20
109.4
 11
127.85
 21
109.2
  0
LINE
  5
130
100
AcDbEntity
  8
ProjItem
  6
ByLayer
 62
  256
370
   -1
100
AcDbLine
 10
127.85
 20
109.2
 11
128.85
 21
109.2
  0
LINE
  5
131
100
AcDbEntity
  8
ProjItem
  6
ByLayer
 62
  256
370
   -1
100
AcDbLine
 10
128.85
 20
109.2
 11
128.85
 21
110
  0
LINE
  5
132
100
AcDbEntity
  8
ProjItem
  6
ByLayer
 62
  256
370
   -1
100
AcDbLine
 10
128.85
 20
112.2
 11
127.85
 21
112.2
  0
LINE
  5
133
100
AcDbEntity
  8
ProjItem
  6
ByLayer
 62
  256
370
   -1
100
AcDbLine
 10
127.85
 20
112.2
 11
127.85
 21
112
  0
LINE
  5
134
100
AcDbEntity
  8
ProjItem
  6
ByLayer
 62
  256
370
   -1
100
AcDbLine
 10
128.05
 20
111.4
 11
128.85
 21
111.4
  0
LINE
  5
135
100
AcDbEntity
  8
ProjItem
  6
ByLayer
 62
  256
370
   -1
100
AcDbLine
 10
128.85
 20
111.4
 11
128.85
 21
112.2
  0
LINE
  5
136
100
AcDbEntity
  8
ProjItem
  6
ByLayer
 62
  256
370
   -1
100
AcDbLine
 10
121.55
 20
112.2
 11
120.55
 21
112.2
  0
LINE
  5
137
100
AcDbEntity
  8
ProjItem
  6
ByLayer
 62
  256
370
   -1
100
AcDbLine
 10
120.55
 20
112.2
 11
120.55
 21
111.4
  0
LINE
  5
138
100
AcDbEntity
  8
ProjItem
  6
ByLayer
 62
  256
370
   -1
100
AcDbLine
 10
120.55
 20
111.4
 11
121.35
 21
111.4
  0
LINE
  5
139
100
AcDbEntity
  8
ProjItem
  6
ByLayer
 62
  256
370
   -1
100
AcDbLine
 10
121.55
 20
112
 11
121.55
 21
112.2
  0
LINE
  5
13A
100
AcDbEntity
  8
ProjItem
  6
ByLayer
 62
  256
370
   -1
100
AcDbLine
 10
123.6
 20
109.4
 11
123.6
 21
108.2
  0
LINE
  5
13B
100
AcDbEntity
  8
ProjItem
  6
ByLayer
 62
  256
370
   -1
100
AcDbLine
 10
123.6
 20
108.2
 11
124.3
 21
108.2
  0
LINE
  5
13C
100
AcDbEntity
  8
ProjItem
  6
ByLayer
 62
  256
370
   -1
100
AcDbLine
 10
124.3
 20
108.2
 11
124.3
 21
109.4
  0
LINE
  5
13D
100
AcDbEntity
  8
ProjItem
  6
ByLayer
 62
  256
370
   -1
100
AcDbLine
 10
122.1
 20
109.4
 11
122.1
 21
108.2
  0
LINE
  5
13E
100
AcDbEntity
  8
ProjItem
  6
ByLayer
 62
  256
370
   -1
100
AcDbLine
 10
122.1
 20
108.2
 11
122.8
 21
108.2
  0
LINE
  5
13F
100
AcDbEntity
  8
ProjItem
  6
ByLayer
 62
  256
370
   -1
100
AcDbLine
 10
122.8
 20
108.2
 11
122.8
 21
109.4
  0
LINE
  5
140
100
AcDbEntity
  8
ProjItem
  6
ByLayer
 62
  256
370
   -1
100
AcDbLine
 10
126.6
 20
109.4
 11
126.6
 21
108.2
  0
LINE
  5
141
100
AcDbEntity
  8
ProjItem
  6
ByLayer
 62
  256
370
   -1
100
AcDbLine
 10
126.6
 20
108.2
 11
127.3
 21
108.2
  0
LINE
  5
142
100
AcDbEntity
  8
ProjItem
  6
ByLayer
 62
  256
370
   -1
100
AcDbLine
 10
127.3
 20
108.2
 11
127.3
 21
109.4
  0
LINE
  5
143
100
AcDbEntity
  8
ProjItem
  6
ByLayer
 62
  256
370
   -1
100
AcDbLine
 10
124
 20
106.8
 11
124
 21
107.7
  0
LINE
  5
144
100
AcDbEntity
  8
ProjItem
  6
ByLayer
 62
  256
370
   -1
100
AcDbLine
 10
124
 20
107.7
 11
123.4
 21
107.7
  0
LINE
  5
145
100
AcDbEntity
  8
ProjItem
  6
ByLayer
 62
  256
370
   -1
100
AcDbLine
 10
123.4
 20
107.7
 11
123.4
 21
106.8
  0
LINE
  5
146
100
AcDbEntity
  8
ProjItem
  6
ByLayer
 62
  256
370
   -1
100
AcDbLine
 10
121.2
 20
104
 11
121.004
 21
104
  0
CIRCLE
  5
147
100
AcDbEntity
  8
ProjItem
  6
ByLayer
 62
  256
370
   -1
100
AcDbCircle
 10
121.004
 20
103.996
 40
0.004
  0
LINE
  5
148
100
AcDbEntity
  8
ProjItem
  6
ByLayer
 62
  256
370
   -1
100
AcDbLine
 10
121
 20
103.996
 11
121
 21
102.604
  0
CIRCLE
  5
149
100
AcDbEntity
  8
ProjItem
  6
ByLayer
 62
  256
370
   -1
100
AcDbCircle
 10
121.004
 20
102.604
 40
0.004
  0
LINE
  5
14A
100
AcDbEntity
  8
ProjItem
  6
ByLayer
 62
  256
370
   -1
100
AcDbLine
 10
121.004
 20
102.6
 11
121.2
 21
102.6
  0
LINE
  5
14B
100
AcDbEntity
  8
ProjItem
  6
ByLayer
 62
  256
370
   -1
100
AcDbLine
 10
128.4
 20
102.6
 11
128.4
 21
104
  0
LINE
  5
14C
100
AcDbEntity
  8
ProjItem
  6
ByLayer
 62
  256
370
   -1
100
AcDbLine
 10
128.4
 20
104
 11
128.2
 21
104
  0
LINE
  5
14D
100
AcDbEntity
  8
ProjItem
  6
ByLayer
 62
  256
370
   -1
100
AcDbLine
 10
128.2
 20
102.6
 11
128.4
 21
102.6
  0
LINE
  5
14E
100
AcDbEntity
  8
ProjItem
  6
ByLayer
 62
  256
370
   -1
100
AcDbLine
 10
125
 20
106.8
 11
125
 21
107.7
  0
LINE
  5
14F
100
AcDbEntity
  8
ProjItem
  6
ByLayer
 62
  256
370
   -1
100
AcDbLine
 10
125
 20
107.7
 11
124.4
 21
107.7
  0
LINE
  5
150
100
AcDbEntity
  8
ProjItem
  6
ByLayer
 62
  256
370
   -1
100
AcDbLine
 10
124.4
 20
107.7
 11
124.4
 21
106.8
  0
LINE
  5
151
100
AcDbEntity
  8
ProjItem
  6
ByLayer
 62
  256
370
   -1
100
AcDbLine
 10
126
 20
106.8
 11
126
 21
107.7
  0
LINE
  5
152
100
AcDbEntity
  8
ProjItem
  6
ByLayer
 62
  256
370
   -1
100
AcDbLine
 10
126
 20
107.7
 11
125.4
 21
107.7
  0
LINE
  5
153
100
AcDbEntity
  8
ProjItem
  6
ByLayer
 62
  256
370
   -1
100
AcDbLine
 10
125.4
 20
107.7
 11
125.4
 21
106.8
  0
LINE
  5
154
100
AcDbEntity
  8
ProjItem
  6
ByLayer
 62
  256
370
   -1
100
AcDbLine
 10
127
 20
106.8
 11
127
 21
107.7
  0
LINE
  5
155
100
AcDbEntity
  8
ProjItem
  6
ByLayer
 62
  256
370
   -1
100
AcDbLine
 10
127
 20
107.7
 11
126.4
 21
107.7
  0
LINE
  5
156
100
AcDbEntity
  8
ProjItem
  6
ByLayer
 62
  256
370
   -1
100
AcDbLine
 10
126.4
 20
107.7
 11
126.4
 21
106.8
  0
LINE
  5
157
100
AcDbEntity
  8
ProjItem
  6
ByLayer
 62
  256
370
   -1
100
AcDbLine
 10
123
 20
106.8
 11
123
 21
107.7
  0
LINE
  5
158
100
AcDbEntity
  8
ProjItem
  6
ByLayer
 62
  256
370
   -1
100
AcDbLine
 10
123
 20
107.7
 11
122.4
 21
107.7
  0
LINE
  5
159
100
AcDbEntity
  8
ProjItem
  6
ByLayer
 62
  256
370
   -1
100
AcDbLine
 10
122.4
 20
107.7
 11
122.4
 21
106.8
  0
LINE
  5
15A
100
AcDbEntity
  8
ProjItem
  6
ByLayer
 62
  256
370
   -1
100
AcDbLine
 10
128.725
 20
106.325
 11
128.725
 21
105.675
  0
LINE
  5
15B
100
AcDbEntity
  8
ProjItem
  6
ByLayer
 62
  256
370
   -1
100
AcDbLine
 10
128.725
 20
105.675
 11
128.75
 21
105.675
  0
LINE
  5
15C
100
AcDbEntity
  8
ProjItem
  6
ByLayer
 62
  256
370
   -1
100
AcDbLine
 10
129.25
 20
105.675
 11
129.275
 21
105.675
  0
LINE
  5
15D
100
AcDbEntity
  8
ProjItem
  6
ByLayer
 62
  256
370
   -1
100
AcDbLine
 10
129.275
 20
105.675
 11
129.275
 21
106.325
  0
LINE
  5
15E
100
AcDbEntity
  8
ProjItem
  6
ByLayer
 62
  256
370
   -1
100
AcDbLine
 10
129.275
 20
106.325
 11
128.725
 21
106.325
  0
LINE
  5
15F
100
AcDbEntity
  8
ProjItem
  6
ByLayer
 62
  256
370
   -1
100
AcDbLine
 10
128.725
 20
105.125
 11
128.725
 21
104.475
  0
LINE
  5
160
100
AcDbEntity
  8
ProjItem
  6
ByLayer
 62
  256
370
   -1
100
AcDbLine
 10
128.725
 20
104.475
 11
129.275
 21
104.475
  0
LINE
  5
161
100
AcDbEntity
  8
ProjItem
  6
ByLayer
 62
  256
370
   -1
100
AcDbLine
 10
129.275
 20
104.475
 11
129.275
 21
105.125
  0
LINE
  5
162
100
AcDbEntity
  8
ProjItem
  6
ByLayer
 62
  256
370
   -1
100
AcDbLine
 10
129.275
 20
105.125
 11
129.25
 21
105.125
  0
LINE
  5
163
100
AcDbEntity
  8
ProjItem
  6
ByLayer
 62
  256
370
   -1
100
AcDbLine
 10
128.75
 20
105.125
 11
128.725
 21
105.125
  0
LINE
  5
164
100
AcDbEntity
  8
ProjItem
  6
ByLayer
 62
  256
370
   -1
100
AcDbLine
 10
121.35
 20
110
 11
120.55
 21
110
  0
LINE
  5
165
100
AcDbEntity
  8
ProjItem
  6
ByLayer
 62
  256
370
   -1
100
AcDbLine
 10
120.55
 20
110
 11
120.55
 21
109.2
  0
LINE
  5
166
100
AcDbEntity
  8
ProjItem
  6
ByLayer
 62
  256
370
   -1
100
AcDbLine
 10
120.55
 20
109.2
 11
121.55
 21
109.2
  0
LINE
  5
167
100
AcDbEntity
  8
ProjItem
  6
ByLayer
 62
  256
370
   -1
100
AcDbLine
 10
121.55
 20
109.2
 11
121.55
 21
109.4
  0
LINE
  5
168
100
AcDbEntity
  8
ProjItem
  6
ByLayer
 62
  256
370
   -1
100
AcDbLine
 10
128.85
 20
110
 11
128.05
 21
110
  0
LINE
  5
169
100
AcDbEntity
  8
ProjItem
  6
ByLayer
 62
  256
370
   -1
100
AcDbLine
 10
127.85
 20
109.4
 11
127.85
 21
109.2
  0
LINE
  5
16A
100
AcDbEntity
  8
ProjItem
  6
ByLayer
 62
  256
370
   -1
100
AcDbLine
 10
127.85
 20
109.2
 11
128.85
 21
109.2
  0
LINE
  5
16B
100
AcDbEntity
  8
ProjItem
  6
ByLayer
 62
  256
370
   -1
100
AcDbLine
 10
128.85
 20
109.2
 11
128.85
 21
110
  0
LINE
  5
16C
100
AcDbEntity
  8
ProjItem
  6
ByLayer
 62
  256
370
   -1
100
AcDbLine
 10
128.85
 20
112.2
 11
127.85
 21
112.2
  0
LINE
  5
16D
100
AcDbEntity
  8
ProjItem
  6
ByLayer
 62
  256
370
   -1
100
AcDbLine
 10
127.85
 20
112.2
 11
127.85
 21
112
  0
LINE
  5
16E
100
AcDbEntity
  8
ProjItem
  6
ByLayer
 62
  256
370
   -1
100
AcDbLine
 10
128.05
 20
111.4
 11
128.85
 21
111.4
  0
LINE
  5
16F
100
AcDbEntity
  8
ProjItem
  6
ByLayer
 62
  256
370
   -1
100
AcDbLine
 10
128.85
 20
111.4
 11
128.85
 21
112.2
  0
LINE
  5
170
100
AcDbEntity
  8
ProjItem
  6
ByLayer
 62
  256
370
   -1
100
AcDbLine
 10
121.55
 20
112.2
 11
120.55
 21
112.2
  0
LINE
  5
171
100
AcDbEntity
  8
ProjItem
  6
ByLayer
 62
  256
370
   -1
100
AcDbLine
 10
120.55
 20
112.2
 11
120.55
 21
111.4
  0
LINE
  5
172
100
AcDbEntity
  8
ProjItem
  6
ByLayer
 62
  256
370
   -1
100
AcDbLine
 10
120.55
 20
111.4
 11
121.35
 21
111.4
  0
LINE
  5
173
100
AcDbEntity
  8
ProjItem
  6
ByLayer
 62
  256
370
   -1
100
AcDbLine
 10
121.55
 20
112
 11
121.55
 21
112.2
  0
LINE
  5
174
100
AcDbEntity
  8
ProjItem
  6
ByLayer
 62
  256
370
   -1
100
AcDbLine
 10
123.6
 20
109.4
 11
123.6
 21
108.2
  0
LINE
  5
175
100
AcDbEntity
  8
ProjItem
  6
ByLayer
 62
  256
370
   -1
100
AcDbLine
 10
123.6
 20
108.2
 11
124.3
 21
108.2
  0
LINE
  5
176
100
AcDbEntity
  8
ProjItem
  6
ByLayer
 62
  256
370
   -1
100
AcDbLine
 10
124.3
 20
108.2
 11
124.3
 21
109.4
  0
LINE
  5
177
100
AcDbEntity
  8
ProjItem
  6
ByLayer
 62
  256
370
   -1
100
AcDbLine
 10
122.1
 20
109.4
 11
122.1
 21
108.2
  0
LINE
  5
178
100
AcDbEntity
  8
ProjItem
  6
ByLayer
 62
  256
370
   -1
100
AcDbLine
 10
122.1
 20
108.2
 11
122.8
 21
108.2
  0
LINE
  5
179
100
AcDbEntity
  8
ProjItem
  6
ByLayer
 62
  256
370
   -1
100
AcDbLine
 10
122.8
 20
108.2
 11
122.8
 21
109.4
  0
LINE
  5
17A
100
AcDbEntity
  8
ProjItem
  6
ByLayer
 62
  256
370
   -1
100
AcDbLine
 10
126.6
 20
109.4
 11
126.6
 21
108.2
  0
LINE
  5
17B
100
AcDbEntity
  8
ProjItem
  6
ByLayer
 62
  256
370
   -1
100
AcDbLine
 10
126.6
 20
108.2
 11
127.3
 21
108.2
  0
LINE
  5
17C
100
AcDbEntity
  8
ProjItem
  6
ByLayer
 62
  256
370
   -1
100
AcDbLine
 10
127.3
 20
108.2
 11
127.3
 21
109.4
  0
LINE
  5
17D
100
AcDbEntity
  8
ProjItem
  6
ByLayer
 62
  256
370
   -1
100
AcDbLine
 10
128.05
 20
109.4
 11
128.05
 21
109.8
  0
LINE
  5
17E
100
AcDbEntity
  8
ProjItem
  6
ByLayer
 62
  256
370
   -1
100
AcDbLine
 10
128.05
 20
109.8
 11
128.55
 21
109.8
  0
LINE
  5
17F
100
AcDbEntity
  8
ProjItem
  6
ByLayer
 62
  256
370
   -1
100
AcDbLine
 10
128.55
 20
109.8
 11
128.55
 21
109.4
  0
LINE
  5
180
100
AcDbEntity
  8
ProjItem
  6
ByLayer
 62
  256
370
   -1
100
AcDbLine
 10
128.55
 20
109.4
 11
128.05
 21
109.4
  0
LINE
  5
181
100
AcDbEntity
  8
ProjItem
  6
ByLayer
 62
  256
370
   -1
100
AcDbLine
 10
128.05
 20
111.6
 11
128.05
 21
112
  0
LINE
  5
182
100
AcDbEntity
  8
ProjItem
  6
ByLayer
 62
  256
370
   -1
100
AcDbLine
 10
128.05
 20
112
 11
128.05
 21
111.45
  0
LINE
  5
183
100
AcDbEntity
  8
ProjItem
  6
ByLayer
 62
  256
370
   -1
100
AcDbLine
 10
128.05
 20
111.45
 11
128.05
 21
109.95
  0
LINE
  5
184
100
AcDbEntity
  8
ProjItem
  6
ByLayer
 62
  256
370
   -1
100
AcDbLine
 10
128.05
 20
109.95
 11
128.05
 21
109.4
  0
LINE
  5
185
100
AcDbEntity
  8
ProjItem
  6
ByLayer
 62
  256
370
   -1
100
AcDbLine
 10
128.55
 20
111.6
 11
128.05
 21
111.6
  0
LINE
  5
186
100
AcDbEntity
  8
ProjItem
  6
ByLayer
 62
  256
370
   -1
100
AcDbLine
 10
128.05
 20
112
 11
128.55
 21
112
  0
LINE
  5
187
100
AcDbEntity
  8
ProjItem
  6
ByLayer
 62
  256
370
   -1
100
AcDbLine
 10
128.55
 20
112
 11
128.55
 21
111.6
  0
ELLIPSE
  5
188
100
AcDbEntity
  8
ProjItem
  6
ByLayer
 62
  256
370
   -1
100
AcDbEllipse
 10
127.75
 20
112
 30
0
 11
0.3
 21
7.966520000000001e-10
 31
0
 40
0
 41
4.71238898038469
 42
1.570796326794897
  0
LINE
  5
189
100
AcDbEntity
  8
ProjItem
  6
ByLayer
 62
  256
370
   -1
100
AcDbLine
 10
127.32
 20
112
 11
127.75
 21
112
  0
SPLINE
  5
18A
100
AcDbEntity
  8
ProjItem
  6
ByLayer
 62
  256
370
   -1
100
AcDbSpline
210
0
220
0
230
0
 70
    8
 71
    3
 72
   11
 73
    7
 74
    0
 42
1e-07
 43
1e-07
 40
4.71239
 40
4.71239
 40
4.71239
 40
4.71239
 40
5.49779
 40
5.49779
 40
5.49779
 40
6.28319
 40
6.28319
 40
6.28319
 40
6.28319
 10
128.05
 20
109.4
 30
0
 10
128.048
 20
109.4
 30
0
 10
128.019
 20
109.4
 30
0
 10
127.962
 20
109.4
 30
0
 10
127.906
 20
109.4
 30
0
 10
127.829
 20
109.4
 30
0
 10
127.75
 20
109.4
 30
0
  0
LINE
  5
18B
100
AcDbEntity
  8
ProjItem
  6
ByLayer
 62
  256
370
   -1
100
AcDbLine
 10
127.75
 20
109.4
 11
127.32
 21
109.4
  0
LINE
  5
18C
100
AcDbEntity
  8
ProjItem
  6
ByLayer
 62
  256
370
   -1
100
AcDbLine
 10
121.65
 20
112
 11
122.08
 21
112
  0
SPLINE
  5
18D
100
AcDbEntity
  8
ProjItem
  6
ByLayer
 62
  256
370
   -1
100
AcDbSpline
210
0
220
0
230
0
 70
    8
 71
    3
 72
   11
 73
    7
 74
    0
 42
1e-07
 43
1e-07
 40
3.14159
 40
3.14159
 40
3.14159
 40
3.14159
 40
3.92699
 40
3.92699
 40
3.92699
 40
4.71239
 40
4.71239
 40
4.71239
 40
4.71239
 10
121.65
 20
112
 30
0
 10
121.571
 20
112
 30
0
 10
121.494
 20
112
 30
0
 10
121.438
 20
112
 30
0
 10
121.381
 20
112
 30
0
 10
121.352
 20
112
 30
0
 10
121.35
 20
112
 30
0
  0
LINE
  5
18E
100
AcDbEntity
  8
ProjItem
  6
ByLayer
 62
  256
370
   -1
100
AcDbLine
 10
122.08
 20
112
 11
127.32
 21
112
  0
LINE
  5
18F
100
AcDbEntity
  8
ProjItem
  6
ByLayer
 62
  256
370
   -1
100
AcDbLine
 10
123.3
 20
112
 11
123.3
 21
113.5
  0
LINE
  5
190
100
AcDbEntity
  8
ProjItem
  6
ByLayer
 62
  256
370
   -1
100
AcDbLine
 10
124.6
 20
113.5
 11
124.6
 21
112
  0
LINE
  5
191
100
AcDbEntity
  8
ProjItem
  6
ByLayer
 62
  256
370
   -1
100
AcDbLine
 10
127.32
 20
109.4
 11
122.08
 21
109.4
  0
LINE
  5
192
100
AcDbEntity
  8
ProjItem
  6
ByLayer
 62
  256
370
   -1
100
AcDbLine
 10
122.08
 20
109.4
 11
121.65
 21
109.4
  0
SPLINE
  5
193
100
AcDbEntity
  8
ProjItem
  6
ByLayer
 62
  256
370
   -1
100
AcDbSpline
210
0
220
0
230
0
 70
    8
 71
    3
 72
   11
 73
    7
 74
    0
 42
1e-07
 43
1e-07
 40
3.14159
 40
3.14159
 40
3.14159
 40
3.14159
 40
3.92699
 40
3.92699
 40
3.92699
 40
4.71239
 40
4.71239
 40
4.71239
 40
4.71239
 10
121.65
 20
109.4
 30
0
 10
121.571
 20
109.4
 30
0
 10
121.494
 20
109.4
 30
0
 10
121.438
 20
109.4
 30
0
 10
121.381
 20
109.4
 30
0
 10
121.352
 20
109.4
 30
0
 10
121.35
 20
109.4
 30
0
  0
LINE
  5
194
100
AcDbEntity
  8
ProjItem
  6
ByLayer
 62
  256
370
   -1
100
AcDbLine
 10
122.25
 20
109.4
 11
122.25
 21
108.5
  0
LINE
  5
195
100
AcDbEntity
  8
ProjItem
  6
ByLayer
 62
  256
370
   -1
100
AcDbLine
 10
122.65
 20
108.5
 11
122.25
 21
108.5
  0
LINE
  5
196
100
AcDbEntity
  8
ProjItem
  6
ByLayer
 62
  256
370
   -1
100
AcDbLine
 10
122.65
 20
108.5
 11
122.65
 21
109.4
  0
LINE
  5
197
100
AcDbEntity
  8
ProjItem
  6
ByLayer
 62
  256
370
   -1
100
AcDbLine
 10
123.75
 20
109.4
 11
123.75
 21
108.5
  0
LINE
  5
198
100
AcDbEntity
  8
ProjItem
  6
ByLayer
 62
  256
370
   -1
100
AcDbLine
 10
124.15
 20
108.5
 11
123.75
 21
108.5
  0
LINE
  5
199
100
AcDbEntity
  8
ProjItem
  6
ByLayer
 62
  256
370
   -1
100
AcDbLine
 10
124.15
 20
108.5
 11
124.15
 21
109.4
  0
LINE
  5
19A
100
AcDbEntity
  8
ProjItem
  6
ByLayer
 62
  256
370
   -1
100
AcDbLine
 10
126.75
 20
109.4
 11
126.75
 21
108.5
  0
LINE
  5
19B
100
AcDbEntity
  8
ProjItem
  6
ByLayer
 62
  256
370
   -1
100
AcDbLine
 10
127.15
 20
108.5
 11
126.75
 21
108.5
  0
LINE
  5
19C
100
AcDbEntity
  8
ProjItem
  6
ByLayer
 62
  256
370
   -1
100
AcDbLine
 10
127.15
 20
108.5
 11
127.15
 21
109.4
  0
LINE
  5
19D
100
AcDbEntity
  8
ProjItem
  6
ByLayer
 62
  256
370
   -1
100
AcDbLine
 10
120.85
 20
112
 11
121.35
 21
112
  0
LINE
  5
19E
100
AcDbEntity
  8
ProjItem
  6
ByLayer
 62
  256
370
   -1
100
AcDbLine
 10
121.35
 20
111.6
 11
121.35
 21
112
  0
LINE
  5
19F
100
AcDbEntity
  8
ProjItem
  6
ByLayer
 62
  256
370
   -1
100
AcDbLine
 10
121.35
 20
112
 11
121.35
 21
111.45
  0
LINE
  5
1A0
100
AcDbEntity
  8
ProjItem
  6
ByLayer
 62
  256
370
   -1
100
AcDbLine
 10
124.6
 20
113.5
 11
123.3
 21
113.5
  0
LINE
  5
1A1
100
AcDbEntity
  8
ProjItem
  6
ByLayer
 62
  256
370
   -1
100
AcDbLine
 10
121.35
 20
109.4
 11
121.35
 21
109.95
  0
LINE
  5
1A2
100
AcDbEntity
  8
ProjItem
  6
ByLayer
 62
  256
370
   -1
100
AcDbLine
 10
121.35
 20
109.4
 11
120.85
 21
109.4
  0
LINE
  5
1A3
100
AcDbEntity
  8
ProjItem
  6
ByLayer
 62
  256
370
   -1
100
AcDbLine
 10
120.85
 20
112
 11
120.85
 21
111.6
  0
LINE
  5
1A4
100
AcDbEntity
  8
ProjItem
  6
ByLayer
 62
  256
370
   -1
100
AcDbLine
 10
121.35
 20
111.6
 11
120.85
 21
111.6
  0
LINE
  5
1A5
100
AcDbEntity
  8
ProjItem
  6
ByLayer
 62
  256
370
   -1
100
AcDbLine
 10
120.85
 20
109.8
 11
121.35
 21
109.8
  0
LINE
  5
1A6
100
AcDbEntity
  8
ProjItem
  6
ByLayer
 62
  256
370
   -1
100
AcDbLine
 10
120.85
 20
109.8
 11
120.85
 21
109.4
  0
LINE
  5
1A7
100
AcDbEntity
  8
ProjItem
  6
ByLayer
 62
  256
370
   -1
100
AcDbLine
 10
121.35
 20
109.95
 11
121.35
 21
111.45
  0
LINE
  5
1A8
100
AcDbEntity
  8
ProjItem
  6
ByLayer
 62
  256
370
   -1
100
AcDbLine
 10
119.7
 20
102.4
 11
129.7
 21
102.4
  0
LINE
  5
1A9
100
AcDbEntity
  8
ProjItem
  6
ByLayer
 62
  256
370
   -1
100
AcDbLine
 10
119.7
 20
112.4
 11
119.7
 21
102.4
  0
LINE
  5
1AA
100
AcDbEntity
  8
ProjItem
  6
ByLayer
 62
  256
370
   -1
100
AcDbLine
 10
129.7
 20
102.4
 11
129.7
 21
112.4
  0
LINE
  5
1AB
100
AcDbEntity
  8
ProjItem
  6
ByLayer
 62
  256
370
   -1
100
AcDbLine
 10
129.7
 20
112.4
 11
124.6
 21
112.4
  0
LINE
  5
1AC
100
AcDbEntity
  8
ProjItem
  6
ByLayer
 62
  256
370
   -1
100
AcDbLine
 10
123.3
 20
112.4
 11
119.7
 21
112.4
  0
CIRCLE
  5
1AD
100
AcDbEntity
  8
ProjItem
  6
ByLayer
 62
  256
370
   -1
100
AcDbCircle
 10
121.2
 20
107.9
 40
0.751
  0
CIRCLE
  5
1AE
100
AcDbEntity
  8
ProjItem
  6
ByLayer
 62
  256
370
   -1
100
AcDbCircle
 10
128.2
 20
107.9
 40
0.751
  0
LINE
  5
1AF
100
AcDbEntity
  8
ProjItem
  6
ByLayer
 62
  256
370
   -1
100
AcDbLine
 10
128.2
 20
102.55
 11
121.2
 21
102.55
  0
LINE
  5
1B0
100
AcDbEntity
  8
ProjItem
  6
ByLayer
 62
  256
370
   -1
100
AcDbLine
 10
121.2
 20
105.601
 11
121.2
 21
102.55
  0
LINE
  5
1B1
100
AcDbEntity
  8
ProjItem
  6
ByLayer
 62
  256
370
   -1
100
AcDbLine
 10
121.7
 20
105.601
 11
121.2
 21
105.601
  0
LINE
  5
1B2
100
AcDbEntity
  8
ProjItem
  6
ByLayer
 62
  256
370
   -1
100
AcDbLine
 10
121.7
 20
105.601
 11
121.7
 21
106.25
  0
LINE
  5
1B3
100
AcDbEntity
  8
ProjItem
  6
ByLayer
 62
  256
370
   -1
100
AcDbLine
 10
127.7
 20
106.25
 11
121.7
 21
106.25
  0
LINE
  5
1B4
100
AcDbEntity
  8
ProjItem
  6
ByLayer
 62
  256
370
   -1
100
AcDbLine
 10
127.7
 20
105.601
 11
127.7
 21
106.25
  0
LINE
  5
1B5
100
AcDbEntity
  8
ProjItem
  6
ByLayer
 62
  256
370
   -1
100
AcDbLine
 10
128.2
 20
105.601
 11
127.7
 21
105.601
  0
LINE
  5
1B6
100
AcDbEntity
  8
ProjItem
  6
ByLayer
 62
  256
370
   -1
100
AcDbLine
 10
128.2
 20
102.55
 11
128.2
 21
105.601
  0
LINE
  5
1B7
100
AcDbEntity
  8
ProjItem
  6
ByLayer
 62
  256
370
   -1
100
AcDbLine
 10
128.2
 20
105.601
 11
128.2
 21
106.25
  0
LINE
  5
1B8
100
AcDbEntity
  8
ProjItem
  6
ByLayer
 62
  256
370
   -1
100
AcDbLine
 10
128.2
 20
106.25
 11
128.2
 21
106.8
  0
LINE
  5
1B9
100
AcDbEntity
  8
ProjItem
  6
ByLayer
 62
  256
370
   -1
100
AcDbLine
 10
121.2
 20
106.25
 11
121.2
 21
106.8
  0
LINE
  5
1BA
100
AcDbEntity
  8
ProjItem
  6
ByLayer
 62
  256
370
   -1
100
AcDbLine
 10
121.2
 20
105.601
 11
121.2
 21
106.25
  0
LINE
  5
1BB
100
AcDbEntity
  8
ProjItem
  6
ByLayer
 62
  256
370
   -1
100
AcDbLine
 10
127.7
 20
106.25
 11
128.2
 21
106.25
  0
LINE
  5
1BC
100
AcDbEntity
  8
ProjItem
  6
ByLayer
 62
  256
370
   -1
100
AcDbLine
 10
127.7
 20
106.8
 11
128.2
 21
106.8
  0
LINE
  5
1BD
100
AcDbEntity
  8
ProjItem
  6
ByLayer
 62
  256
370
   -1
100
AcDbLine
 10
121.7
 20
106.8
 11
127.7
 21
106.8
  0
LINE
  5
1BE
100
AcDbEntity
  8
ProjItem
  6
ByLayer
 62
  256
370
   -1
100
AcDbLine
 10
121.7
 20
106.8
 11
121.2
 21
106.8
  0
LINE
  5
1BF
100
AcDbEntity
  8
ProjItem
  6
ByLayer
 62
  256
370
   -1
100
AcDbLine
 10
121.7
 20
106.25
 11
121.2
 21
106.25
  0
LINE
  5
1C0
100
AcDbEntity
  8
ProjItem
  6
ByLayer
 62
  256
370
   -1
100
AcDbLine
 10
121.7
 20
106.8
 11
121.7
 21
106.25
  0
LINE
  5
1C1
100
AcDbEntity
  8
ProjItem
  6
ByLayer
 62
  256
370
   -1
100
AcDbLine
 10
127.7
 20
106.8
 11
127.7
 21
106.25
  0
LINE
  5
1C2
100
AcDbEntity
  8
ProjItem
  6
ByLayer
 62
  256
370
   -1
100
AcDbLine
 10
122.8
 20
106.8
 11
122.8
 21
107.5
  0
LINE
  5
1C3
100
AcDbEntity
  8
ProjItem
  6
ByLayer
 62
  256
370
   -1
100
AcDbLine
 10
122.6
 20
107.5
 11
122.8
 21
107.5
  0
LINE
  5
1C4
100
AcDbEntity
  8
ProjItem
  6
ByLayer
 62
  256
370
   -1
100
AcDbLine
 10
122.6
 20
106.8
 11
122.6
 21
107.5
  0
LINE
  5
1C5
100
AcDbEntity
  8
ProjItem
  6
ByLayer
 62
  256
370
   -1
100
AcDbLine
 10
126.8
 20
106.8
 11
126.8
 21
107.5
  0
LINE
  5
1C6
100
AcDbEntity
  8
ProjItem
  6
ByLayer
 62
  256
370
   -1
100
AcDbLine
 10
126.6
 20
107.5
 11
126.8
 21
107.5
  0
LINE
  5
1C7
100
AcDbEntity
  8
ProjItem
  6
ByLayer
 62
  256
370
   -1
100
AcDbLine
 10
126.6
 20
106.8
 11
126.6
 21
107.5
  0
LINE
  5
1C8
100
AcDbEntity
  8
ProjItem
  6
ByLayer
 62
  256
370
   -1
100
AcDbLine
 10
125.8
 20
106.8
 11
125.8
 21
107.5
  0
LINE
  5
1C9
100
AcDbEntity
  8
ProjItem
  6
ByLayer
 62
  256
370
   -1
100
AcDbLine
 10
125.8
 20
107.5
 11
125.6
 21
107.5
  0
LINE
  5
1CA
100
AcDbEntity
  8
ProjItem
  6
ByLayer
 62
  256
370
   -1
100
AcDbLine
 10
125.6
 20
107.5
 11
125.6
 21
106.8
  0
LINE
  5
1CB
100
AcDbEntity
  8
ProjItem
  6
ByLayer
 62
  256
370
   -1
100
AcDbLine
 10
124.8
 20
106.8
 11
124.8
 21
107.5
  0
LINE
  5
1CC
100
AcDbEntity
  8
ProjItem
  6
ByLayer
 62
  256
370
   -1
100
AcDbLine
 10
124.8
 20
107.5
 11
124.6
 21
107.5
  0
LINE
  5
1CD
100
AcDbEntity
  8
ProjItem
  6
ByLayer
 62
  256
370
   -1
100
AcDbLine
 10
124.6
 20
107.5
 11
124.6
 21
106.8
  0
LINE
  5
1CE
100
AcDbEntity
  8
ProjItem
  6
ByLayer
 62
  256
370
   -1
100
AcDbLine
 10
123.8
 20
106.8
 11
123.8
 21
107.5
  0
LINE
  5
1CF
100
AcDbEntity
  8
ProjItem
  6
ByLayer
 62
  256
370
   -1
100
AcDbLine
 10
123.8
 20
107.5
 11
123.6
 21
107.5
  0
LINE
  5
1D0
100
AcDbEntity
  8
ProjItem
  6
ByLayer
 62
  256
370
   -1
100
AcDbLine
 10
123.6
 20
107.5
 11
123.6
 21
106.8
  0
LINE
  5
1D1
100
AcDbEntity
  8
ProjItem
  6
ByLayer
 62
  256
370
   -1
100
AcDbLine
 10
129.25
 20
105.1
 11
128.75
 21
105.1
  0
LINE
  5
1D2
100
AcDbEntity
  8
ProjItem
  6
ByLayer
 62
  256
370
   -1
100
AcDbLine
 10
128.75
 20
105.1
 11
128.75
 21
104.9
  0
LINE
  5
1D3
100
AcDbEntity
  8
ProjItem
  6
ByLayer
 62
  256
370
   -1
100
AcDbLine
 10
129.25
 20
104.9
 11
128.75
 21
104.9
  0
LINE
  5
1D4
100
AcDbEntity
  8
ProjItem
  6
ByLayer
 62
  256
370
   -1
100
AcDbLine
 10
129.25
 20
105.1
 11
129.25
 21
104.9
  0
LINE
  5
1D5
100
AcDbEntity
  8
ProjItem
  6
ByLayer
 62
  256
370
   -1
100
AcDbLine
 10
129.25
 20
105.7
 11
128.75
 21
105.7
  0
LINE
  5
1D6
100
AcDbEntity
  8
ProjItem
  6
ByLayer
 62
  256
370
   -1
100
AcDbLine
 10
128.75
 20
105.7
 11
128.75
 21
105.9
  0
LINE
  5
1D7
100
AcDbEntity
  8
ProjItem
  6
ByLayer
 62
  256
370
   -1
100
AcDbLine
 10
129.25
 20
105.9
 11
128.75
 21
105.9
  0
LINE
  5
1D8
100
AcDbEntity
  8
ProjItem
  6
ByLayer
 62
  256
370
   -1
100
AcDbLine
 10
129.25
 20
105.7
 11
129.25
 21
105.9
  0
LINE
  5
1D9
100
AcDbEntity
  8
ProjItem
  6
ByLayer
 62
  256
370
   -1
100
AcDbLine
 10
129.25
 20
105.7
 11
128.75
 21
105.7
  0
LINE
  5
1DA
100
AcDbEntity
  8
ProjItem
  6
ByLayer
 62
  256
370
   -1
100
AcDbLine
 10
128.75
 20
105.7
 11
128.75
 21
105.1
  0
LINE
  5
1DB
100
AcDbEntity
  8
ProjItem
  6
ByLayer
 62
  256
370
   -1
100
AcDbLine
 10
129.25
 20
105.1
 11
128.75
 21
105.1
  0
LINE
  5
1DC
100
AcDbEntity
  8
ProjItem
  6
ByLayer
 62
  256
370
   -1
100
AcDbLine
 10
129.25
 20
105.7
 11
129.25
 21
105.1
  0
LINE
  5
1DD
100
AcDbEntity
  8
ProjItem
  6
ByLayer
 62
  256
370
   -1
100
AcDbLine
 10
119.7
 20
102.4
 11
129.7
 21
102.4
  0
LINE
  5
1DE
100
AcDbEntity
  8
ProjItem
  6
ByLayer
 62
  256
370
   -1
100
AcDbLine
 10
119.7
 20
112.4
 11
119.7
 21
102.4
  0
LINE
  5
1DF
100
AcDbEntity
  8
ProjItem
  6
ByLayer
 62
  256
370
   -1
100
AcDbLine
 10
129.7
 20
102.4
 11
129.7
 21
112.4
  0
LINE
  5
1E0
100
AcDbEntity
  8
ProjItem
  6
ByLayer
 62
  256
370
   -1
100
AcDbLine
 10
129.7
 20
112.4
 11
124.6
 21
112.4
  0
LINE
  5
1E1
100
AcDbEntity
  8
ProjItem
  6
ByLayer
 62
  256
370
   -1
100
AcDbLine
 10
123.3
 20
112.4
 11
119.7
 21
112.4
  0
CIRCLE
  5
1E2
100
AcDbEntity
  8
ProjItem
  6
ByLayer
 62
  256
370
   -1
100
AcDbCircle
 10
121.2
 20
107.9
 40
0.751
  0
CIRCLE
  5
1E3
100
AcDbEntity
  8
ProjItem
  6
ByLayer
 62
  256
370
   -1
100
AcDbCircle
 10
128.2
 20
107.9
 40
0.751
  0
LINE
  5
1E4
100
AcDbEntity
  8
ProjItem
  6
ByLayer
 62
  256
370
   -1
100
AcDbLine
 10
129.25
 20
105.1
 11
128.75
 21
105.1
  0
LINE
  5
1E5
100
AcDbEntity
  8
ProjItem
  6
ByLayer
 62
  256
370
   -1
100
AcDbLine
 10
128.75
 20
105.1
 11
128.75
 21
104.9
  0
LINE
  5
1E6
100
AcDbEntity
  8
ProjItem
  6
ByLayer
 62
  256
370
   -1
100
AcDbLine
 10
129.25
 20
104.9
 11
128.75
 21
104.9
  0
LINE
  5
1E7
100
AcDbEntity
  8
ProjItem
  6
ByLayer
 62
  256
370
   -1
100
AcDbLine
 10
129.25
 20
105.1
 11
129.25
 21
104.9
  0
LINE
  5
1E8
100
AcDbEntity
  8
ProjItem
  6
ByLayer
 62
  256
370
   -1
100
AcDbLine
 10
129.25
 20
105.7
 11
128.75
 21
105.7
  0
LINE
  5
1E9
100
AcDbEntity
  8
ProjItem
  6
ByLayer
 62
  256
370
   -1
100
AcDbLine
 10
128.75
 20
105.7
 11
128.75
 21
105.9
  0
LINE
  5
1EA
100
AcDbEntity
  8
ProjItem
  6
ByLayer
 62
  256
370
   -1
100
AcDbLine
 10
129.25
 20
105.9
 11
128.75
 21
105.9
  0
LINE
  5
1EB
100
AcDbEntity
  8
ProjItem
  6
ByLayer
 62
  256
370
   -1
100
AcDbLine
 10
129.25
 20
105.7
 11
129.25
 21
105.9
  0
LINE
  5
1EC
100
AcDbEntity
  8
ProjItem
  6
ByLayer
 62
  256
370
   -1
100
AcDbLine
 10
129.25
 20
105.7
 11
128.75
 21
105.7
  0
LINE
  5
1ED
100
AcDbEntity
  8
ProjItem
  6
ByLayer
 62
  256
370
   -1
100
AcDbLine
 10
128.75
 20
105.7
 11
128.75
 21
105.1
  0
LINE
  5
1EE
100
AcDbEntity
  8
ProjItem
  6
ByLayer
 62
  256
370
   -1
100
AcDbLine
 10
129.25
 20
105.1
 11
128.75
 21
105.1
  0
LINE
  5
1EF
100
AcDbEntity
  8
ProjItem
  6
ByLayer
 62
  256
370
   -1
100
AcDbLine
 10
129.25
 20
105.7
 11
129.25
 21
105.1
  0
LINE
  5
1F0
100
AcDbEntity
  8
ProjItem
  6
ByLayer
 62
  256
370
   -1
100
AcDbLine
 10
128.2
 20
102.55
 11
121.2
 21
102.55
  0
LINE
  5
1F1
100
AcDbEntity
  8
ProjItem
  6
ByLayer
 62
  256
370
   -1
100
AcDbLine
 10
121.2
 20
105.601
 11
121.2
 21
102.55
  0
LINE
  5
1F2
100
AcDbEntity
  8
ProjItem
  6
ByLayer
 62
  256
370
   -1
100
AcDbLine
 10
121.7
 20
105.601
 11
121.2
 21
105.601
  0
LINE
  5
1F3
100
AcDbEntity
  8
ProjItem
  6
ByLayer
 62
  256
370
   -1
100
AcDbLine
 10
121.7
 20
105.601
 11
121.7
 21
106.25
  0
LINE
  5
1F4
100
AcDbEntity
  8
ProjItem
  6
ByLayer
 62
  256
370
   -1
100
AcDbLine
 10
127.7
 20
106.25
 11
121.7
 21
106.25
  0
LINE
  5
1F5
100
AcDbEntity
  8
ProjItem
  6
ByLayer
 62
  256
370
   -1
100
AcDbLine
 10
127.7
 20
105.601
 11
127.7
 21
106.25
  0
LINE
  5
1F6
100
AcDbEntity
  8
ProjItem
  6
ByLayer
 62
  256
370
   -1
100
AcDbLine
 10
128.2
 20
105.601
 11
127.7
 21
105.601
  0
LINE
  5
1F7
100
AcDbEntity
  8
ProjItem
  6
ByLayer
 62
  256
370
   -1
100
AcDbLine
 10
128.2
 20
102.55
 11
128.2
 21
105.601
  0
LINE
  5
1F8
100
AcDbEntity
  8
ProjItem
  6
ByLayer
 62
  256
370
   -1
100
AcDbLine
 10
128.2
 20
105.601
 11
128.2
 21
106.25
  0
LINE
  5
1F9
100
AcDbEntity
  8
ProjItem
  6
ByLayer
 62
  256
370
   -1
100
AcDbLine
 10
128.2
 20
106.25
 11
128.2
 21
106.8
  0
LINE
  5
1FA
100
AcDbEntity
  8
ProjItem
  6
ByLayer
 62
  256
370
   -1
100
AcDbLine
 10
121.2
 20
106.25
 11
121.2
 21
106.8
  0
LINE
  5
1FB
100
AcDbEntity
  8
ProjItem
  6
ByLayer
 62
  256
370
   -1
100
AcDbLine
 10
121.2
 20
105.601
 11
121.2
 21
106.25
  0
LINE
  5
1FC
100
AcDbEntity
  8
ProjItem
  6
ByLayer
 62
  256
370
   -1
100
AcDbLine
 10
127.7
 20
106.25
 11
128.2
 21
106.25
  0
LINE
  5
1FD
100
AcDbEntity
  8
ProjItem
  6
ByLayer
 62
  256
370
   -1
100
AcDbLine
 10
127.7
 20
106.8
 11
128.2
 21
106.8
  0
LINE
  5
1FE
100
AcDbEntity
  8
ProjItem
  6
ByLayer
 62
  256
370
   -1
100
AcDbLine
 10
121.7
 20
106.8
 11
127.7
 21
106.8
  0
LINE
  5
1FF
100
AcDbEntity
  8
ProjItem
  6
ByLayer
 62
  256
370
   -1
100
AcDbLine
 10
121.7
 20
106.8
 11
121.2
 21
106.8
  0
LINE
  5
200
100
AcDbEntity
  8
ProjItem
  6
ByLayer
 62
  256
370
   -1
100
AcDbLine
 10
121.7
 20
106.25
 11
121.2
 21
106.25
  0
LINE
  5
201
100
AcDbEntity
  8
ProjItem
  6
ByLayer
 62
  256
370
   -1
100
AcDbLine
 10
121.7
 20
106.8
 11
121.7
 21
106.25
  0
LINE
  5
202
100
AcDbEntity
  8
ProjItem
  6
ByLayer
 62
  256
370
   -1
100
AcDbLine
 10
127.7
 20
106.8
 11
127.7
 21
106.25
  0
LINE
  5
203
100
AcDbEntity
  8
ProjItem
  6
ByLayer
 62
  256
370
   -1
100
AcDbLine
 10
122.8
 20
106.8
 11
122.8
 21
107.5
  0
LINE
  5
204
100
AcDbEntity
  8
ProjItem
  6
ByLayer
 62
  256
370
   -1
100
AcDbLine
 10
122.6
 20
107.5
 11
122.8
 21
107.5
  0
LINE
  5
205
100
AcDbEntity
  8
ProjItem
  6
ByLayer
 62
  256
370
   -1
100
AcDbLine
 10
122.6
 20
106.8
 11
122.6
 21
107.5
  0
LINE
  5
206
100
AcDbEntity
  8
ProjItem
  6
ByLayer
 62
  256
370
   -1
100
AcDbLine
 10
126.8
 20
106.8
 11
126.8
 21
107.5
  0
LINE
  5
207
100
AcDbEntity
  8
ProjItem
  6
ByLayer
 62
  256
370
   -1
100
AcDbLine
 10
126.6
 20
107.5
 11
126.8
 21
107.5
  0
LINE
  5
208
100
AcDbEntity
  8
ProjItem
  6
ByLayer
 62
  256
370
   -1
100
AcDbLine
 10
126.6
 20
106.8
 11
126.6
 21
107.5
  0
LINE
  5
209
100
AcDbEntity
  8
ProjItem
  6
ByLayer
 62
  256
370
   -1
100
AcDbLine
 10
125.8
 20
106.8
 11
125.8
 21
107.5
  0
LINE
  5
20A
100
AcDbEntity
  8
ProjItem
  6
ByLayer
 62
  256
370
   -1
100
AcDbLine
 10
125.8
 20
107.5
 11
125.6
 21
107.5
  0
LINE
  5
20B
100
AcDbEntity
  8
ProjItem
  6
ByLayer
 62
  256
370
   -1
100
AcDbLine
 10
125.6
 20
107.5
 11
125.6
 21
106.8
  0
LINE
  5
20C
100
AcDbEntity
  8
ProjItem
  6
ByLayer
 62
  256
370
   -1
100
AcDbLine
 10
124.8
 20
106.8
 11
124.8
 21
107.5
  0
LINE
  5
20D
100
AcDbEntity
  8
ProjItem
  6
ByLayer
 62
  256
370
   -1
100
AcDbLine
 10
124.8
 20
107.5
 11
124.6
 21
107.5
  0
LINE
  5
20E
100
AcDbEntity
  8
ProjItem
  6
ByLayer
 62
  256
370
   -1
100
AcDbLine
 10
124.6
 20
107.5
 11
124.6
 21
106.8
  0
LINE
  5
20F
100
AcDbEntity
  8
ProjItem
  6
ByLayer
 62
  256
370
   -1
100
AcDbLine
 10
123.8
 20
106.8
 11
123.8
 21
107.5
  0
LINE
  5
210
100
AcDbEntity
  8
ProjItem
  6
ByLayer
 62
  256
370
   -1
100
AcDbLine
 10
123.8
 20
107.5
 11
123.6
 21
107.5
  0
LINE
  5
211
100
AcDbEntity
  8
ProjItem
  6
ByLayer
 62
  256
370
   -1
100
AcDbLine
 10
123.6
 20
107.5
 11
123.6
 21
106.8
  0
LINE
  5
212
100
AcDbEntity
  8
ProjItem
  6
ByLayer
 62
  256
370
   -1
100
AcDbLine
 10
127.75
 20
111.45
 11
127.75
 21
112
  0
LINE
  5
213
100
AcDbEntity
  8
ProjItem
  6
ByLayer
 62
  256
370
   -1
100
AcDbLine
 10
127.75
 20
109.95
 11
127.75
 21
111.45
  0
LINE
  5
214
100
AcDbEntity
  8
ProjItem
  6
ByLayer
 62
  256
370
   -1
100
AcDbLine
 10
127.75
 20
109.4
 11
127.75
 21
109.95
  0
LINE
  5
215
100
AcDbEntity
  8
ProjItem
  6
ByLayer
 62
  256
370
   -1
100
AcDbLine
 10
121.65
 20
111.45
 11
121.65
 21
112
  0
LINE
  5
216
100
AcDbEntity
  8
ProjItem
  6
ByLayer
 62
  256
370
   -1
100
AcDbLine
 10
121.65
 20
109.4
 11
121.65
 21
109.95
  0
LINE
  5
217
100
AcDbEntity
  8
ProjItem
  6
ByLayer
 62
  256
370
   -1
100
AcDbLine
 10
121.65
 20
109.95
 11
121.65
 21
111.45
  0
SPLINE
  5
218
100
AcDbEntity
  8
ProjItem
  6
ByLayer
 62
  256
370
   -1
100
AcDbSpline
210
0
220
0
230
0
 70
    8
 71
    3
 72
   11
 73
    7
 74
    0
 42
1e-07
 43
1e-07
 40
1.5708
 40
1.5708
 40
1.5708
 40
1.5708
 40
2.35619
 40
2.35619
 40
2.35619
 40
3.14159
 40
3.14159
 40
3.14159
 40
3.14159
 10
127.75
 20
111.45
 30
0
 10
127.829
 20
111.45
 30
0
 10
127.906
 20
111.45
 30
0
 10
127.962
 20
111.45
 30
0
 10
128.019
 20
111.45
 30
0
 10
128.048
 20
111.45
 30
0
 10
128.05
 20
111.45
 30
0
  0
SPLINE
  5
219
100
AcDbEntity
  8
ProjItem
  6
ByLayer
 62
  256
370
   -1
100
AcDbSpline
210
0
220
0
230
0
 70
    8
 71
    3
 72
   11
 73
    7
 74
    0
 42
1e-07
 43
1e-07
 40
1.5708
 40
1.5708
 40
1.5708
 40
1.5708
 40
2.35619
 40
2.35619
 40
2.35619
 40
3.14159
 40
3.14159
 40
3.14159
 40
3.14159
 10
127.75
 20
109.95
 30
0
 10
127.829
 20
109.95
 30
0
 10
127.906
 20
109.95
 30
0
 10
127.962
 20
109.95
 30
0
 10
128.019
 20
109.95
 30
0
 10
128.048
 20
109.95
 30
0
 10
128.05
 20
109.95
 30
0
  0
LINE
  5
21A
100
AcDbEntity
  8
ProjItem
  6
ByLayer
 62
  256
370
   -1
100
AcDbLine
 10
127.32
 20
112
 11
127.32
 21
111.45
  0
LINE
  5
21B
100
AcDbEntity
  8
ProjItem
  6
ByLayer
 62
  256
370
   -1
100
AcDbLine
 10
127.75
 20
111.45
 11
127.32
 21
111.45
  0
LINE
  5
21C
100
AcDbEntity
  8
ProjItem
  6
ByLayer
 62
  256
370
   -1
100
AcDbLine
 10
127.75
 20
109.95
 11
127.32
 21
109.95
  0
LINE
  5
21D
100
AcDbEntity
  8
ProjItem
  6
ByLayer
 62
  256
370
   -1
100
AcDbLine
 10
127.32
 20
111.45
 11
127.32
 21
109.95
  0
LINE
  5
21E
100
AcDbEntity
  8
ProjItem
  6
ByLayer
 62
  256
370
   -1
100
AcDbLine
 10
127.32
 20
109.4
 11
127.32
 21
109.95
  0
SPLINE
  5
21F
100
AcDbEntity
  8
ProjItem
  6
ByLayer
 62
  256
370
   -1
100
AcDbSpline
210
0
220
0
230
0
 70
    8
 71
    3
 72
   11
 73
    7
 74
    0
 42
1e-07
 43
1e-07
 40
0
 40
0
 40
0
 40
0
 40
0.785398
 40
0.785398
 40
0.785398
 40
1.5708
 40
1.5708
 40
1.5708
 40
1.5708
 10
121.35
 20
111.45
 30
0
 10
121.352
 20
111.45
 30
0
 10
121.381
 20
111.45
 30
0
 10
121.438
 20
111.45
 30
0
 10
121.494
 20
111.45
 30
0
 10
121.571
 20
111.45
 30
0
 10
121.65
 20
111.45
 30
0
  0
LINE
  5
220
100
AcDbEntity
  8
ProjItem
  6
ByLayer
 62
  256
370
   -1
100
AcDbLine
 10
121.65
 20
111.45
 11
122.08
 21
111.45
  0
LINE
  5
221
100
AcDbEntity
  8
ProjItem
  6
ByLayer
 62
  256
370
   -1
100
AcDbLine
 10
122.08
 20
112
 11
122.08
 21
111.45
  0
LINE
  5
222
100
AcDbEntity
  8
ProjItem
  6
ByLayer
 62
  256
370
   -1
100
AcDbLine
 10
122.08
 20
109.4
 11
122.08
 21
109.95
  0
LINE
  5
223
100
AcDbEntity
  8
ProjItem
  6
ByLayer
 62
  256
370
   -1
100
AcDbLine
 10
122.08
 20
111.45
 11
122.08
 21
109.95
  0
LINE
  5
224
100
AcDbEntity
  8
ProjItem
  6
ByLayer
 62
  256
370
   -1
100
AcDbLine
 10
121.65
 20
109.95
 11
122.08
 21
109.95
  0
SPLINE
  5
225
100
AcDbEntity
  8
ProjItem
  6
ByLayer
 62
  256
370
   -1
100
AcDbSpline
210
0
220
0
230
0
 70
    8
 71
    3
 72
   11
 73
    7
 74
    0
 42
1e-07
 43
1e-07
 40
0
 40
0
 40
0
 40
0
 40
0.785398
 40
0.785398
 40
0.785398
 40
1.5708
 40
1.5708
 40
1.5708
 40
1.5708
 10
121.35
 20
109.95
 30
0
 10
121.352
 20
109.95
 30
0
 10
121.381
 20
109.95
 30
0
 10
121.438
 20
109.95
 30
0
 10
121.494
 20
109.95
 30
0
 10
121.571
 20
109.95
 30
0
 10
121.65
 20
109.95
 30
0
  0
LINE
  5
226
100
AcDbEntity
  8
ProjItem001
  6
ByLayer
 62
  256
370
   -1
100
AcDbLine
 10
135.3
 20
104
 11
135.3
 21
104
  0
SPLINE
  5
227
100
AcDbEntity
  8
ProjItem001
  6
ByLayer
 62
  256
370
   -1
100
AcDbSpline
210
0
220
0
230
0
 70
    8
 71
    1
 72
    4
 73
    2
 74
    0
 42
1e-07
 43
1e-07
 40
0
 40
0
 40
1.5708
 40
1.5708
 10
135.3
 20
104
 30
0
 10
135.3
 20
103.996
 30
0
  0
SPLINE
  5
228
100
AcDbEntity
  8
ProjItem001
  6
ByLayer
 62
  256
370
   -1
100
AcDbSpline
210
0
220
0
230
0
 70
    8
 71
    1
 72
    4
 73
    2
 74
    0
 42
1e-07
 43
1e-07
 40
0
 40
0
 40
1.5708
 40
1.5708
 10
135.3
 20
104
 30
0
 10
135.3
 20
103.996
 30
0
  0
LINE
  5
229
100
AcDbEntity
  8
ProjItem001
  6
ByLayer
 62
  256
370
   -1
100
AcDbLine
 10
135.3
 20
103.996
 11
135.3
 21
102.604
  0
LINE
  5
22A
100
AcDbEntity
  8
ProjItem001
  6
ByLayer
 62
  256
370
   -1
100
AcDbLine
 10
135.3
 20
103.996
 11
135.3
 21
102.604
  0
SPLINE
  5
22B
100
AcDbEntity
  8
ProjItem001
  6
ByLayer
 62
  256
370
   -1
100
AcDbSpline
210
0
220
0
230
0
 70
    8
 71
    1
 72
    4
 73
    2
 74
    0
 42
1e-07
 43
1e-07
 40
0
 40
0
 40
1.5708
 40
1.5708
 10
135.3
 20
102.604
 30
0
 10
135.3
 20
102.6
 30
0
  0
LINE
  5
22C
100
AcDbEntity
  8
ProjItem001
  6
ByLayer
 62
  256
370
   -1
100
AcDbLine
 10
135.3
 20
102.6
 11
135.3
 21
102.6
  0
SPLINE
  5
22D
100
AcDbEntity
  8
ProjItem001
  6
ByLayer
 62
  256
370
   -1
100
AcDbSpline
210
0
220
0
230
0
 70
    8
 71
    1
 72
    4
 73
    2
 74
    0
 42
1e-07
 43
1e-07
 40
0
 40
0
 40
1.5708
 40
1.5708
 10
135.3
 20
102.604
 30
0
 10
135.3
 20
102.6
 30
0
  0
LINE
  5
22E
100
AcDbEntity
  8
ProjItem001
  6
ByLayer
 62
  256
370
   -1
100
AcDbLine
 10
135.3
 20
107.7
 11
135.3
 21
107.7
  0
LINE
  5
22F
100
AcDbEntity
  8
ProjItem001
  6
ByLayer
 62
  256
370
   -1
100
AcDbLine
 10
135.3
 20
107.7
 11
135.3
 21
106.8
  0
LINE
  5
230
100
AcDbEntity
  8
ProjItem001
  6
ByLayer
 62
  256
370
   -1
100
AcDbLine
 10
135.3
 20
107.7
 11
135.3
 21
106.8
  0
LINE
  5
231
100
AcDbEntity
  8
ProjItem001
  6
ByLayer
 62
  256
370
   -1
100
AcDbLine
 10
135.3
 20
110
 11
135.3
 21
110
  0
LINE
  5
232
100
AcDbEntity
  8
ProjItem001
  6
ByLayer
 62
  256
370
   -1
100
AcDbLine
 10
135.3
 20
110
 11
135.3
 21
109.2
  0
LINE
  5
233
100
AcDbEntity
  8
ProjItem001
  6
ByLayer
 62
  256
370
   -1
100
AcDbLine
 10
135.3
 20
109.2
 11
135.3
 21
109.2
  0
LINE
  5
234
100
AcDbEntity
  8
ProjItem001
  6
ByLayer
 62
  256
370
   -1
100
AcDbLine
 10
135.3
 20
110
 11
135.3
 21
109.2
  0
LINE
  5
235
100
AcDbEntity
  8
ProjItem001
  6
ByLayer
 62
  256
370
   -1
100
AcDbLine
 10
135.3
 20
112.2
 11
135.3
 21
112.2
  0
LINE
  5
236
100
AcDbEntity
  8
ProjItem001
  6
ByLayer
 62
  256
370
   -1
100
AcDbLine
 10
135.3
 20
112.2
 11
135.3
 21
111.4
  0
LINE
  5
237
100
AcDbEntity
  8
ProjItem001
  6
ByLayer
 62
  256
370
   -1
100
AcDbLine
 10
135.3
 20
111.4
 11
135.3
 21
111.4
  0
LINE
  5
238
100
AcDbEntity
  8
ProjItem001
  6
ByLayer
 62
  256
370
   -1
100
AcDbLine
 10
135.3
 20
112.2
 11
135.3
 21
111.4
  0
LINE
  5
239
100
AcDbEntity
  8
ProjItem001
  6
ByLayer
 62
  256
370
   -1
100
AcDbLine
 10
135.3
 20
109.2
 11
135.3
 21
108.2
  0
LINE
  5
23A
100
AcDbEntity
  8
ProjItem001
  6
ByLayer
 62
  256
370
   -1
100
AcDbLine
 10
135.3
 20
108.2
 11
135.3
 21
108.2
  0
LINE
  5
23B
100
AcDbEntity
  8
ProjItem001
  6
ByLayer
 62
  256
370
   -1
100
AcDbLine
 10
135.3
 20
109.2
 11
135.3
 21
108.2
  0
LINE
  5
23C
100
AcDbEntity
  8
ProjItem001
  6
ByLayer
 62
  256
370
   -1
100
AcDbLine
 10
135.3
 20
104
 11
135.3
 21
104
  0
SPLINE
  5
23D
100
AcDbEntity
  8
ProjItem001
  6
ByLayer
 62
  256
370
   -1
100
AcDbSpline
210
0
220
0
230
0
 70
    8
 71
    1
 72
    4
 73
    2
 74
    0
 42
1e-07
 43
1e-07
 40
0
 40
0
 40
1.5708
 40
1.5708
 10
135.3
 20
104
 30
0
 10
135.3
 20
103.996
 30
0
  0
SPLINE
  5
23E
100
AcDbEntity
  8
ProjItem001
  6
ByLayer
 62
  256
370
   -1
100
AcDbSpline
210
0
220
0
230
0
 70
    8
 71
    1
 72
    4
 73
    2
 74
    0
 42
1e-07
 43
1e-07
 40
0
 40
0
 40
1.5708
 40
1.5708
 10
135.3
 20
104
 30
0
 10
135.3
 20
103.996
 30
0
  0
LINE
  5
23F
100
AcDbEntity
  8
ProjItem001
  6
ByLayer
 62
  256
370
   -1
100
AcDbLine
 10
135.3
 20
103.996
 11
135.3
 21
102.604
  0
LINE
  5
240
100
AcDbEntity
  8
ProjItem001
  6
ByLayer
 62
  256
370
   -1
100
AcDbLine
 10
135.3
 20
103.996
 11
135.3
 21
102.604
  0
SPLINE
  5
241
100
AcDbEntity
  8
ProjItem001
  6
ByLayer
 62
  256
370
   -1
100
AcDbSpline
210
0
220
0
230
0
 70
    8
 71
    1
 72
    4
 73
    2
 74
    0
 42
1e-07
 43
1e-07
 40
0
 40
0
 40
1.5708
 40
1.5708
 10
135.3
 20
102.604
 30
0
 10
135.3
 20
102.6
 30
0
  0
LINE
  5
242
100
AcDbEntity
  8
ProjItem001
  6
ByLayer
 62
  256
370
   -1
100
AcDbLine
 10
135.3
 20
102.6
 11
135.3
 21
102.6
  0
SPLINE
  5
243
100
AcDbEntity
  8
ProjItem001
  6
ByLayer
 62
  256
370
   -1
100
AcDbSpline
210
0
220
0
230
0
 70
    8
 71
    1
 72
    4
 73
    2
 74
    0
 42
1e-07
 43
1e-07
 40
0
 40
0
 40
1.5708
 40
1.5708
 10
135.3
 20
102.604
 30
0
 10
135.3
 20
102.6
 30
0
  0
LINE
  5
244
100
AcDbEntity
  8
ProjItem001
  6
ByLayer
 62
  256
370
   -1
100
AcDbLine
 10
135.3
 20
107.7
 11
135.3
 21
107.7
  0
LINE
  5
245
100
AcDbEntity
  8
ProjItem001
  6
ByLayer
 62
  256
370
   -1
100
AcDbLine
 10
135.3
 20
107.7
 11
135.3
 21
106.8
  0
LINE
  5
246
100
AcDbEntity
  8
ProjItem001
  6
ByLayer
 62
  256
370
   -1
100
AcDbLine
 10
135.3
 20
107.7
 11
135.3
 21
106.8
  0
LINE
  5
247
100
AcDbEntity
  8
ProjItem001
  6
ByLayer
 62
  256
370
   -1
100
AcDbLine
 10
135.3
 20
110
 11
135.3
 21
110
  0
LINE
  5
248
100
AcDbEntity
  8
ProjItem001
  6
ByLayer
 62
  256
370
   -1
100
AcDbLine
 10
135.3
 20
110
 11
135.3
 21
109.2
  0
LINE
  5
249
100
AcDbEntity
  8
ProjItem001
  6
ByLayer
 62
  256
370
   -1
100
AcDbLine
 10
135.3
 20
109.2
 11
135.3
 21
109.2
  0
LINE
  5
24A
100
AcDbEntity
  8
ProjItem001
  6
ByLayer
 62
  256
370
   -1
100
AcDbLine
 10
135.3
 20
110
 11
135.3
 21
109.2
  0
LINE
  5
24B
100
AcDbEntity
  8
ProjItem001
  6
ByLayer
 62
  256
370
   -1
100
AcDbLine
 10
135.3
 20
112.2
 11
135.3
 21
112.2
  0
LINE
  5
24C
100
AcDbEntity
  8
ProjItem001
  6
ByLayer
 62
  256
370
   -1
100
AcDbLine
 10
135.3
 20
112.2
 11
135.3
 21
111.4
  0
LINE
  5
24D
100
AcDbEntity
  8
ProjItem001
  6
ByLayer
 62
  256
370
   -1
100
AcDbLine
 10
135.3
 20
111.4
 11
135.3
 21
111.4
  0
LINE
  5
24E
100
AcDbEntity
  8
ProjItem001
  6
ByLayer
 62
  256
370
   -1
100
AcDbLine
 10
135.3
 20
112.2
 11
135.3
 21
111.4
  0
LINE
  5
24F
100
AcDbEntity
  8
ProjItem001
  6
ByLayer
 62
  256
370
   -1
100
AcDbLine
 10
135.3
 20
109.2
 11
135.3
 21
108.2
  0
LINE
  5
250
100
AcDbEntity
  8
ProjItem001
  6
ByLayer
 62
  256
370
   -1
100
AcDbLine
 10
135.3
 20
108.2
 11
135.3
 21
108.2
  0
LINE
  5
251
100
AcDbEntity
  8
ProjItem001
  6
ByLayer
 62
  256
370
   -1
100
AcDbLine
 10
135.3
 20
109.2
 11
135.3
 21
108.2
  0
LINE
  5
252
100
AcDbEntity
  8
ProjItem001
  6
ByLayer
 62
  256
370
   -1
100
AcDbLine
 10
135.5
 20
112
 11
135.95
 21
112
  0
LINE
  5
253
100
AcDbEntity
  8
ProjItem001
  6
ByLayer
 62
  256
370
   -1
100
AcDbLine
 10
135.95
 20
112
 11
136.4
 21
112
  0
SPLINE
  5
254
100
AcDbEntity
  8
ProjItem001
  6
ByLayer
 62
  256
370
   -1
100
AcDbSpline
210
0
220
0
230
0
 70
    8
 71
    3
 72
   11
 73
    7
 74
    0
 42
1e-07
 43
1e-07
 40
3.14159
 40
3.14159
 40
3.14159
 40
3.14159
 40
3.92699
 40
3.92699
 40
3.92699
 40
4.71239
 40
4.71239
 40
4.71239
 40
4.71239
 10
136.7
 20
112
 30
0
 10
136.698
 20
112
 30
0
 10
136.669
 20
112
 30
0
 10
136.612
 20
112
 30
0
 10
136.556
 20
112
 30
0
 10
136.479
 20
112
 30
0
 10
136.4
 20
112
 30
0
  0
LINE
  5
255
100
AcDbEntity
  8
ProjItem001
  6
ByLayer
 62
  256
370
   -1
100
AcDbLine
 10
136.5
 20
112
 11
136.5
 21
113.5
  0
LINE
  5
256
100
AcDbEntity
  8
ProjItem001
  6
ByLayer
 62
  256
370
   -1
100
AcDbLine
 10
136.1
 20
112
 11
136.1
 21
112.11
  0
LINE
  5
257
100
AcDbEntity
  8
ProjItem001
  6
ByLayer
 62
  256
370
   -1
100
AcDbLine
 10
135.4
 20
112.11
 11
136.1
 21
112.11
  0
LINE
  5
258
100
AcDbEntity
  8
ProjItem001
  6
ByLayer
 62
  256
370
   -1
100
AcDbLine
 10
135.4
 20
113.5
 11
135.4
 21
112.11
  0
LINE
  5
259
100
AcDbEntity
  8
ProjItem001
  6
ByLayer
 62
  256
370
   -1
100
AcDbLine
 10
135.4
 20
113.5
 11
136.5
 21
113.5
  0
LINE
  5
25A
100
AcDbEntity
  8
ProjItem001
  6
ByLayer
 62
  256
370
   -1
100
AcDbLine
 10
136.4
 20
109.4
 11
135.95
 21
109.4
  0
SPLINE
  5
25B
100
AcDbEntity
  8
ProjItem001
  6
ByLayer
 62
  256
370
   -1
100
AcDbSpline
210
0
220
0
230
0
 70
    8
 71
    3
 72
   11
 73
    7
 74
    0
 42
1e-07
 43
1e-07
 40
3.14159
 40
3.14159
 40
3.14159
 40
3.14159
 40
3.92699
 40
3.92699
 40
3.92699
 40
4.71239
 40
4.71239
 40
4.71239
 40
4.71239
 10
136.7
 20
109.4
 30
0
 10
136.698
 20
109.4
 30
0
 10
136.669
 20
109.4
 30
0
 10
136.612
 20
109.4
 30
0
 10
136.556
 20
109.4
 30
0
 10
136.479
 20
109.4
 30
0
 10
136.4
 20
109.4
 30
0
  0
LINE
  5
25C
100
AcDbEntity
  8
ProjItem001
  6
ByLayer
 62
  256
370
   -1
100
AcDbLine
 10
135.95
 20
109.4
 11
135.5
 21
109.4
  0
LINE
  5
25D
100
AcDbEntity
  8
ProjItem001
  6
ByLayer
 62
  256
370
   -1
100
AcDbLine
 10
135.45
 20
109.4
 11
135.45
 21
108.5
  0
LINE
  5
25E
100
AcDbEntity
  8
ProjItem001
  6
ByLayer
 62
  256
370
   -1
100
AcDbLine
 10
135.3
 20
108.5
 11
135.3
 21
108.5
  0
LINE
  5
25F
100
AcDbEntity
  8
ProjItem001
  6
ByLayer
 62
  256
370
   -1
100
AcDbLine
 10
135.3
 20
108.5
 11
135.45
 21
108.5
  0
LINE
  5
260
100
AcDbEntity
  8
ProjItem001
  6
ByLayer
 62
  256
370
   -1
100
AcDbLine
 10
135.5
 20
112
 11
135.3
 21
112
  0
LINE
  5
261
100
AcDbEntity
  8
ProjItem001
  6
ByLayer
 62
  256
370
   -1
100
AcDbLine
 10
135.3
 20
112
 11
135.3
 21
112
  0
LINE
  5
262
100
AcDbEntity
  8
ProjItem001
  6
ByLayer
 62
  256
370
   -1
100
AcDbLine
 10
136.7
 20
111.45
 11
136.7
 21
112
  0
LINE
  5
263
100
AcDbEntity
  8
ProjItem001
  6
ByLayer
 62
  256
370
   -1
100
AcDbLine
 10
136.7
 20
109.4
 11
136.7
 21
109.95
  0
LINE
  5
264
100
AcDbEntity
  8
ProjItem001
  6
ByLayer
 62
  256
370
   -1
100
AcDbLine
 10
135.5
 20
109.4
 11
135.3
 21
109.4
  0
LINE
  5
265
100
AcDbEntity
  8
ProjItem001
  6
ByLayer
 62
  256
370
   -1
100
AcDbLine
 10
135.3
 20
109.4
 11
135.3
 21
109.4
  0
LINE
  5
266
100
AcDbEntity
  8
ProjItem001
  6
ByLayer
 62
  256
370
   -1
100
AcDbLine
 10
135.5
 20
112
 11
135.5
 21
111.6
  0
LINE
  5
267
100
AcDbEntity
  8
ProjItem001
  6
ByLayer
 62
  256
370
   -1
100
AcDbLine
 10
135.3
 20
111.6
 11
135.3
 21
111.6
  0
LINE
  5
268
100
AcDbEntity
  8
ProjItem001
  6
ByLayer
 62
  256
370
   -1
100
AcDbLine
 10
135.3
 20
111.6
 11
135.5
 21
111.6
  0
LINE
  5
269
100
AcDbEntity
  8
ProjItem001
  6
ByLayer
 62
  256
370
   -1
100
AcDbLine
 10
135.5
 20
109.8
 11
135.3
 21
109.8
  0
LINE
  5
26A
100
AcDbEntity
  8
ProjItem001
  6
ByLayer
 62
  256
370
   -1
100
AcDbLine
 10
135.3
 20
109.8
 11
135.3
 21
109.8
  0
LINE
  5
26B
100
AcDbEntity
  8
ProjItem001
  6
ByLayer
 62
  256
370
   -1
100
AcDbLine
 10
135.5
 20
109.8
 11
135.5
 21
109.4
  0
LINE
  5
26C
100
AcDbEntity
  8
ProjItem001
  6
ByLayer
 62
  256
370
   -1
100
AcDbLine
 10
136.7
 20
109.95
 11
136.7
 21
111.45
  0
LINE
  5
26D
100
AcDbEntity
  8
ProjItem001
  6
ByLayer
 62
  256
370
   -1
100
AcDbLine
 10
134.7
 20
102.4
 11
135.3
 21
102.4
  0
LINE
  5
26E
100
AcDbEntity
  8
ProjItem001
  6
ByLayer
 62
  256
370
   -1
100
AcDbLine
 10
134.7
 20
112.4
 11
135.3
 21
112.4
  0
LINE
  5
26F
100
AcDbEntity
  8
ProjItem001
  6
ByLayer
 62
  256
370
   -1
100
AcDbLine
 10
135.3
 20
112.4
 11
135.3
 21
102.4
  0
LINE
  5
270
100
AcDbEntity
  8
ProjItem001
  6
ByLayer
 62
  256
370
   -1
100
AcDbLine
 10
134.7
 20
112.4
 11
134.7
 21
102.4
  0
LINE
  5
271
100
AcDbEntity
  8
ProjItem001
  6
ByLayer
 62
  256
370
   -1
100
AcDbLine
 10
136.555
 20
102.55
 11
138.195
 21
102.55
  0
LINE
  5
272
100
AcDbEntity
  8
ProjItem001
  6
ByLayer
 62
  256
370
   -1
100
AcDbLine
 10
138.195
 20
105.601
 11
138.195
 21
102.55
  0
LINE
  5
273
100
AcDbEntity
  8
ProjItem001
  6
ByLayer
 62
  256
370
   -1
100
AcDbLine
 10
138.195
 20
105.601
 11
138.195
 21
106.25
  0
LINE
  5
274
100
AcDbEntity
  8
ProjItem001
  6
ByLayer
 62
  256
370
   -1
100
AcDbLine
 10
136.555
 20
102.55
 11
135.305
 21
102.55
  0
LINE
  5
275
100
AcDbEntity
  8
ProjItem001
  6
ByLayer
 62
  256
370
   -1
100
AcDbLine
 10
135.305
 20
102.55
 11
135.3
 21
102.55
  0
LINE
  5
276
100
AcDbEntity
  8
ProjItem001
  6
ByLayer
 62
  256
370
   -1
100
AcDbLine
 10
136.555
 20
103.05
 11
136.555
 21
102.55
  0
LINE
  5
277
100
AcDbEntity
  8
ProjItem001
  6
ByLayer
 62
  256
370
   -1
100
AcDbLine
 10
135.905
 20
103.05
 11
136.555
 21
103.05
  0
LINE
  5
278
100
AcDbEntity
  8
ProjItem001
  6
ByLayer
 62
  256
370
   -1
100
AcDbLine
 10
135.905
 20
104.05
 11
135.905
 21
103.05
  0
LINE
  5
279
100
AcDbEntity
  8
ProjItem001
  6
ByLayer
 62
  256
370
   -1
100
AcDbLine
 10
135.3
 20
104.05
 11
135.905
 21
104.05
  0
LINE
  5
27A
100
AcDbEntity
  8
ProjItem001
  6
ByLayer
 62
  256
370
   -1
100
AcDbLine
 10
136.755
 20
106.8
 11
135.3
 21
106.8
  0
LINE
  5
27B
100
AcDbEntity
  8
ProjItem001
  6
ByLayer
 62
  256
370
   -1
100
AcDbLine
 10
136.755
 20
106.25
 11
136.755
 21
106.8
  0
LINE
  5
27C
100
AcDbEntity
  8
ProjItem001
  6
ByLayer
 62
  256
370
   -1
100
AcDbLine
 10
137.755
 20
106.25
 11
136.755
 21
106.25
  0
LINE
  5
27D
100
AcDbEntity
  8
ProjItem001
  6
ByLayer
 62
  256
370
   -1
100
AcDbLine
 10
137.755
 20
105.601
 11
137.755
 21
106.25
  0
LINE
  5
27E
100
AcDbEntity
  8
ProjItem001
  6
ByLayer
 62
  256
370
   -1
100
AcDbLine
 10
138.195
 20
105.601
 11
137.755
 21
105.601
  0
LINE
  5
27F
100
AcDbEntity
  8
ProjItem001
  6
ByLayer
 62
  256
370
   -1
100
AcDbLine
 10
137.755
 20
106.25
 11
138.195
 21
106.25
  0
LINE
  5
280
100
AcDbEntity
  8
ProjItem001
  6
ByLayer
 62
  256
370
   -1
100
AcDbLine
 10
137.755
 20
106.8
 11
136.755
 21
106.8
  0
LINE
  5
281
100
AcDbEntity
  8
ProjItem001
  6
ByLayer
 62
  256
370
   -1
100
AcDbLine
 10
137.755
 20
106.8
 11
137.755
 21
106.25
  0
LINE
  5
282
100
AcDbEntity
  8
ProjItem001
  6
ByLayer
 62
  256
370
   -1
100
AcDbLine
 10
135.495
 20
106.8
 11
135.495
 21
107.5
  0
LINE
  5
283
100
AcDbEntity
  8
ProjItem001
  6
ByLayer
 62
  256
370
   -1
100
AcDbLine
 10
135.495
 20
107.5
 11
135.3
 21
107.5
  0
LINE
  5
284
100
AcDbEntity
  8
ProjItem001
  6
ByLayer
 62
  256
370
   -1
100
AcDbLine
 10
135.3
 20
107.5
 11
135.3
 21
107.5
  0
LINE
  5
285
100
AcDbEntity
  8
ProjItem001
  6
ByLayer
 62
  256
370
   -1
100
AcDbLine
 10
134.7
 20
102.4
 11
135.3
 21
102.4
  0
LINE
  5
286
100
AcDbEntity
  8
ProjItem001
  6
ByLayer
 62
  256
370
   -1
100
AcDbLine
 10
134.7
 20
112.4
 11
135.3
 21
112.4
  0
LINE
  5
287
100
AcDbEntity
  8
ProjItem001
  6
ByLayer
 62
  256
370
   -1
100
AcDbLine
 10
135.3
 20
112.4
 11
135.3
 21
102.4
  0
LINE
  5
288
100
AcDbEntity
  8
ProjItem001
  6
ByLayer
 62
  256
370
   -1
100
AcDbLine
 10
134.7
 20
112.4
 11
134.7
 21
102.4
  0
LINE
  5
289
100
AcDbEntity
  8
ProjItem001
  6
ByLayer
 62
  256
370
   -1
100
AcDbLine
 10
136.555
 20
102.55
 11
138.195
 21
102.55
  0
LINE
  5
28A
100
AcDbEntity
  8
ProjItem001
  6
ByLayer
 62
  256
370
   -1
100
AcDbLine
 10
138.195
 20
105.601
 11
138.195
 21
102.55
  0
LINE
  5
28B
100
AcDbEntity
  8
ProjItem001
  6
ByLayer
 62
  256
370
   -1
100
AcDbLine
 10
138.195
 20
105.601
 11
138.195
 21
106.25
  0
LINE
  5
28C
100
AcDbEntity
  8
ProjItem001
  6
ByLayer
 62
  256
370
   -1
100
AcDbLine
 10
136.555
 20
102.55
 11
135.305
 21
102.55
  0
LINE
  5
28D
100
AcDbEntity
  8
ProjItem001
  6
ByLayer
 62
  256
370
   -1
100
AcDbLine
 10
135.305
 20
102.55
 11
135.3
 21
102.55
  0
LINE
  5
28E
100
AcDbEntity
  8
ProjItem001
  6
ByLayer
 62
  256
370
   -1
100
AcDbLine
 10
136.555
 20
103.05
 11
136.555
 21
102.55
  0
LINE
  5
28F
100
AcDbEntity
  8
ProjItem001
  6
ByLayer
 62
  256
370
   -1
100
AcDbLine
 10
135.905
 20
103.05
 11
136.555
 21
103.05
  0
LINE
  5
290
100
AcDbEntity
  8
ProjItem001
  6
ByLayer
 62
  256
370
   -1
100
AcDbLine
 10
135.905
 20
104.05
 11
135.905
 21
103.05
  0
LINE
  5
291
100
AcDbEntity
  8
ProjItem001
  6
ByLayer
 62
  256
370
   -1
100
AcDbLine
 10
135.3
 20
104.05
 11
135.905
 21
104.05
  0
LINE
  5
292
100
AcDbEntity
  8
ProjItem001
  6
ByLayer
 62
  256
370
   -1
100
AcDbLine
 10
136.755
 20
106.8
 11
135.3
 21
106.8
  0
LINE
  5
293
100
AcDbEntity
  8
ProjItem001
  6
ByLayer
 62
  256
370
   -1
100
AcDbLine
 10
136.755
 20
106.25
 11
136.755
 21
106.8
  0
LINE
  5
294
100
AcDbEntity
  8
ProjItem001
  6
ByLayer
 62
  256
370
   -1
100
AcDbLine
 10
137.755
 20
106.25
 11
136.755
 21
106.25
  0
LINE
  5
295
100
AcDbEntity
  8
ProjItem001
  6
ByLayer
 62
  256
370
   -1
100
AcDbLine
 10
137.755
 20
105.601
 11
137.755
 21
106.25
  0
LINE
  5
296
100
AcDbEntity
  8
ProjItem001
  6
ByLayer
 62
  256
370
   -1
100
AcDbLine
 10
138.195
 20
105.601
 11
137.755
 21
105.601
  0
LINE
  5
297
100
AcDbEntity
  8
ProjItem001
  6
ByLayer
 62
  256
370
   -1
100
AcDbLine
 10
137.755
 20
106.25
 11
138.195
 21
106.25
  0
LINE
  5
298
100
AcDbEntity
  8
ProjItem001
  6
ByLayer
 62
  256
370
   -1
100
AcDbLine
 10
137.755
 20
106.8
 11
136.755
 21
106.8
  0
LINE
  5
299
100
AcDbEntity
  8
ProjItem001
  6
ByLayer
 62
  256
370
   -1
100
AcDbLine
 10
137.755
 20
106.8
 11
137.755
 21
106.25
  0
LINE
  5
29A
100
AcDbEntity
  8
ProjItem001
  6
ByLayer
 62
  256
370
   -1
100
AcDbLine
 10
135.495
 20
106.8
 11
135.495
 21
107.5
  0
LINE
  5
29B
100
AcDbEntity
  8
ProjItem001
  6
ByLayer
 62
  256
370
   -1
100
AcDbLine
 10
135.495
 20
107.5
 11
135.3
 21
107.5
  0
LINE
  5
29C
100
AcDbEntity
  8
ProjItem001
  6
ByLayer
 62
  256
370
   -1
100
AcDbLine
 10
135.3
 20
107.5
 11
135.3
 21
107.5
  0
LINE
  5
29D
100
AcDbEntity
  8
ProjItem001
  6
ByLayer
 62
  256
370
   -1
100
AcDbLine
 10
135.3
 20
103.996
 11
135.3
 21
103.996
  0
LINE
  5
29E
100
AcDbEntity
  8
ProjItem001
  6
ByLayer
 62
  256
370
   -1
100
AcDbLine
 10
135.3
 20
102.604
 11
135.3
 21
102.604
  0
LINE
  5
29F
100
AcDbEntity
  8
ProjItem001
  6
ByLayer
 62
  256
370
   -1
100
AcDbLine
 10
135.3
 20
103.996
 11
135.3
 21
103.996
  0
LINE
  5
2A0
100
AcDbEntity
  8
ProjItem001
  6
ByLayer
 62
  256
370
   -1
100
AcDbLine
 10
135.3
 20
102.604
 11
135.3
 21
102.604
  0
LINE
  5
2A1
100
AcDbEntity
  8
ProjItem001
  6
ByLayer
 62
  256
370
   -1
100
AcDbLine
 10
136.4
 20
112
 11
136.4
 21
111.45
  0
LINE
  5
2A2
100
AcDbEntity
  8
ProjItem001
  6
ByLayer
 62
  256
370
   -1
100
AcDbLine
 10
136.4
 20
109.4
 11
136.4
 21
109.95
  0
LINE
  5
2A3
100
AcDbEntity
  8
ProjItem001
  6
ByLayer
 62
  256
370
   -1
100
AcDbLine
 10
136.4
 20
109.95
 11
136.4
 21
111.45
  0
LINE
  5
2A4
100
AcDbEntity
  8
ProjItem001
  6
ByLayer
 62
  256
370
   -1
100
AcDbLine
 10
135.95
 20
112
 11
135.95
 21
111.45
  0
LINE
  5
2A5
100
AcDbEntity
  8
ProjItem001
  6
ByLayer
 62
  256
370
   -1
100
AcDbLine
 10
135.95
 20
111.45
 11
135.95
 21
109.95
  0
LINE
  5
2A6
100
AcDbEntity
  8
ProjItem001
  6
ByLayer
 62
  256
370
   -1
100
AcDbLine
 10
135.95
 20
109.4
 11
135.95
 21
109.95
  0
LINE
  5
2A7
100
AcDbEntity
  8
ProjItem001
  6
ByLayer
 62
  256
370
   -1
100
AcDbLine
 10
136.4
 20
111.45
 11
135.95
 21
111.45
  0
SPLINE
  5
2A8
100
AcDbEntity
  8
ProjItem001
  6
ByLayer
 62
  256
370
   -1
100
AcDbSpline
210
0
220
0
230
0
 70
    8
 71
    3
 72
   11
 73
    7
 74
    0
 42
1e-07
 43
1e-07
 40
0
 40
0
 40
0
 40
0
 40
0.785398
 40
0.785398
 40
0.785398
 40
1.5708
 40
1.5708
 40
1.5708
 40
1.5708
 10
136.4
 20
111.45
 30
0
 10
136.479
 20
111.45
 30
0
 10
136.556
 20
111.45
 30
0
 10
136.612
 20
111.45
 30
0
 10
136.669
 20
111.45
 30
0
 10
136.698
 20
111.45
 30
0
 10
136.7
 20
111.45
 30
0
  0
SPLINE
  5
2A9
100
AcDbEntity
  8
ProjItem001
  6
ByLayer
 62
  256
370
   -1
100
AcDbSpline
210
0
220
0
230
0
 70
    8
 71
    3
 72
   11
 73
    7
 74
    0
 42
1e-07
 43
1e-07
 40
0
 40
0
 40
0
 40
0
 40
0.785398
 40
0.785398
 40
0.785398
 40
1.5708
 40
1.5708
 40
1.5708
 40
1.5708
 10
136.4
 20
109.95
 30
0
 10
136.479
 20
109.95
 30
0
 10
136.556
 20
109.95
 30
0
 10
136.612
 20
109.95
 30
0
 10
136.669
 20
109.95
 30
0
 10
136.698
 20
109.95
 30
0
 10
136.7
 20
109.95
 30
0
  0
LINE
  5
2AA
100
AcDbEntity
  8
ProjItem001
  6
ByLayer
 62
  256
370
   -1
100
AcDbLine
 10
136.4
 20
109.95
 11
135.95
 21
109.95
  0
LINE
  5
2AB
100
AcDbEntity
  8
ProjItem002
  6
ByLayer
 62
  256
370
   -1
100
AcDbLine
 10
152.848
 20
113.5
 11
152.848
 21
112.4
  0
LINE
  5
2AC
100
AcDbEntity
  8
ProjItem002
  6
ByLayer
 62
  256
370
   -1
100
AcDbLine
 10
151.548
 20
112.4
 11
151.548
 21
113.5
  0
CIRCLE
  5
2AD
100
AcDbEntity
  8
ProjItem002
  6
ByLayer
 62
  256
370
   -1
100
AcDbCircle
 10
152.948
 20
110.7
 40
0.4
  0
CIRCLE
  5
2AE
100
AcDbEntity
  8
ProjItem002
  6
ByLayer
 62
  256
370
   -1
100
AcDbCircle
 10
149.948
 20
110.7
 40
0.4
  0
LINE
  5
2AF
100
AcDbEntity
  8
ProjItem002
  6
ByLayer
 62
  256
370
   -1
100
AcDbLine
 10
151.548
 20
113.5
 11
152.848
 21
113.5
  0
LINE
  5
2B0
100
AcDbEntity
  8
ProjItem002
  6
ByLayer
 62
  256
370
   -1
100
AcDbLine
 10
156.448
 20
102.4
 11
146.448
 21
102.4
  0
LINE
  5
2B1
100
AcDbEntity
  8
ProjItem002
  6
ByLayer
 62
  256
370
   -1
100
AcDbLine
 10
156.448
 20
112.4
 11
156.448
 21
102.4
  0
LINE
  5
2B2
100
AcDbEntity
  8
ProjItem002
  6
ByLayer
 62
  256
370
   -1
100
AcDbLine
 10
146.448
 20
102.4
 11
146.448
 21
112.4
  0
LINE
  5
2B3
100
AcDbEntity
  8
ProjItem002
  6
ByLayer
 62
  256
370
   -1
100
AcDbLine
 10
146.448
 20
112.4
 11
156.448
 21
112.4
  0
CIRCLE
  5
2B4
100
AcDbEntity
  8
ProjItem002
  6
ByLayer
 62
  256
370
   -1
100
AcDbCircle
 10
154.948
 20
107.9
 40
0.751
  0
CIRCLE
  5
2B5
100
AcDbEntity
  8
ProjItem002
  6
ByLayer
 62
  256
370
   -1
100
AcDbCircle
 10
147.948
 20
107.9
 40
0.751
  0
CIRCLE
  5
2B6
100
AcDbEntity
  8
ProjItem002
  6
ByLayer
 62
  256
370
   -1
100
AcDbCircle
 10
152.948
 20
110.7
 40
0.451
  0
CIRCLE
  5
2B7
100
AcDbEntity
  8
ProjItem002
  6
ByLayer
 62
  256
370
   -1
100
AcDbCircle
 10
149.948
 20
110.7
 40
0.451
  0
LINE
  5
2B8
100
AcDbEntity
  8
ProjItem002
  6
ByLayer
 62
  256
370
   -1
100
AcDbLine
 10
156.448
 20
102.4
 11
146.448
 21
102.4
  0
LINE
  5
2B9
100
AcDbEntity
  8
ProjItem002
  6
ByLayer
 62
  256
370
   -1
100
AcDbLine
 10
156.448
 20
112.4
 11
156.448
 21
102.4
  0
LINE
  5
2BA
100
AcDbEntity
  8
ProjItem002
  6
ByLayer
 62
  256
370
   -1
100
AcDbLine
 10
146.448
 20
102.4
 11
146.448
 21
112.4
  0
LINE
  5
2BB
100
AcDbEntity
  8
ProjItem002
  6
ByLayer
 62
  256
370
   -1
100
AcDbLine
 10
146.448
 20
112.4
 11
156.448
 21
112.4
  0
CIRCLE
  5
2BC
100
AcDbEntity
  8
ProjItem002
  6
ByLayer
 62
  256
370
   -1
100
AcDbCircle
 10
154.948
 20
107.9
 40
0.751
  0
CIRCLE
  5
2BD
100
AcDbEntity
  8
ProjItem002
  6
ByLayer
 62
  256
370
   -1
100
AcDbCircle
 10
147.948
 20
107.9
 40
0.751
  0
CIRCLE
  5
2BE
100
AcDbEntity
  8
ProjItem002
  6
ByLayer
 62
  256
370
   -1
100
AcDbCircle
 10
152.948
 20
110.7
 40
0.451
  0
CIRCLE
  5
2BF
100
AcDbEntity
  8
ProjItem002
  6
ByLayer
 62
  256
370
   -1
100
AcDbCircle
 10
149.948
 20
110.7
 40
0.451
  0
ENDBLK
  5
93
330
91
100
AcDbEntity
  8
0
100
AcDbBlockEnd
  0
ENDSEC
  0
SECTION
  2
ENTITIES
  0
LWPOLYLINE
  5
2C0
100
AcDbEntity
  8
0
  6
ByLayer
 62
    7
370
   -1
100
AcDbPolyline
 90
    2
 70
    0
 43
0
 10
0.140079
 20
107.394775
 10
3.277269
 20
107.394775
  0
LWPOLYLINE
  5
2C1
100
AcDbEntity
  8
0
  6
ByLayer
 62
    7
370
   -1
100
AcDbPolyline
 90
    2
 70
    0
 43
0
 10
138.983326
 20
213.302216
 10
138.983326
 20
215.90002
  0
LWPOLYLINE
  5
2C2
100
AcDbEntity
  8
0
  6
ByLayer
 62
    7
370
   -1
100
AcDbPolyline
 90
    2
 70
    0
 43
0
 10
273.511583
 20
107.394775
 10
276.706053
 20
107.394775
  0
LWPOLYLINE
  5
2C3
100
AcDbEntity
  8
0
  6
ByLayer
 62
    7
370
   -1
100
AcDbPolyline
 90
    4
 70
    1
 43
0
 10
0.090159
 20
215.80482
 10
276.706052
 20
215.80482
 10
276.706052
 20
0.09016
 10
0.090159
 20
0.09016
  0
LWPOLYLINE
  5
2C4
100
AcDbEntity
  8
0
  6
ByLayer
 62
    7
370
   -1
100
AcDbPolyline
 90
    4
 70
    1
 43
0
 10
3.283779
 20
213.314325
 10
273.512431
 20
213.314325
 10
273.512431
 20
2.580656
 10
3.283779
 20
2.580656
  0
SPLINE
  5
2C5
100
AcDbEntity
  8
0
  6
ByLayer
 62
    7
370
   -1
100
AcDbSpline
210
0
220
0
230
0
 70
    8
 71
    3
 72
    8
 73
    4
 74
    0
 42
1e-07
 43
1e-07
 40
0
 40
0
 40
0
 40
0
 40
1
 40
1
 40
1
 40
1
 10
195.113259
 20
40.583992
 30
0
 10
265.921022
 20
40.583992
 30
0
 10
265.921022
 20
40.806662
 30
0
 10
265.921022
 20
40.806662
 30
0
  0
LWPOLYLINE
  5
2C6
100
AcDbEntity
  8
0
  6
ByLayer
 62
    7
370
   -1
100
AcDbPolyline
 90
    2
 70
    0
 43
0
 10
138.983326
 20
0.09016
 10
138.983326
 20
2.68797
  0
LWPOLYLINE
  5
2C7
100
AcDbEntity
  8
0
  6
ByLayer
 62
    7
370
   -1
100
AcDbPolyline
 90
    4
 70
    1
 43
0
 10
191.654079
 20
60.356283
 10
269.539611
 20
60.356283
 10
269.539611
 20
6.548934
 10
191.654079
 20
6.548934
  0
SPLINE
  5
2C8
100
AcDbEntity
  8
0
  6
ByLayer
 62
    7
370
   -1
100
AcDbSpline
210
0
220
0
230
0
 70
    8
 71
    3
 72
    8
 73
    4
 74
    0
 42
1e-07
 43
1e-07
 40
0
 40
0
 40
0
 40
0
 40
1
 40
1
 40
1
 40
1
 10
195.113259
 20
15.13960281206198
 30
0
 10
265.921022
 20
15.13960281206198
 30
0
 10
265.921022
 20
15.36226281206198
 30
0
 10
265.921022
 20
15.36226281206198
 30
0
  0
MTEXT
  5
2C9
100
AcDbEntity
  8
0
  6
ByLayer
 62
  256
370
   -1
100
AcDbMText
 10
193.5315491999793
 20
12.30264751102634
 30
0
 40
3
 41
72.06666539465414
 71
    1
 72
    1
  1
*NOTE: DIMENSIONS UNTOLERANCED\P
  7
standard
210
0
220
0
230
1
 50
0
 73
    2
 44
1
  0
MTEXT
  5
2CA
100
AcDbEntity
  8
0
  6
ByLayer
 62
  256
370
   -1
100
AcDbMText
 10
240.2022845263945
 20
27.80828678588498
 30
0
 40
2
 41
19.4999995759957
 71
    4
 72
    1
  1
SCALE: 1:1\P\PUNIT: mm\P\PREVISION: Rev1
  7
standard
210
0
220
0
230
1
 50
0
 73
    2
 44
1
  0
MTEXT
  5
2CB
100
AcDbEntity
  8
0
  6
ByLayer
 62
  256
370
   -1
100
AcDbMText
 10
134.6513535055664
 20
119.9683830628848
 30
0
 40
1
 41
5.750000000000092
 71
    1
 72
    1
  1
UNIT: mm
  7
standard
210
0
220
0
230
1
 50
0
 73
    2
 44
1
  0
LINE
  5
2CC
100
AcDbEntity
  8
ProjItem
  6
ByLayer
 62
  256
370
   -1
100
AcDbLine
 10
124
 20
106.8
 11
124
 21
107.7
  0
LINE
  5
2CD
100
AcDbEntity
  8
ProjItem
  6
ByLayer
 62
  256
370
   -1
100
AcDbLine
 10
124
 20
107.7
 11
123.4
 21
107.7
  0
LINE
  5
2CE
100
AcDbEntity
  8
ProjItem
  6
ByLayer
 62
  256
370
   -1
100
AcDbLine
 10
123.4
 20
107.7
 11
123.4
 21
106.8
  0
LINE
  5
2CF
100
AcDbEntity
  8
ProjItem
  6
ByLayer
 62
  256
370
   -1
100
AcDbLine
 10
121.2
 20
104
 11
121.004
 21
104
  0
CIRCLE
  5
2D0
100
AcDbEntity
  8
ProjItem
  6
ByLayer
 62
  256
370
   -1
100
AcDbCircle
 10
121.004
 20
103.996
 40
0.004
  0
LINE
  5
2D1
100
AcDbEntity
  8
ProjItem
  6
ByLayer
 62
  256
370
   -1
100
AcDbLine
 10
121
 20
103.996
 11
121
 21
102.604
  0
CIRCLE
  5
2D2
100
AcDbEntity
  8
ProjItem
  6
ByLayer
 62
  256
370
   -1
100
AcDbCircle
 10
121.004
 20
102.604
 40
0.004
  0
LINE
  5
2D3
100
AcDbEntity
  8
ProjItem
  6
ByLayer
 62
  256
370
   -1
100
AcDbLine
 10
121.004
 20
102.6
 11
121.2
 21
102.6
  0
LINE
  5
2D4
100
AcDbEntity
  8
ProjItem
  6
ByLayer
 62
  256
370
   -1
100
AcDbLine
 10
128.4
 20
102.6
 11
128.4
 21
104
  0
LINE
  5
2D5
100
AcDbEntity
  8
ProjItem
  6
ByLayer
 62
  256
370
   -1
100
AcDbLine
 10
128.4
 20
104
 11
128.2
 21
104
  0
LINE
  5
2D6
100
AcDbEntity
  8
ProjItem
  6
ByLayer
 62
  256
370
   -1
100
AcDbLine
 10
128.2
 20
102.6
 11
128.4
 21
102.6
  0
LINE
  5
2D7
100
AcDbEntity
  8
ProjItem
  6
ByLayer
 62
  256
370
   -1
100
AcDbLine
 10
125
 20
106.8
 11
125
 21
107.7
  0
LINE
  5
2D8
100
AcDbEntity
  8
ProjItem
  6
ByLayer
 62
  256
370
   -1
100
AcDbLine
 10
125
 20
107.7
 11
124.4
 21
107.7
  0
LINE
  5
2D9
100
AcDbEntity
  8
ProjItem
  6
ByLayer
 62
  256
370
   -1
100
AcDbLine
 10
124.4
 20
107.7
 11
124.4
 21
106.8
  0
LINE
  5
2DA
100
AcDbEntity
  8
ProjItem
  6
ByLayer
 62
  256
370
   -1
100
AcDbLine
 10
126
 20
106.8
 11
126
 21
107.7
  0
LINE
  5
2DB
100
AcDbEntity
  8
ProjItem
  6
ByLayer
 62
  256
370
   -1
100
AcDbLine
 10
126
 20
107.7
 11
125.4
 21
107.7
  0
LINE
  5
2DC
100
AcDbEntity
  8
ProjItem
  6
ByLayer
 62
  256
370
   -1
100
AcDbLine
 10
125.4
 20
107.7
 11
125.4
 21
106.8
  0
LINE
  5
2DD
100
AcDbEntity
  8
ProjItem
  6
ByLayer
 62
  256
370
   -1
100
AcDbLine
 10
127
 20
106.8
 11
127
 21
107.7
  0
LINE
  5
2DE
100
AcDbEntity
  8
ProjItem
  6
ByLayer
 62
  256
370
   -1
100
AcDbLine
 10
127
 20
107.7
 11
126.4
 21
107.7
  0
LINE
  5
2DF
100
AcDbEntity
  8
ProjItem
  6
ByLayer
 62
  256
370
   -1
100
AcDbLine
 10
126.4
 20
107.7
 11
126.4
 21
106.8
  0
LINE
  5
2E0
100
AcDbEntity
  8
ProjItem
  6
ByLayer
 62
  256
370
   -1
100
AcDbLine
 10
123
 20
106.8
 11
123
 21
107.7
  0
LINE
  5
2E1
100
AcDbEntity
  8
ProjItem
  6
ByLayer
 62
  256
370
   -1
100
AcDbLine
 10
123
 20
107.7
 11
122.4
 21
107.7
  0
LINE
  5
2E2
100
AcDbEntity
  8
ProjItem
  6
ByLayer
 62
  256
370
   -1
100
AcDbLine
 10
122.4
 20
107.7
 11
122.4
 21
106.8
  0
LINE
  5
2E3
100
AcDbEntity
  8
ProjItem
  6
ByLayer
 62
  256
370
   -1
100
AcDbLine
 10
128.725
 20
106.325
 11
128.725
 21
105.675
  0
LINE
  5
2E4
100
AcDbEntity
  8
ProjItem
  6
ByLayer
 62
  256
370
   -1
100
AcDbLine
 10
128.725
 20
105.675
 11
128.75
 21
105.675
  0
LINE
  5
2E5
100
AcDbEntity
  8
ProjItem
  6
ByLayer
 62
  256
370
   -1
100
AcDbLine
 10
129.25
 20
105.675
 11
129.275
 21
105.675
  0
LINE
  5
2E6
100
AcDbEntity
  8
ProjItem
  6
ByLayer
 62
  256
370
   -1
100
AcDbLine
 10
129.275
 20
105.675
 11
129.275
 21
106.325
  0
LINE
  5
2E7
100
AcDbEntity
  8
ProjItem
  6
ByLayer
 62
  256
370
   -1
100
AcDbLine
 10
129.275
 20
106.325
 11
128.725
 21
106.325
  0
LINE
  5
2E8
100
AcDbEntity
  8
ProjItem
  6
ByLayer
 62
  256
370
   -1
100
AcDbLine
 10
128.725
 20
105.125
 11
128.725
 21
104.475
  0
LINE
  5
2E9
100
AcDbEntity
  8
ProjItem
  6
ByLayer
 62
  256
370
   -1
100
AcDbLine
 10
128.725
 20
104.475
 11
129.275
 21
104.475
  0
LINE
  5
2EA
100
AcDbEntity
  8
ProjItem
  6
ByLayer
 62
  256
370
   -1
100
AcDbLine
 10
129.275
 20
104.475
 11
129.275
 21
105.125
  0
LINE
  5
2EB
100
AcDbEntity
  8
ProjItem
  6
ByLayer
 62
  256
370
   -1
100
AcDbLine
 10
129.275
 20
105.125
 11
129.25
 21
105.125
  0
LINE
  5
2EC
100
AcDbEntity
  8
ProjItem
  6
ByLayer
 62
  256
370
   -1
100
AcDbLine
 10
128.75
 20
105.125
 11
128.725
 21
105.125
  0
LINE
  5
2ED
100
AcDbEntity
  8
ProjItem
  6
ByLayer
 62
  256
370
   -1
100
AcDbLine
 10
121.35
 20
110
 11
120.55
 21
110
  0
LINE
  5
2EE
100
AcDbEntity
  8
ProjItem
  6
ByLayer
 62
  256
370
   -1
100
AcDbLine
 10
120.55
 20
110
 11
120.55
 21
109.2
  0
LINE
  5
2EF
100
AcDbEntity
  8
ProjItem
  6
ByLayer
 62
  256
370
   -1
100
AcDbLine
 10
120.55
 20
109.2
 11
121.55
 21
109.2
  0
LINE
  5
2F0
100
AcDbEntity
  8
ProjItem
  6
ByLayer
 62
  256
370
   -1
100
AcDbLine
 10
121.55
 20
109.2
 11
121.55
 21
109.4
  0
LINE
  5
2F1
100
AcDbEntity
  8
ProjItem
  6
ByLayer
 62
  256
370
   -1
100
AcDbLine
 10
128.85
 20
110
 11
128.05
 21
110
  0
LINE
  5
2F2
100
AcDbEntity
  8
ProjItem
  6
ByLayer
 62
  256
370
   -1
100
AcDbLine
 10
127.85
 20
109.4
 11
127.85
 21
109.2
  0
LINE
  5
2F3
100
AcDbEntity
  8
ProjItem
  6
ByLayer
 62
  256
370
   -1
100
AcDbLine
 10
127.85
 20
109.2
 11
128.85
 21
109.2
  0
LINE
  5
2F4
100
AcDbEntity
  8
ProjItem
  6
ByLayer
 62
  256
370
   -1
100
AcDbLine
 10
128.85
 20
109.2
 11
128.85
 21
110
  0
LINE
  5
2F5
100
AcDbEntity
  8
ProjItem
  6
ByLayer
 62
  256
370
   -1
100
AcDbLine
 10
128.85
 20
112.2
 11
127.85
 21
112.2
  0
LINE
  5
2F6
100
AcDbEntity
  8
ProjItem
  6
ByLayer
 62
  256
370
   -1
100
AcDbLine
 10
127.85
 20
112.2
 11
127.85
 21
112
  0
LINE
  5
2F7
100
AcDbEntity
  8
ProjItem
  6
ByLayer
 62
  256
370
   -1
100
AcDbLine
 10
128.05
 20
111.4
 11
128.85
 21
111.4
  0
LINE
  5
2F8
100
AcDbEntity
  8
ProjItem
  6
ByLayer
 62
  256
370
   -1
100
AcDbLine
 10
128.85
 20
111.4
 11
128.85
 21
112.2
  0
LINE
  5
2F9
100
AcDbEntity
  8
ProjItem
  6
ByLayer
 62
  256
370
   -1
100
AcDbLine
 10
121.55
 20
112.2
 11
120.55
 21
112.2
  0
LINE
  5
2FA
100
AcDbEntity
  8
ProjItem
  6
ByLayer
 62
  256
370
   -1
100
AcDbLine
 10
120.55
 20
112.2
 11
120.55
 21
111.4
  0
LINE
  5
2FB
100
AcDbEntity
  8
ProjItem
  6
ByLayer
 62
  256
370
   -1
100
AcDbLine
 10
120.55
 20
111.4
 11
121.35
 21
111.4
  0
LINE
  5
2FC
100
AcDbEntity
  8
ProjItem
  6
ByLayer
 62
  256
370
   -1
100
AcDbLine
 10
121.55
 20
112
 11
121.55
 21
112.2
  0
LINE
  5
2FD
100
AcDbEntity
  8
ProjItem
  6
ByLayer
 62
  256
370
   -1
100
AcDbLine
 10
123.6
 20
109.4
 11
123.6
 21
108.2
  0
LINE
  5
2FE
100
AcDbEntity
  8
ProjItem
  6
ByLayer
 62
  256
370
   -1
100
AcDbLine
 10
123.6
 20
108.2
 11
124.3
 21
108.2
  0
LINE
  5
2FF
100
AcDbEntity
  8
ProjItem
  6
ByLayer
 62
  256
370
   -1
100
AcDbLine
 10
124.3
 20
108.2
 11
124.3
 21
109.4
  0
LINE
  5
300
100
AcDbEntity
  8
ProjItem
  6
ByLayer
 62
  256
370
   -1
100
AcDbLine
 10
122.1
 20
109.4
 11
122.1
 21
108.2
  0
LINE
  5
301
100
AcDbEntity
  8
ProjItem
  6
ByLayer
 62
  256
370
   -1
100
AcDbLine
 10
122.1
 20
108.2
 11
122.8
 21
108.2
  0
LINE
  5
302
100
AcDbEntity
  8
ProjItem
  6
ByLayer
 62
  256
370
   -1
100
AcDbLine
 10
122.8
 20
108.2
 11
122.8
 21
109.4
  0
LINE
  5
303
100
AcDbEntity
  8
ProjItem
  6
ByLayer
 62
  256
370
   -1
100
AcDbLine
 10
126.6
 20
109.4
 11
126.6
 21
108.2
  0
LINE
  5
304
100
AcDbEntity
  8
ProjItem
  6
ByLayer
 62
  256
370
   -1
100
AcDbLine
 10
126.6
 20
108.2
 11
127.3
 21
108.2
  0
LINE
  5
305
100
AcDbEntity
  8
ProjItem
  6
ByLayer
 62
  256
370
   -1
100
AcDbLine
 10
127.3
 20
108.2
 11
127.3
 21
109.4
  0
LINE
  5
306
100
AcDbEntity
  8
ProjItem
  6
ByLayer
 62
  256
370
   -1
100
AcDbLine
 10
124
 20
106.8
 11
124
 21
107.7
  0
LINE
  5
307
100
AcDbEntity
  8
ProjItem
  6
ByLayer
 62
  256
370
   -1
100
AcDbLine
 10
124
 20
107.7
 11
123.4
 21
107.7
  0
LINE
  5
308
100
AcDbEntity
  8
ProjItem
  6
ByLayer
 62
  256
370
   -1
100
AcDbLine
 10
123.4
 20
107.7
 11
123.4
 21
106.8
  0
LINE
  5
309
100
AcDbEntity
  8
ProjItem
  6
ByLayer
 62
  256
370
   -1
100
AcDbLine
 10
121.2
 20
104
 11
121.004
 21
104
  0
CIRCLE
  5
30A
100
AcDbEntity
  8
ProjItem
  6
ByLayer
 62
  256
370
   -1
100
AcDbCircle
 10
121.004
 20
103.996
 40
0.004
  0
LINE
  5
30B
100
AcDbEntity
  8
ProjItem
  6
ByLayer
 62
  256
370
   -1
100
AcDbLine
 10
121
 20
103.996
 11
121
 21
102.604
  0
CIRCLE
  5
30C
100
AcDbEntity
  8
ProjItem
  6
ByLayer
 62
  256
370
   -1
100
AcDbCircle
 10
121.004
 20
102.604
 40
0.004
  0
LINE
  5
30D
100
AcDbEntity
  8
ProjItem
  6
ByLayer
 62
  256
370
   -1
100
AcDbLine
 10
121.004
 20
102.6
 11
121.2
 21
102.6
  0
LINE
  5
30E
100
AcDbEntity
  8
ProjItem
  6
ByLayer
 62
  256
370
   -1
100
AcDbLine
 10
128.4
 20
102.6
 11
128.4
 21
104
  0
LINE
  5
30F
100
AcDbEntity
  8
ProjItem
  6
ByLayer
 62
  256
370
   -1
100
AcDbLine
 10
128.4
 20
104
 11
128.2
 21
104
  0
LINE
  5
310
100
AcDbEntity
  8
ProjItem
  6
ByLayer
 62
  256
370
   -1
100
AcDbLine
 10
128.2
 20
102.6
 11
128.4
 21
102.6
  0
LINE
  5
311
100
AcDbEntity
  8
ProjItem
  6
ByLayer
 62
  256
370
   -1
100
AcDbLine
 10
125
 20
106.8
 11
125
 21
107.7
  0
LINE
  5
312
100
AcDbEntity
  8
ProjItem
  6
ByLayer
 62
  256
370
   -1
100
AcDbLine
 10
125
 20
107.7
 11
124.4
 21
107.7
  0
LINE
  5
313
100
AcDbEntity
  8
ProjItem
  6
ByLayer
 62
  256
370
   -1
100
AcDbLine
 10
124.4
 20
107.7
 11
124.4
 21
106.8
  0
LINE
  5
314
100
AcDbEntity
  8
ProjItem
  6
ByLayer
 62
  256
370
   -1
100
AcDbLine
 10
126
 20
106.8
 11
126
 21
107.7
  0
LINE
  5
315
100
AcDbEntity
  8
ProjItem
  6
ByLayer
 62
  256
370
   -1
100
AcDbLine
 10
126
 20
107.7
 11
125.4
 21
107.7
  0
LINE
  5
316
100
AcDbEntity
  8
ProjItem
  6
ByLayer
 62
  256
370
   -1
100
AcDbLine
 10
125.4
 20
107.7
 11
125.4
 21
106.8
  0
LINE
  5
317
100
AcDbEntity
  8
ProjItem
  6
ByLayer
 62
  256
370
   -1
100
AcDbLine
 10
127
 20
106.8
 11
127
 21
107.7
  0
LINE
  5
318
100
AcDbEntity
  8
ProjItem
  6
ByLayer
 62
  256
370
   -1
100
AcDbLine
 10
127
 20
107.7
 11
126.4
 21
107.7
  0
LINE
  5
319
100
AcDbEntity
  8
ProjItem
  6
ByLayer
 62
  256
370
   -1
100
AcDbLine
 10
126.4
 20
107.7
 11
126.4
 21
106.8
  0
LINE
  5
31A
100
AcDbEntity
  8
ProjItem
  6
ByLayer
 62
  256
370
   -1
100
AcDbLine
 10
123
 20
106.8
 11
123
 21
107.7
  0
LINE
  5
31B
100
AcDbEntity
  8
ProjItem
  6
ByLayer
 62
  256
370
   -1
100
AcDbLine
 10
123
 20
107.7
 11
122.4
 21
107.7
  0
LINE
  5
31C
100
AcDbEntity
  8
ProjItem
  6
ByLayer
 62
  256
370
   -1
100
AcDbLine
 10
122.4
 20
107.7
 11
122.4
 21
106.8
  0
LINE
  5
31D
100
AcDbEntity
  8
ProjItem
  6
ByLayer
 62
  256
370
   -1
100
AcDbLine
 10
128.725
 20
106.325
 11
128.725
 21
105.675
  0
LINE
  5
31E
100
AcDbEntity
  8
ProjItem
  6
ByLayer
 62
  256
370
   -1
100
AcDbLine
 10
128.725
 20
105.675
 11
128.75
 21
105.675
  0
LINE
  5
31F
100
AcDbEntity
  8
ProjItem
  6
ByLayer
 62
  256
370
   -1
100
AcDbLine
 10
129.25
 20
105.675
 11
129.275
 21
105.675
  0
LINE
  5
320
100
AcDbEntity
  8
ProjItem
  6
ByLayer
 62
  256
370
   -1
100
AcDbLine
 10
129.275
 20
105.675
 11
129.275
 21
106.325
  0
LINE
  5
321
100
AcDbEntity
  8
ProjItem
  6
ByLayer
 62
  256
370
   -1
100
AcDbLine
 10
129.275
 20
106.325
 11
128.725
 21
106.325
  0
LINE
  5
322
100
AcDbEntity
  8
ProjItem
  6
ByLayer
 62
  256
370
   -1
100
AcDbLine
 10
128.725
 20
105.125
 11
128.725
 21
104.475
  0
LINE
  5
323
100
AcDbEntity
  8
ProjItem
  6
ByLayer
 62
  256
370
   -1
100
AcDbLine
 10
128.725
 20
104.475
 11
129.275
 21
104.475
  0
LINE
  5
324
100
AcDbEntity
  8
ProjItem
  6
ByLayer
 62
  256
370
   -1
100
AcDbLine
 10
129.275
 20
104.475
 11
129.275
 21
105.125
  0
LINE
  5
325
100
AcDbEntity
  8
ProjItem
  6
ByLayer
 62
  256
370
   -1
100
AcDbLine
 10
129.275
 20
105.125
 11
129.25
 21
105.125
  0
LINE
  5
326
100
AcDbEntity
  8
ProjItem
  6
ByLayer
 62
  256
370
   -1
100
AcDbLine
 10
128.75
 20
105.125
 11
128.725
 21
105.125
  0
LINE
  5
327
100
AcDbEntity
  8
ProjItem
  6
ByLayer
 62
  256
370
   -1
100
AcDbLine
 10
121.35
 20
110
 11
120.55
 21
110
  0
LINE
  5
328
100
AcDbEntity
  8
ProjItem
  6
ByLayer
 62
  256
370
   -1
100
AcDbLine
 10
120.55
 20
110
 11
120.55
 21
109.2
  0
LINE
  5
329
100
AcDbEntity
  8
ProjItem
  6
ByLayer
 62
  256
370
   -1
100
AcDbLine
 10
120.55
 20
109.2
 11
121.55
 21
109.2
  0
LINE
  5
32A
100
AcDbEntity
  8
ProjItem
  6
ByLayer
 62
  256
370
   -1
100
AcDbLine
 10
121.55
 20
109.2
 11
121.55
 21
109.4
  0
LINE
  5
32B
100
AcDbEntity
  8
ProjItem
  6
ByLayer
 62
  256
370
   -1
100
AcDbLine
 10
128.85
 20
110
 11
128.05
 21
110
  0
LINE
  5
32C
100
AcDbEntity
  8
ProjItem
  6
ByLayer
 62
  256
370
   -1
100
AcDbLine
 10
127.85
 20
109.4
 11
127.85
 21
109.2
  0
LINE
  5
32D
100
AcDbEntity
  8
ProjItem
  6
ByLayer
 62
  256
370
   -1
100
AcDbLine
 10
127.85
 20
109.2
 11
128.85
 21
109.2
  0
LINE
  5
32E
100
AcDbEntity
  8
ProjItem
  6
ByLayer
 62
  256
370
   -1
100
AcDbLine
 10
128.85
 20
109.2
 11
128.85
 21
110
  0
LINE
  5
32F
100
AcDbEntity
  8
ProjItem
  6
ByLayer
 62
  256
370
   -1
100
AcDbLine
 10
128.85
 20
112.2
 11
127.85
 21
112.2
  0
LINE
  5
330
100
AcDbEntity
  8
ProjItem
  6
ByLayer
 62
  256
370
   -1
100
AcDbLine
 10
127.85
 20
112.2
 11
127.85
 21
112
  0
LINE
  5
331
100
AcDbEntity
  8
ProjItem
  6
ByLayer
 62
  256
370
   -1
100
AcDbLine
 10
128.05
 20
111.4
 11
128.85
 21
111.4
  0
LINE
  5
332
100
AcDbEntity
  8
ProjItem
  6
ByLayer
 62
  256
370
   -1
100
AcDbLine
 10
128.85
 20
111.4
 11
128.85
 21
112.2
  0
LINE
  5
333
100
AcDbEntity
  8
ProjItem
  6
ByLayer
 62
  256
370
   -1
100
AcDbLine
 10
121.55
 20
112.2
 11
120.55
 21
112.2
  0
LINE
  5
334
100
AcDbEntity
  8
ProjItem
  6
ByLayer
 62
  256
370
   -1
100
AcDbLine
 10
120.55
 20
112.2
 11
120.55
 21
111.4
  0
LINE
  5
335
100
AcDbEntity
  8
ProjItem
  6
ByLayer
 62
  256
370
   -1
100
AcDbLine
 10
120.55
 20
111.4
 11
121.35
 21
111.4
  0
LINE
  5
336
100
AcDbEntity
  8
ProjItem
  6
ByLayer
 62
  256
370
   -1
100
AcDbLine
 10
121.55
 20
112
 11
121.55
 21
112.2
  0
LINE
  5
337
100
AcDbEntity
  8
ProjItem
  6
ByLayer
 62
  256
370
   -1
100
AcDbLine
 10
123.6
 20
109.4
 11
123.6
 21
108.2
  0
LINE
  5
338
100
AcDbEntity
  8
ProjItem
  6
ByLayer
 62
  256
370
   -1
100
AcDbLine
 10
123.6
 20
108.2
 11
124.3
 21
108.2
  0
LINE
  5
339
100
AcDbEntity
  8
ProjItem
  6
ByLayer
 62
  256
370
   -1
100
AcDbLine
 10
124.3
 20
108.2
 11
124.3
 21
109.4
  0
LINE
  5
33A
100
AcDbEntity
  8
ProjItem
  6
ByLayer
 62
  256
370
   -1
100
AcDbLine
 10
122.1
 20
109.4
 11
122.1
 21
108.2
  0
LINE
  5
33B
100
AcDbEntity
  8
ProjItem
  6
ByLayer
 62
  256
370
   -1
100
AcDbLine
 10
122.1
 20
108.2
 11
122.8
 21
108.2
  0
LINE
  5
33C
100
AcDbEntity
  8
ProjItem
  6
ByLayer
 62
  256
370
   -1
100
AcDbLine
 10
122.8
 20
108.2
 11
122.8
 21
109.4
  0
LINE
  5
33D
100
AcDbEntity
  8
ProjItem
  6
ByLayer
 62
  256
370
   -1
100
AcDbLine
 10
126.6
 20
109.4
 11
126.6
 21
108.2
  0
LINE
  5
33E
100
AcDbEntity
  8
ProjItem
  6
ByLayer
 62
  256
370
   -1
100
AcDbLine
 10
126.6
 20
108.2
 11
127.3
 21
108.2
  0
LINE
  5
33F
100
AcDbEntity
  8
ProjItem
  6
ByLayer
 62
  256
370
   -1
100
AcDbLine
 10
127.3
 20
108.2
 11
127.3
 21
109.4
  0
LINE
  5
340
100
AcDbEntity
  8
ProjItem
  6
ByLayer
 62
  256
370
   -1
100
AcDbLine
 10
128.05
 20
109.4
 11
128.05
 21
109.8
  0
LINE
  5
341
100
AcDbEntity
  8
ProjItem
  6
ByLayer
 62
  256
370
   -1
100
AcDbLine
 10
128.05
 20
109.8
 11
128.55
 21
109.8
  0
LINE
  5
342
100
AcDbEntity
  8
ProjItem
  6
ByLayer
 62
  256
370
   -1
100
AcDbLine
 10
128.55
 20
109.8
 11
128.55
 21
109.4
  0
LINE
  5
343
100
AcDbEntity
  8
ProjItem
  6
ByLayer
 62
  256
370
   -1
100
AcDbLine
 10
128.55
 20
109.4
 11
128.05
 21
109.4
  0
LINE
  5
344
100
AcDbEntity
  8
ProjItem
  6
ByLayer
 62
  256
370
   -1
100
AcDbLine
 10
128.05
 20
111.6
 11
128.05
 21
112
  0
LINE
  5
345
100
AcDbEntity
  8
ProjItem
  6
ByLayer
 62
  256
370
   -1
100
AcDbLine
 10
128.05
 20
112
 11
128.05
 21
111.45
  0
LINE
  5
346
100
AcDbEntity
  8
ProjItem
  6
ByLayer
 62
  256
370
   -1
100
AcDbLine
 10
128.05
 20
111.45
 11
128.05
 21
109.95
  0
LINE
  5
347
100
AcDbEntity
  8
ProjItem
  6
ByLayer
 62
  256
370
   -1
100
AcDbLine
 10
128.05
 20
109.95
 11
128.05
 21
109.4
  0
LINE
  5
348
100
AcDbEntity
  8
ProjItem
  6
ByLayer
 62
  256
370
   -1
100
AcDbLine
 10
128.55
 20
111.6
 11
128.05
 21
111.6
  0
LINE
  5
349
100
AcDbEntity
  8
ProjItem
  6
ByLayer
 62
  256
370
   -1
100
AcDbLine
 10
128.05
 20
112
 11
128.55
 21
112
  0
LINE
  5
34A
100
AcDbEntity
  8
ProjItem
  6
ByLayer
 62
  256
370
   -1
100
AcDbLine
 10
128.55
 20
112
 11
128.55
 21
111.6
  0
ELLIPSE
  5
34B
100
AcDbEntity
  8
ProjItem
  6
ByLayer
 62
  256
370
   -1
100
AcDbEllipse
 10
127.75
 20
112
 30
0
 11
0.3
 21
7.966520000000001e-10
 31
0
 40
0
 41
0
 42
6.283185307179586
  0
LINE
  5
34C
100
AcDbEntity
  8
ProjItem
  6
ByLayer
 62
  256
370
   -1
100
AcDbLine
 10
127.32
 20
112
 11
127.75
 21
112
  0
SPLINE
  5
34D
100
AcDbEntity
  8
ProjItem
  6
ByLayer
 62
  256
370
   -1
100
AcDbSpline
210
0
220
0
230
0
 70
    8
 71
    3
 72
   11
 73
    7
 74
    0
 42
1e-07
 43
1e-07
 40
4.71239
 40
4.71239
 40
4.71239
 40
4.71239
 40
5.49779
 40
5.49779
 40
5.49779
 40
6.28319
 40
6.28319
 40
6.28319
 40
6.28319
 10
128.05
 20
109.4
 30
0
 10
128.048
 20
109.4
 30
0
 10
128.019
 20
109.4
 30
0
 10
127.962
 20
109.4
 30
0
 10
127.906
 20
109.4
 30
0
 10
127.829
 20
109.4
 30
0
 10
127.75
 20
109.4
 30
0
  0
LINE
  5
34E
100
AcDbEntity
  8
ProjItem
  6
ByLayer
 62
  256
370
   -1
100
AcDbLine
 10
127.75
 20
109.4
 11
127.32
 21
109.4
  0
LINE
  5
34F
100
AcDbEntity
  8
ProjItem
  6
ByLayer
 62
  256
370
   -1
100
AcDbLine
 10
121.65
 20
112
 11
122.08
 21
112
  0
SPLINE
  5
350
100
AcDbEntity
  8
ProjItem
  6
ByLayer
 62
  256
370
   -1
100
AcDbSpline
210
0
220
0
230
0
 70
    8
 71
    3
 72
   11
 73
    7
 74
    0
 42
1e-07
 43
1e-07
 40
3.14159
 40
3.14159
 40
3.14159
 40
3.14159
 40
3.92699
 40
3.92699
 40
3.92699
 40
4.71239
 40
4.71239
 40
4.71239
 40
4.71239
 10
121.65
 20
112
 30
0
 10
121.571
 20
112
 30
0
 10
121.494
 20
112
 30
0
 10
121.438
 20
112
 30
0
 10
121.381
 20
112
 30
0
 10
121.352
 20
112
 30
0
 10
121.35
 20
112
 30
0
  0
LINE
  5
351
100
AcDbEntity
  8
ProjItem
  6
ByLayer
 62
  256
370
   -1
100
AcDbLine
 10
122.08
 20
112
 11
127.32
 21
112
  0
LINE
  5
352
100
AcDbEntity
  8
ProjItem
  6
ByLayer
 62
  256
370
   -1
100
AcDbLine
 10
123.3
 20
112
 11
123.3
 21
113.5
  0
LINE
  5
353
100
AcDbEntity
  8
ProjItem
  6
ByLayer
 62
  256
370
   -1
100
AcDbLine
 10
124.6
 20
113.5
 11
124.6
 21
112
  0
LINE
  5
354
100
AcDbEntity
  8
ProjItem
  6
ByLayer
 62
  256
370
   -1
100
AcDbLine
 10
127.32
 20
109.4
 11
122.08
 21
109.4
  0
LINE
  5
355
100
AcDbEntity
  8
ProjItem
  6
ByLayer
 62
  256
370
   -1
100
AcDbLine
 10
122.08
 20
109.4
 11
121.65
 21
109.4
  0
SPLINE
  5
356
100
AcDbEntity
  8
ProjItem
  6
ByLayer
 62
  256
370
   -1
100
AcDbSpline
210
0
220
0
230
0
 70
    8
 71
    3
 72
   11
 73
    7
 74
    0
 42
1e-07
 43
1e-07
 40
3.14159
 40
3.14159
 40
3.14159
 40
3.14159
 40
3.92699
 40
3.92699
 40
3.92699
 40
4.71239
 40
4.71239
 40
4.71239
 40
4.71239
 10
121.65
 20
109.4
 30
0
 10
121.571
 20
109.4
 30
0
 10
121.494
 20
109.4
 30
0
 10
121.438
 20
109.4
 30
0
 10
121.381
 20
109.4
 30
0
 10
121.352
 20
109.4
 30
0
 10
121.35
 20
109.4
 30
0
  0
LINE
  5
357
100
AcDbEntity
  8
ProjItem
  6
ByLayer
 62
  256
370
   -1
100
AcDbLine
 10
122.25
 20
109.4
 11
122.25
 21
108.5
  0
LINE
  5
358
100
AcDbEntity
  8
ProjItem
  6
ByLayer
 62
  256
370
   -1
100
AcDbLine
 10
122.65
 20
108.5
 11
122.25
 21
108.5
  0
LINE
  5
359
100
AcDbEntity
  8
ProjItem
  6
ByLayer
 62
  256
370
   -1
100
AcDbLine
 10
122.65
 20
108.5
 11
122.65
 21
109.4
  0
LINE
  5
35A
100
AcDbEntity
  8
ProjItem
  6
ByLayer
 62
  256
370
   -1
100
AcDbLine
 10
123.75
 20
109.4
 11
123.75
 21
108.5
  0
LINE
  5
35B
100
AcDbEntity
  8
ProjItem
  6
ByLayer
 62
  256
370
   -1
100
AcDbLine
 10
124.15
 20
108.5
 11
123.75
 21
108.5
  0
LINE
  5
35C
100
AcDbEntity
  8
ProjItem
  6
ByLayer
 62
  256
370
   -1
100
AcDbLine
 10
124.15
 20
108.5
 11
124.15
 21
109.4
  0
LINE
  5
35D
100
AcDbEntity
  8
ProjItem
  6
ByLayer
 62
  256
370
   -1
100
AcDbLine
 10
126.75
 20
109.4
 11
126.75
 21
108.5
  0
LINE
  5
35E
100
AcDbEntity
  8
ProjItem
  6
ByLayer
 62
  256
370
   -1
100
AcDbLine
 10
127.15
 20
108.5
 11
126.75
 21
108.5
  0
LINE
  5
35F
100
AcDbEntity
  8
ProjItem
  6
ByLayer
 62
  256
370
   -1
100
AcDbLine
 10
127.15
 20
108.5
 11
127.15
 21
109.4
  0
LINE
  5
360
100
AcDbEntity
  8
ProjItem
  6
ByLayer
 62
  256
370
   -1
100
AcDbLine
 10
120.85
 20
112
 11
121.35
 21
112
  0
LINE
  5
361
100
AcDbEntity
  8
ProjItem
  6
ByLayer
 62
  256
370
   -1
100
AcDbLine
 10
121.35
 20
111.6
 11
121.35
 21
112
  0
LINE
  5
362
100
AcDbEntity
  8
ProjItem
  6
ByLayer
 62
  256
370
   -1
100
AcDbLine
 10
121.35
 20
112
 11
121.35
 21
111.45
  0
LINE
  5
363
100
AcDbEntity
  8
ProjItem
  6
ByLayer
 62
  256
370
   -1
100
AcDbLine
 10
124.6
 20
113.5
 11
123.3
 21
113.5
  0
LINE
  5
364
100
AcDbEntity
  8
ProjItem
  6
ByLayer
 62
  256
370
   -1
100
AcDbLine
 10
121.35
 20
109.4
 11
121.35
 21
109.95
  0
LINE
  5
365
100
AcDbEntity
  8
ProjItem
  6
ByLayer
 62
  256
370
   -1
100
AcDbLine
 10
121.35
 20
109.4
 11
120.85
 21
109.4
  0
LINE
  5
366
100
AcDbEntity
  8
ProjItem
  6
ByLayer
 62
  256
370
   -1
100
AcDbLine
 10
120.85
 20
112
 11
120.85
 21
111.6
  0
LINE
  5
367
100
AcDbEntity
  8
ProjItem
  6
ByLayer
 62
  256
370
   -1
100
AcDbLine
 10
121.35
 20
111.6
 11
120.85
 21
111.6
  0
LINE
  5
368
100
AcDbEntity
  8
ProjItem
  6
ByLayer
 62
  256
370
   -1
100
AcDbLine
 10
120.85
 20
109.8
 11
121.35
 21
109.8
  0
LINE
  5
369
100
AcDbEntity
  8
ProjItem
  6
ByLayer
 62
  256
370
   -1
100
AcDbLine
 10
120.85
 20
109.8
 11
120.85
 21
109.4
  0
LINE
  5
36A
100
AcDbEntity
  8
ProjItem
  6
ByLayer
 62
  256
370
   -1
100
AcDbLine
 10
121.35
 20
109.95
 11
121.35
 21
111.45
  0
LINE
  5
36B
100
AcDbEntity
  8
ProjItem
  6
ByLayer
 62
  256
370
   -1
100
AcDbLine
 10
119.7
 20
102.4
 11
129.7
 21
102.4
  0
LINE
  5
36C
100
AcDbEntity
  8
ProjItem
  6
ByLayer
 62
  256
370
   -1
100
AcDbLine
 10
119.7
 20
112.4
 11
119.7
 21
102.4
  0
LINE
  5
36D
100
AcDbEntity
  8
ProjItem
  6
ByLayer
 62
  256
370
   -1
100
AcDbLine
 10
129.7
 20
102.4
 11
129.7
 21
112.4
  0
LINE
  5
36E
100
AcDbEntity
  8
ProjItem
  6
ByLayer
 62
  256
370
   -1
100
AcDbLine
 10
129.7
 20
112.4
 11
124.6
 21
112.4
  0
LINE
  5
36F
100
AcDbEntity
  8
ProjItem
  6
ByLayer
 62
  256
370
   -1
100
AcDbLine
 10
123.3
 20
112.4
 11
119.7
 21
112.4
  0
CIRCLE
  5
370
100
AcDbEntity
  8
ProjItem
  6
ByLayer
 62
  256
370
   -1
100
AcDbCircle
 10
121.2
 20
107.9
 40
0.751
  0
CIRCLE
  5
371
100
AcDbEntity
  8
ProjItem
  6
ByLayer
 62
  256
370
   -1
100
AcDbCircle
 10
128.2
 20
107.9
 40
0.751
  0
LINE
  5
372
100
AcDbEntity
  8
ProjItem
  6
ByLayer
 62
  256
370
   -1
100
AcDbLine
 10
128.2
 20
102.55
 11
121.2
 21
102.55
  0
LINE
  5
373
100
AcDbEntity
  8
ProjItem
  6
ByLayer
 62
  256
370
   -1
100
AcDbLine
 10
121.2
 20
105.601
 11
121.2
 21
102.55
  0
LINE
  5
374
100
AcDbEntity
  8
ProjItem
  6
ByLayer
 62
  256
370
   -1
100
AcDbLine
 10
121.7
 20
105.601
 11
121.2
 21
105.601
  0
LINE
  5
375
100
AcDbEntity
  8
ProjItem
  6
ByLayer
 62
  256
370
   -1
100
AcDbLine
 10
121.7
 20
105.601
 11
121.7
 21
106.25
  0
LINE
  5
376
100
AcDbEntity
  8
ProjItem
  6
ByLayer
 62
  256
370
   -1
100
AcDbLine
 10
127.7
 20
106.25
 11
121.7
 21
106.25
  0
LINE
  5
377
100
AcDbEntity
  8
ProjItem
  6
ByLayer
 62
  256
370
   -1
100
AcDbLine
 10
127.7
 20
105.601
 11
127.7
 21
106.25
  0
LINE
  5
378
100
AcDbEntity
  8
ProjItem
  6
ByLayer
 62
  256
370
   -1
100
AcDbLine
 10
128.2
 20
105.601
 11
127.7
 21
105.601
  0
LINE
  5
379
100
AcDbEntity
  8
ProjItem
  6
ByLayer
 62
  256
370
   -1
100
AcDbLine
 10
128.2
 20
102.55
 11
128.2
 21
105.601
  0
LINE
  5
37A
100
AcDbEntity
  8
ProjItem
  6
ByLayer
 62
  256
370
   -1
100
AcDbLine
 10
128.2
 20
105.601
 11
128.2
 21
106.25
  0
LINE
  5
37B
100
AcDbEntity
  8
ProjItem
  6
ByLayer
 62
  256
370
   -1
100
AcDbLine
 10
128.2
 20
106.25
 11
128.2
 21
106.8
  0
LINE
  5
37C
100
AcDbEntity
  8
ProjItem
  6
ByLayer
 62
  256
370
   -1
100
AcDbLine
 10
121.2
 20
106.25
 11
121.2
 21
106.8
  0
LINE
  5
37D
100
AcDbEntity
  8
ProjItem
  6
ByLayer
 62
  256
370
   -1
100
AcDbLine
 10
121.2
 20
105.601
 11
121.2
 21
106.25
  0
LINE
  5
37E
100
AcDbEntity
  8
ProjItem
  6
ByLayer
 62
  256
370
   -1
100
AcDbLine
 10
127.7
 20
106.25
 11
128.2
 21
106.25
  0
LINE
  5
37F
100
AcDbEntity
  8
ProjItem
  6
ByLayer
 62
  256
370
   -1
100
AcDbLine
 10
127.7
 20
106.8
 11
128.2
 21
106.8
  0
LINE
  5
380
100
AcDbEntity
  8
ProjItem
  6
ByLayer
 62
  256
370
   -1
100
AcDbLine
 10
121.7
 20
106.8
 11
127.7
 21
106.8
  0
LINE
  5
381
100
AcDbEntity
  8
ProjItem
  6
ByLayer
 62
  256
370
   -1
100
AcDbLine
 10
121.7
 20
106.8
 11
121.2
 21
106.8
  0
LINE
  5
382
100
AcDbEntity
  8
ProjItem
  6
ByLayer
 62
  256
370
   -1
100
AcDbLine
 10
121.7
 20
106.25
 11
121.2
 21
106.25
  0
LINE
  5
383
100
AcDbEntity
  8
ProjItem
  6
ByLayer
 62
  256
370
   -1
100
AcDbLine
 10
121.7
 20
106.8
 11
121.7
 21
106.25
  0
LINE
  5
384
100
AcDbEntity
  8
ProjItem
  6
ByLayer
 62
  256
370
   -1
100
AcDbLine
 10
127.7
 20
106.8
 11
127.7
 21
106.25
  0
LINE
  5
385
100
AcDbEntity
  8
ProjItem
  6
ByLayer
 62
  256
370
   -1
100
AcDbLine
 10
122.8
 20
106.8
 11
122.8
 21
107.5
  0
LINE
  5
386
100
AcDbEntity
  8
ProjItem
  6
ByLayer
 62
  256
370
   -1
100
AcDbLine
 10
122.6
 20
107.5
 11
122.8
 21
107.5
  0
LINE
  5
387
100
AcDbEntity
  8
ProjItem
  6
ByLayer
 62
  256
370
   -1
100
AcDbLine
 10
122.6
 20
106.8
 11
122.6
 21
107.5
  0
LINE
  5
388
100
AcDbEntity
  8
ProjItem
  6
ByLayer
 62
  256
370
   -1
100
AcDbLine
 10
126.8
 20
106.8
 11
126.8
 21
107.5
  0
LINE
  5
389
100
AcDbEntity
  8
ProjItem
  6
ByLayer
 62
  256
370
   -1
100
AcDbLine
 10
126.6
 20
107.5
 11
126.8
 21
107.5
  0
LINE
  5
38A
100
AcDbEntity
  8
ProjItem
  6
ByLayer
 62
  256
370
   -1
100
AcDbLine
 10
126.6
 20
106.8
 11
126.6
 21
107.5
  0
LINE
  5
38B
100
AcDbEntity
  8
ProjItem
  6
ByLayer
 62
  256
370
   -1
100
AcDbLine
 10
125.8
 20
106.8
 11
125.8
 21
107.5
  0
LINE
  5
38C
100
AcDbEntity
  8
ProjItem
  6
ByLayer
 62
  256
370
   -1
100
AcDbLine
 10
125.8
 20
107.5
 11
125.6
 21
107.5
  0
LINE
  5
38D
100
AcDbEntity
  8
ProjItem
  6
ByLayer
 62
  256
370
   -1
100
AcDbLine
 10
125.6
 20
107.5
 11
125.6
 21
106.8
  0
LINE
  5
38E
100
AcDbEntity
  8
ProjItem
  6
ByLayer
 62
  256
370
   -1
100
AcDbLine
 10
124.8
 20
106.8
 11
124.8
 21
107.5
  0
LINE
  5
38F
100
AcDbEntity
  8
ProjItem
  6
ByLayer
 62
  256
370
   -1
100
AcDbLine
 10
124.8
 20
107.5
 11
124.6
 21
107.5
  0
LINE
  5
390
100
AcDbEntity
  8
ProjItem
  6
ByLayer
 62
  256
370
   -1
100
AcDbLine
 10
124.6
 20
107.5
 11
124.6
 21
106.8
  0
LINE
  5
391
100
AcDbEntity
  8
ProjItem
  6
ByLayer
 62
  256
370
   -1
100
AcDbLine
 10
123.8
 20
106.8
 11
123.8
 21
107.5
  0
LINE
  5
392
100
AcDbEntity
  8
ProjItem
  6
ByLayer
 62
  256
370
   -1
100
AcDbLine
 10
123.8
 20
107.5
 11
123.6
 21
107.5
  0
LINE
  5
393
100
AcDbEntity
  8
ProjItem
  6
ByLayer
 62
  256
370
   -1
100
AcDbLine
 10
123.6
 20
107.5
 11
123.6
 21
106.8
  0
LINE
  5
394
100
AcDbEntity
  8
ProjItem
  6
ByLayer
 62
  256
370
   -1
100
AcDbLine
 10
129.25
 20
105.1
 11
128.75
 21
105.1
  0
LINE
  5
395
100
AcDbEntity
  8
ProjItem
  6
ByLayer
 62
  256
370
   -1
100
AcDbLine
 10
128.75
 20
105.1
 11
128.75
 21
104.9
  0
LINE
  5
396
100
AcDbEntity
  8
ProjItem
  6
ByLayer
 62
  256
370
   -1
100
AcDbLine
 10
129.25
 20
104.9
 11
128.75
 21
104.9
  0
LINE
  5
397
100
AcDbEntity
  8
ProjItem
  6
ByLayer
 62
  256
370
   -1
100
AcDbLine
 10
129.25
 20
105.1
 11
129.25
 21
104.9
  0
LINE
  5
398
100
AcDbEntity
  8
ProjItem
  6
ByLayer
 62
  256
370
   -1
100
AcDbLine
 10
129.25
 20
105.7
 11
128.75
 21
105.7
  0
LINE
  5
399
100
AcDbEntity
  8
ProjItem
  6
ByLayer
 62
  256
370
   -1
100
AcDbLine
 10
128.75
 20
105.7
 11
128.75
 21
105.9
  0
LINE
  5
39A
100
AcDbEntity
  8
ProjItem
  6
ByLayer
 62
  256
370
   -1
100
AcDbLine
 10
129.25
 20
105.9
 11
128.75
 21
105.9
  0
LINE
  5
39B
100
AcDbEntity
  8
ProjItem
  6
ByLayer
 62
  256
370
   -1
100
AcDbLine
 10
129.25
 20
105.7
 11
129.25
 21
105.9
  0
LINE
  5
39C
100
AcDbEntity
  8
ProjItem
  6
ByLayer
 62
  256
370
   -1
100
AcDbLine
 10
129.25
 20
105.7
 11
128.75
 21
105.7
  0
LINE
  5
39D
100
AcDbEntity
  8
ProjItem
  6
ByLayer
 62
  256
370
   -1
100
AcDbLine
 10
128.75
 20
105.7
 11
128.75
 21
105.1
  0
LINE
  5
39E
100
AcDbEntity
  8
ProjItem
  6
ByLayer
 62
  256
370
   -1
100
AcDbLine
 10
129.25
 20
105.1
 11
128.75
 21
105.1
  0
LINE
  5
39F
100
AcDbEntity
  8
ProjItem
  6
ByLayer
 62
  256
370
   -1
100
AcDbLine
 10
129.25
 20
105.7
 11
129.25
 21
105.1
  0
LINE
  5
3A0
100
AcDbEntity
  8
ProjItem
  6
ByLayer
 62
  256
370
   -1
100
AcDbLine
 10
119.7
 20
102.4
 11
129.7
 21
102.4
  0
LINE
  5
3A1
100
AcDbEntity
  8
ProjItem
  6
ByLayer
 62
  256
370
   -1
100
AcDbLine
 10
119.7
 20
112.4
 11
119.7
 21
102.4
  0
LINE
  5
3A2
100
AcDbEntity
  8
ProjItem
  6
ByLayer
 62
  256
370
   -1
100
AcDbLine
 10
129.7
 20
102.4
 11
129.7
 21
112.4
  0
LINE
  5
3A3
100
AcDbEntity
  8
ProjItem
  6
ByLayer
 62
  256
370
   -1
100
AcDbLine
 10
129.7
 20
112.4
 11
124.6
 21
112.4
  0
LINE
  5
3A4
100
AcDbEntity
  8
ProjItem
  6
ByLayer
 62
  256
370
   -1
100
AcDbLine
 10
123.3
 20
112.4
 11
119.7
 21
112.4
  0
CIRCLE
  5
3A5
100
AcDbEntity
  8
ProjItem
  6
ByLayer
 62
  256
370
   -1
100
AcDbCircle
 10
121.2
 20
107.9
 40
0.751
  0
CIRCLE
  5
3A6
100
AcDbEntity
  8
ProjItem
  6
ByLayer
 62
  256
370
   -1
100
AcDbCircle
 10
128.2
 20
107.9
 40
0.751
  0
LINE
  5
3A7
100
AcDbEntity
  8
ProjItem
  6
ByLayer
 62
  256
370
   -1
100
AcDbLine
 10
129.25
 20
105.1
 11
128.75
 21
105.1
  0
LINE
  5
3A8
100
AcDbEntity
  8
ProjItem
  6
ByLayer
 62
  256
370
   -1
100
AcDbLine
 10
128.75
 20
105.1
 11
128.75
 21
104.9
  0
LINE
  5
3A9
100
AcDbEntity
  8
ProjItem
  6
ByLayer
 62
  256
370
   -1
100
AcDbLine
 10
129.25
 20
104.9
 11
128.75
 21
104.9
  0
LINE
  5
3AA
100
AcDbEntity
  8
ProjItem
  6
ByLayer
 62
  256
370
   -1
100
AcDbLine
 10
129.25
 20
105.1
 11
129.25
 21
104.9
  0
LINE
  5
3AB
100
AcDbEntity
  8
ProjItem
  6
ByLayer
 62
  256
370
   -1
100
AcDbLine
 10
129.25
 20
105.7
 11
128.75
 21
105.7
  0
LINE
  5
3AC
100
AcDbEntity
  8
ProjItem
  6
ByLayer
 62
  256
370
   -1
100
AcDbLine
 10
128.75
 20
105.7
 11
128.75
 21
105.9
  0
LINE
  5
3AD
100
AcDbEntity
  8
ProjItem
  6
ByLayer
 62
  256
370
   -1
100
AcDbLine
 10
129.25
 20
105.9
 11
128.75
 21
105.9
  0
LINE
  5
3AE
100
AcDbEntity
  8
ProjItem
  6
ByLayer
 62
  256
370
   -1
100
AcDbLine
 10
129.25
 20
105.7
 11
129.25
 21
105.9
  0
LINE
  5
3AF
100
AcDbEntity
  8
ProjItem
  6
ByLayer
 62
  256
370
   -1
100
AcDbLine
 10
129.25
 20
105.7
 11
128.75
 21
105.7
  0
LINE
  5
3B0
100
AcDbEntity
  8
ProjItem
  6
ByLayer
 62
  256
370
   -1
100
AcDbLine
 10
128.75
 20
105.7
 11
128.75
 21
105.1
  0
LINE
  5
3B1
100
AcDbEntity
  8
ProjItem
  6
ByLayer
 62
  256
370
   -1
100
AcDbLine
 10
129.25
 20
105.1
 11
128.75
 21
105.1
  0
LINE
  5
3B2
100
AcDbEntity
  8
ProjItem
  6
ByLayer
 62
  256
370
   -1
100
AcDbLine
 10
129.25
 20
105.7
 11
129.25
 21
105.1
  0
LINE
  5
3B3
100
AcDbEntity
  8
ProjItem
  6
ByLayer
 62
  256
370
   -1
100
AcDbLine
 10
128.2
 20
102.55
 11
121.2
 21
102.55
  0
LINE
  5
3B4
100
AcDbEntity
  8
ProjItem
  6
ByLayer
 62
  256
370
   -1
100
AcDbLine
 10
121.2
 20
105.601
 11
121.2
 21
102.55
  0
LINE
  5
3B5
100
AcDbEntity
  8
ProjItem
  6
ByLayer
 62
  256
370
   -1
100
AcDbLine
 10
121.7
 20
105.601
 11
121.2
 21
105.601
  0
LINE
  5
3B6
100
AcDbEntity
  8
ProjItem
  6
ByLayer
 62
  256
370
   -1
100
AcDbLine
 10
121.7
 20
105.601
 11
121.7
 21
106.25
  0
LINE
  5
3B7
100
AcDbEntity
  8
ProjItem
  6
ByLayer
 62
  256
370
   -1
100
AcDbLine
 10
127.7
 20
106.25
 11
121.7
 21
106.25
  0
LINE
  5
3B8
100
AcDbEntity
  8
ProjItem
  6
ByLayer
 62
  256
370
   -1
100
AcDbLine
 10
127.7
 20
105.601
 11
127.7
 21
106.25
  0
LINE
  5
3B9
100
AcDbEntity
  8
ProjItem
  6
ByLayer
 62
  256
370
   -1
100
AcDbLine
 10
128.2
 20
105.601
 11
127.7
 21
105.601
  0
LINE
  5
3BA
100
AcDbEntity
  8
ProjItem
  6
ByLayer
 62
  256
370
   -1
100
AcDbLine
 10
128.2
 20
102.55
 11
128.2
 21
105.601
  0
LINE
  5
3BB
100
AcDbEntity
  8
ProjItem
  6
ByLayer
 62
  256
370
   -1
100
AcDbLine
 10
128.2
 20
105.601
 11
128.2
 21
106.25
  0
LINE
  5
3BC
100
AcDbEntity
  8
ProjItem
  6
ByLayer
 62
  256
370
   -1
100
AcDbLine
 10
128.2
 20
106.25
 11
128.2
 21
106.8
  0
LINE
  5
3BD
100
AcDbEntity
  8
ProjItem
  6
ByLayer
 62
  256
370
   -1
100
AcDbLine
 10
121.2
 20
106.25
 11
121.2
 21
106.8
  0
LINE
  5
3BE
100
AcDbEntity
  8
ProjItem
  6
ByLayer
 62
  256
370
   -1
100
AcDbLine
 10
121.2
 20
105.601
 11
121.2
 21
106.25
  0
LINE
  5
3BF
100
AcDbEntity
  8
ProjItem
  6
ByLayer
 62
  256
370
   -1
100
AcDbLine
 10
127.7
 20
106.25
 11
128.2
 21
106.25
  0
LINE
  5
3C0
100
AcDbEntity
  8
ProjItem
  6
ByLayer
 62
  256
370
   -1
100
AcDbLine
 10
127.7
 20
106.8
 11
128.2
 21
106.8
  0
LINE
  5
3C1
100
AcDbEntity
  8
ProjItem
  6
ByLayer
 62
  256
370
   -1
100
AcDbLine
 10
121.7
 20
106.8
 11
127.7
 21
106.8
  0
LINE
  5
3C2
100
AcDbEntity
  8
ProjItem
  6
ByLayer
 62
  256
370
   -1
100
AcDbLine
 10
121.7
 20
106.8
 11
121.2
 21
106.8
  0
LINE
  5
3C3
100
AcDbEntity
  8
ProjItem
  6
ByLayer
 62
  256
370
   -1
100
AcDbLine
 10
121.7
 20
106.25
 11
121.2
 21
106.25
  0
LINE
  5
3C4
100
AcDbEntity
  8
ProjItem
  6
ByLayer
 62
  256
370
   -1
100
AcDbLine
 10
121.7
 20
106.8
 11
121.7
 21
106.25
  0
LINE
  5
3C5
100
AcDbEntity
  8
ProjItem
  6
ByLayer
 62
  256
370
   -1
100
AcDbLine
 10
127.7
 20
106.8
 11
127.7
 21
106.25
  0
LINE
  5
3C6
100
AcDbEntity
  8
ProjItem
  6
ByLayer
 62
  256
370
   -1
100
AcDbLine
 10
122.8
 20
106.8
 11
122.8
 21
107.5
  0
LINE
  5
3C7
100
AcDbEntity
  8
ProjItem
  6
ByLayer
 62
  256
370
   -1
100
AcDbLine
 10
122.6
 20
107.5
 11
122.8
 21
107.5
  0
LINE
  5
3C8
100
AcDbEntity
  8
ProjItem
  6
ByLayer
 62
  256
370
   -1
100
AcDbLine
 10
122.6
 20
106.8
 11
122.6
 21
107.5
  0
LINE
  5
3C9
100
AcDbEntity
  8
ProjItem
  6
ByLayer
 62
  256
370
   -1
100
AcDbLine
 10
126.8
 20
106.8
 11
126.8
 21
107.5
  0
LINE
  5
3CA
100
AcDbEntity
  8
ProjItem
  6
ByLayer
 62
  256
370
   -1
100
AcDbLine
 10
126.6
 20
107.5
 11
126.8
 21
107.5
  0
LINE
  5
3CB
100
AcDbEntity
  8
ProjItem
  6
ByLayer
 62
  256
370
   -1
100
AcDbLine
 10
126.6
 20
106.8
 11
126.6
 21
107.5
  0
LINE
  5
3CC
100
AcDbEntity
  8
ProjItem
  6
ByLayer
 62
  256
370
   -1
100
AcDbLine
 10
125.8
 20
106.8
 11
125.8
 21
107.5
  0
LINE
  5
3CD
100
AcDbEntity
  8
ProjItem
  6
ByLayer
 62
  256
370
   -1
100
AcDbLine
 10
125.8
 20
107.5
 11
125.6
 21
107.5
  0
LINE
  5
3CE
100
AcDbEntity
  8
ProjItem
  6
ByLayer
 62
  256
370
   -1
100
AcDbLine
 10
125.6
 20
107.5
 11
125.6
 21
106.8
  0
LINE
  5
3CF
100
AcDbEntity
  8
ProjItem
  6
ByLayer
 62
  256
370
   -1
100
AcDbLine
 10
124.8
 20
106.8
 11
124.8
 21
107.5
  0
LINE
  5
3D0
100
AcDbEntity
  8
ProjItem
  6
ByLayer
 62
  256
370
   -1
100
AcDbLine
 10
124.8
 20
107.5
 11
124.6
 21
107.5
  0
LINE
  5
3D1
100
AcDbEntity
  8
ProjItem
  6
ByLayer
 62
  256
370
   -1
100
AcDbLine
 10
124.6
 20
107.5
 11
124.6
 21
106.8
  0
LINE
  5
3D2
100
AcDbEntity
  8
ProjItem
  6
ByLayer
 62
  256
370
   -1
100
AcDbLine
 10
123.8
 20
106.8
 11
123.8
 21
107.5
  0
LINE
  5
3D3
100
AcDbEntity
  8
ProjItem
  6
ByLayer
 62
  256
370
   -1
100
AcDbLine
 10
123.8
 20
107.5
 11
123.6
 21
107.5
  0
LINE
  5
3D4
100
AcDbEntity
  8
ProjItem
  6
ByLayer
 62
  256
370
   -1
100
AcDbLine
 10
123.6
 20
107.5
 11
123.6
 21
106.8
  0
LINE
  5
3D5
100
AcDbEntity
  8
ProjItem
  6
ByLayer
 62
  256
370
   -1
100
AcDbLine
 10
127.75
 20
111.45
 11
127.75
 21
112
  0
LINE
  5
3D6
100
AcDbEntity
  8
ProjItem
  6
ByLayer
 62
  256
370
   -1
100
AcDbLine
 10
127.75
 20
109.95
 11
127.75
 21
111.45
  0
LINE
  5
3D7
100
AcDbEntity
  8
ProjItem
  6
ByLayer
 62
  256
370
   -1
100
AcDbLine
 10
127.75
 20
109.4
 11
127.75
 21
109.95
  0
LINE
  5
3D8
100
AcDbEntity
  8
ProjItem
  6
ByLayer
 62
  256
370
   -1
100
AcDbLine
 10
121.65
 20
111.45
 11
121.65
 21
112
  0
LINE
  5
3D9
100
AcDbEntity
  8
ProjItem
  6
ByLayer
 62
  256
370
   -1
100
AcDbLine
 10
121.65
 20
109.4
 11
121.65
 21
109.95
  0
LINE
  5
3DA
100
AcDbEntity
  8
ProjItem
  6
ByLayer
 62
  256
370
   -1
100
AcDbLine
 10
121.65
 20
109.95
 11
121.65
 21
111.45
  0
SPLINE
  5
3DB
100
AcDbEntity
  8
ProjItem
  6
ByLayer
 62
  256
370
   -1
100
AcDbSpline
210
0
220
0
230
0
 70
    8
 71
    3
 72
   11
 73
    7
 74
    0
 42
1e-07
 43
1e-07
 40
1.5708
 40
1.5708
 40
1.5708
 40
1.5708
 40
2.35619
 40
2.35619
 40
2.35619
 40
3.14159
 40
3.14159
 40
3.14159
 40
3.14159
 10
127.75
 20
111.45
 30
0
 10
127.829
 20
111.45
 30
0
 10
127.906
 20
111.45
 30
0
 10
127.962
 20
111.45
 30
0
 10
128.019
 20
111.45
 30
0
 10
128.048
 20
111.45
 30
0
 10
128.05
 20
111.45
 30
0
  0
SPLINE
  5
3DC
100
AcDbEntity
  8
ProjItem
  6
ByLayer
 62
  256
370
   -1
100
AcDbSpline
210
0
220
0
230
0
 70
    8
 71
    3
 72
   11
 73
    7
 74
    0
 42
1e-07
 43
1e-07
 40
1.5708
 40
1.5708
 40
1.5708
 40
1.5708
 40
2.35619
 40
2.35619
 40
2.35619
 40
3.14159
 40
3.14159
 40
3.14159
 40
3.14159
 10
127.75
 20
109.95
 30
0
 10
127.829
 20
109.95
 30
0
 10
127.906
 20
109.95
 30
0
 10
127.962
 20
109.95
 30
0
 10
128.019
 20
109.95
 30
0
 10
128.048
 20
109.95
 30
0
 10
128.05
 20
109.95
 30
0
  0
LINE
  5
3DD
100
AcDbEntity
  8
ProjItem
  6
ByLayer
 62
  256
370
   -1
100
AcDbLine
 10
127.32
 20
112
 11
127.32
 21
111.45
  0
LINE
  5
3DE
100
AcDbEntity
  8
ProjItem
  6
ByLayer
 62
  256
370
   -1
100
AcDbLine
 10
127.75
 20
111.45
 11
127.32
 21
111.45
  0
LINE
  5
3DF
100
AcDbEntity
  8
ProjItem
  6
ByLayer
 62
  256
370
   -1
100
AcDbLine
 10
127.75
 20
109.95
 11
127.32
 21
109.95
  0
LINE
  5
3E0
100
AcDbEntity
  8
ProjItem
  6
ByLayer
 62
  256
370
   -1
100
AcDbLine
 10
127.32
 20
111.45
 11
127.32
 21
109.95
  0
LINE
  5
3E1
100
AcDbEntity
  8
ProjItem
  6
ByLayer
 62
  256
370
   -1
100
AcDbLine
 10
127.32
 20
109.4
 11
127.32
 21
109.95
  0
SPLINE
  5
3E2
100
AcDbEntity
  8
ProjItem
  6
ByLayer
 62
  256
370
   -1
100
AcDbSpline
210
0
220
0
230
0
 70
    8
 71
    3
 72
   11
 73
    7
 74
    0
 42
1e-07
 43
1e-07
 40
0
 40
0
 40
0
 40
0
 40
0.785398
 40
0.785398
 40
0.785398
 40
1.5708
 40
1.5708
 40
1.5708
 40
1.5708
 10
121.35
 20
111.45
 30
0
 10
121.352
 20
111.45
 30
0
 10
121.381
 20
111.45
 30
0
 10
121.438
 20
111.45
 30
0
 10
121.494
 20
111.45
 30
0
 10
121.571
 20
111.45
 30
0
 10
121.65
 20
111.45
 30
0
  0
LINE
  5
3E3
100
AcDbEntity
  8
ProjItem
  6
ByLayer
 62
  256
370
   -1
100
AcDbLine
 10
121.65
 20
111.45
 11
122.08
 21
111.45
  0
LINE
  5
3E4
100
AcDbEntity
  8
ProjItem
  6
ByLayer
 62
  256
370
   -1
100
AcDbLine
 10
122.08
 20
112
 11
122.08
 21
111.45
  0
LINE
  5
3E5
100
AcDbEntity
  8
ProjItem
  6
ByLayer
 62
  256
370
   -1
100
AcDbLine
 10
122.08
 20
109.4
 11
122.08
 21
109.95
  0
LINE
  5
3E6
100
AcDbEntity
  8
ProjItem
  6
ByLayer
 62
  256
370
   -1
100
AcDbLine
 10
122.08
 20
111.45
 11
122.08
 21
109.95
  0
LINE
  5
3E7
100
AcDbEntity
  8
ProjItem
  6
ByLayer
 62
  256
370
   -1
100
AcDbLine
 10
121.65
 20
109.95
 11
122.08
 21
109.95
  0
SPLINE
  5
3E8
100
AcDbEntity
  8
ProjItem
  6
ByLayer
 62
  256
370
   -1
100
AcDbSpline
210
0
220
0
230
0
 70
    8
 71
    3
 72
   11
 73
    7
 74
    0
 42
1e-07
 43
1e-07
 40
0
 40
0
 40
0
 40
0
 40
0.785398
 40
0.785398
 40
0.785398
 40
1.5708
 40
1.5708
 40
1.5708
 40
1.5708
 10
121.35
 20
109.95
 30
0
 10
121.352
 20
109.95
 30
0
 10
121.381
 20
109.95
 30
0
 10
121.438
 20
109.95
 30
0
 10
121.494
 20
109.95
 30
0
 10
121.571
 20
109.95
 30
0
 10
121.65
 20
109.95
 30
0
  0
LINE
  5
3E9
100
AcDbEntity
  8
ProjItem002
  6
ByLayer
 62
  256
370
   -1
100
AcDbLine
 10
152.848
 20
113.5
 11
152.848
 21
112.4
  0
LINE
  5
3EA
100
AcDbEntity
  8
ProjItem002
  6
ByLayer
 62
  256
370
   -1
100
AcDbLine
 10
151.548
 20
112.4
 11
151.548
 21
113.5
  0
CIRCLE
  5
3EB
100
AcDbEntity
  8
ProjItem002
  6
ByLayer
 62
  256
370
   -1
100
AcDbCircle
 10
152.948
 20
110.7
 40
0.4
  0
CIRCLE
  5
3EC
100
AcDbEntity
  8
ProjItem002
  6
ByLayer
 62
  256
370
   -1
100
AcDbCircle
 10
149.948
 20
110.7
 40
0.4
  0
LINE
  5
3ED
100
AcDbEntity
  8
ProjItem002
  6
ByLayer
 62
  256
370
   -1
100
AcDbLine
 10
151.548
 20
113.5
 11
152.848
 21
113.5
  0
LINE
  5
3EE
100
AcDbEntity
  8
ProjItem002
  6
ByLayer
 62
  256
370
   -1
100
AcDbLine
 10
156.448
 20
102.4
 11
146.448
 21
102.4
  0
LINE
  5
3EF
100
AcDbEntity
  8
ProjItem002
  6
ByLayer
 62
  256
370
   -1
100
AcDbLine
 10
156.448
 20
112.4
 11
156.448
 21
102.4
  0
LINE
  5
3F0
100
AcDbEntity
  8
ProjItem002
  6
ByLayer
 62
  256
370
   -1
100
AcDbLine
 10
146.448
 20
102.4
 11
146.448
 21
112.4
  0
LINE
  5
3F1
100
AcDbEntity
  8
ProjItem002
  6
ByLayer
 62
  256
370
   -1
100
AcDbLine
 10
146.448
 20
112.4
 11
156.448
 21
112.4
  0
CIRCLE
  5
3F2
100
AcDbEntity
  8
ProjItem002
  6
ByLayer
 62
  256
370
   -1
100
AcDbCircle
 10
154.948
 20
107.9
 40
0.751
  0
CIRCLE
  5
3F3
100
AcDbEntity
  8
ProjItem002
  6
ByLayer
 62
  256
370
   -1
100
AcDbCircle
 10
147.948
 20
107.9
 40
0.751
  0
CIRCLE
  5
3F4
100
AcDbEntity
  8
ProjItem002
  6
ByLayer
 62
  256
370
   -1
100
AcDbCircle
 10
152.948
 20
110.7
 40
0.451
  0
CIRCLE
  5
3F5
100
AcDbEntity
  8
ProjItem002
  6
ByLayer
 62
  256
370
   -1
100
AcDbCircle
 10
149.948
 20
110.7
 40
0.451
  0
LINE
  5
3F6
100
AcDbEntity
  8
ProjItem002
  6
ByLayer
 62
  256
370
   -1
100
AcDbLine
 10
156.448
 20
102.4
 11
146.448
 21
102.4
  0
LINE
  5
3F7
100
AcDbEntity
  8
ProjItem002
  6
ByLayer
 62
  256
370
   -1
100
AcDbLine
 10
156.448
 20
112.4
 11
156.448
 21
102.4
  0
LINE
  5
3F8
100
AcDbEntity
  8
ProjItem002
  6
ByLayer
 62
  256
370
   -1
100
AcDbLine
 10
146.448
 20
102.4
 11
146.448
 21
112.4
  0
LINE
  5
3F9
100
AcDbEntity
  8
ProjItem002
  6
ByLayer
 62
  256
370
   -1
100
AcDbLine
 10
146.448
 20
112.4
 11
156.448
 21
112.4
  0
CIRCLE
  5
3FA
100
AcDbEntity
  8
ProjItem002
  6
ByLayer
 62
  256
370
   -1
100
AcDbCircle
 10
154.948
 20
107.9
 40
0.751
  0
CIRCLE
  5
3FB
100
AcDbEntity
  8
ProjItem002
  6
ByLayer
 62
  256
370
   -1
100
AcDbCircle
 10
147.948
 20
107.9
 40
0.751
  0
CIRCLE
  5
3FC
100
AcDbEntity
  8
ProjItem002
  6
ByLayer
 62
  256
370
   -1
100
AcDbCircle
 10
152.948
 20
110.7
 40
0.451
  0
CIRCLE
  5
3FD
100
AcDbEntity
  8
ProjItem002
  6
ByLayer
 62
  256
370
   -1
100
AcDbCircle
 10
149.948
 20
110.7
 40
0.451
  0
LINE
  5
3FE
100
AcDbEntity
  8
ProjItem001
  6
ByLayer
 62
  256
370
   -1
100
AcDbLine
 10
136.6
 20
104
 11
136.6
 21
104
  0
SPLINE
  5
3FF
100
AcDbEntity
  8
ProjItem001
  6
ByLayer
 62
  256
370
   -1
100
AcDbSpline
210
0
220
0
230
0
 70
    8
 71
    1
 72
    4
 73
    2
 74
    0
 42
1e-07
 43
1e-07
 40
0
 40
0
 40
1.5708
 40
1.5708
 10
136.6
 20
104
 30
0
 10
136.6
 20
103.996
 30
0
  0
SPLINE
  5
400
100
AcDbEntity
  8
ProjItem001
  6
ByLayer
 62
  256
370
   -1
100
AcDbSpline
210
0
220
0
230
0
 70
    8
 71
    1
 72
    4
 73
    2
 74
    0
 42
1e-07
 43
1e-07
 40
0
 40
0
 40
1.5708
 40
1.5708
 10
136.6
 20
104
 30
0
 10
136.6
 20
103.996
 30
0
  0
LINE
  5
401
100
AcDbEntity
  8
ProjItem001
  6
ByLayer
 62
  256
370
   -1
100
AcDbLine
 10
136.6
 20
103.996
 11
136.6
 21
102.604
  0
LINE
  5
402
100
AcDbEntity
  8
ProjItem001
  6
ByLayer
 62
  256
370
   -1
100
AcDbLine
 10
136.6
 20
103.996
 11
136.6
 21
102.604
  0
SPLINE
  5
403
100
AcDbEntity
  8
ProjItem001
  6
ByLayer
 62
  256
370
   -1
100
AcDbSpline
210
0
220
0
230
0
 70
    8
 71
    1
 72
    4
 73
    2
 74
    0
 42
1e-07
 43
1e-07
 40
0
 40
0
 40
1.5708
 40
1.5708
 10
136.6
 20
102.604
 30
0
 10
136.6
 20
102.6
 30
0
  0
LINE
  5
404
100
AcDbEntity
  8
ProjItem001
  6
ByLayer
 62
  256
370
   -1
100
AcDbLine
 10
136.6
 20
102.6
 11
136.6
 21
102.6
  0
SPLINE
  5
405
100
AcDbEntity
  8
ProjItem001
  6
ByLayer
 62
  256
370
   -1
100
AcDbSpline
210
0
220
0
230
0
 70
    8
 71
    1
 72
    4
 73
    2
 74
    0
 42
1e-07
 43
1e-07
 40
0
 40
0
 40
1.5708
 40
1.5708
 10
136.6
 20
102.604
 30
0
 10
136.6
 20
102.6
 30
0
  0
LINE
  5
406
100
AcDbEntity
  8
ProjItem001
  6
ByLayer
 62
  256
370
   -1
100
AcDbLine
 10
136.6
 20
107.7
 11
136.6
 21
107.7
  0
LINE
  5
407
100
AcDbEntity
  8
ProjItem001
  6
ByLayer
 62
  256
370
   -1
100
AcDbLine
 10
136.6
 20
107.7
 11
136.6
 21
106.8
  0
LINE
  5
408
100
AcDbEntity
  8
ProjItem001
  6
ByLayer
 62
  256
370
   -1
100
AcDbLine
 10
136.6
 20
107.7
 11
136.6
 21
106.8
  0
LINE
  5
409
100
AcDbEntity
  8
ProjItem001
  6
ByLayer
 62
  256
370
   -1
100
AcDbLine
 10
136.6
 20
110
 11
136.6
 21
110
  0
LINE
  5
40A
100
AcDbEntity
  8
ProjItem001
  6
ByLayer
 62
  256
370
   -1
100
AcDbLine
 10
136.6
 20
110
 11
136.6
 21
109.2
  0
LINE
  5
40B
100
AcDbEntity
  8
ProjItem001
  6
ByLayer
 62
  256
370
   -1
100
AcDbLine
 10
136.6
 20
109.2
 11
136.6
 21
109.2
  0
LINE
  5
40C
100
AcDbEntity
  8
ProjItem001
  6
ByLayer
 62
  256
370
   -1
100
AcDbLine
 10
136.6
 20
110
 11
136.6
 21
109.2
  0
LINE
  5
40D
100
AcDbEntity
  8
ProjItem001
  6
ByLayer
 62
  256
370
   -1
100
AcDbLine
 10
136.6
 20
112.2
 11
136.6
 21
112.2
  0
LINE
  5
40E
100
AcDbEntity
  8
ProjItem001
  6
ByLayer
 62
  256
370
   -1
100
AcDbLine
 10
136.6
 20
112.2
 11
136.6
 21
111.4
  0
LINE
  5
40F
100
AcDbEntity
  8
ProjItem001
  6
ByLayer
 62
  256
370
   -1
100
AcDbLine
 10
136.6
 20
111.4
 11
136.6
 21
111.4
  0
LINE
  5
410
100
AcDbEntity
  8
ProjItem001
  6
ByLayer
 62
  256
370
   -1
100
AcDbLine
 10
136.6
 20
112.2
 11
136.6
 21
111.4
  0
LINE
  5
411
100
AcDbEntity
  8
ProjItem001
  6
ByLayer
 62
  256
370
   -1
100
AcDbLine
 10
136.6
 20
109.2
 11
136.6
 21
108.2
  0
LINE
  5
412
100
AcDbEntity
  8
ProjItem001
  6
ByLayer
 62
  256
370
   -1
100
AcDbLine
 10
136.6
 20
108.2
 11
136.6
 21
108.2
  0
LINE
  5
413
100
AcDbEntity
  8
ProjItem001
  6
ByLayer
 62
  256
370
   -1
100
AcDbLine
 10
136.6
 20
109.2
 11
136.6
 21
108.2
  0
LINE
  5
414
100
AcDbEntity
  8
ProjItem001
  6
ByLayer
 62
  256
370
   -1
100
AcDbLine
 10
136.6
 20
104
 11
136.6
 21
104
  0
SPLINE
  5
415
100
AcDbEntity
  8
ProjItem001
  6
ByLayer
 62
  256
370
   -1
100
AcDbSpline
210
0
220
0
230
0
 70
    8
 71
    1
 72
    4
 73
    2
 74
    0
 42
1e-07
 43
1e-07
 40
0
 40
0
 40
1.5708
 40
1.5708
 10
136.6
 20
104
 30
0
 10
136.6
 20
103.996
 30
0
  0
SPLINE
  5
416
100
AcDbEntity
  8
ProjItem001
  6
ByLayer
 62
  256
370
   -1
100
AcDbSpline
210
0
220
0
230
0
 70
    8
 71
    1
 72
    4
 73
    2
 74
    0
 42
1e-07
 43
1e-07
 40
0
 40
0
 40
1.5708
 40
1.5708
 10
136.6
 20
104
 30
0
 10
136.6
 20
103.996
 30
0
  0
LINE
  5
417
100
AcDbEntity
  8
ProjItem001
  6
ByLayer
 62
  256
370
   -1
100
AcDbLine
 10
136.6
 20
103.996
 11
136.6
 21
102.604
  0
LINE
  5
418
100
AcDbEntity
  8
ProjItem001
  6
ByLayer
 62
  256
370
   -1
100
AcDbLine
 10
136.6
 20
103.996
 11
136.6
 21
102.604
  0
SPLINE
  5
419
100
AcDbEntity
  8
ProjItem001
  6
ByLayer
 62
  256
370
   -1
100
AcDbSpline
210
0
220
0
230
0
 70
    8
 71
    1
 72
    4
 73
    2
 74
    0
 42
1e-07
 43
1e-07
 40
0
 40
0
 40
1.5708
 40
1.5708
 10
136.6
 20
102.604
 30
0
 10
136.6
 20
102.6
 30
0
  0
LINE
  5
41A
100
AcDbEntity
  8
ProjItem001
  6
ByLayer
 62
  256
370
   -1
100
AcDbLine
 10
136.6
 20
102.6
 11
136.6
 21
102.6
  0
SPLINE
  5
41B
100
AcDbEntity
  8
ProjItem001
  6
ByLayer
 62
  256
370
   -1
100
AcDbSpline
210
0
220
0
230
0
 70
    8
 71
    1
 72
    4
 73
    2
 74
    0
 42
1e-07
 43
1e-07
 40
0
 40
0
 40
1.5708
 40
1.5708
 10
136.6
 20
102.604
 30
0
 10
136.6
 20
102.6
 30
0
  0
LINE
  5
41C
100
AcDbEntity
  8
ProjItem001
  6
ByLayer
 62
  256
370
   -1
100
AcDbLine
 10
136.6
 20
107.7
 11
136.6
 21
107.7
  0
LINE
  5
41D
100
AcDbEntity
  8
ProjItem001
  6
ByLayer
 62
  256
370
   -1
100
AcDbLine
 10
136.6
 20
107.7
 11
136.6
 21
106.8
  0
LINE
  5
41E
100
AcDbEntity
  8
ProjItem001
  6
ByLayer
 62
  256
370
   -1
100
AcDbLine
 10
136.6
 20
107.7
 11
136.6
 21
106.8
  0
LINE
  5
41F
100
AcDbEntity
  8
ProjItem001
  6
ByLayer
 62
  256
370
   -1
100
AcDbLine
 10
136.6
 20
110
 11
136.6
 21
110
  0
LINE
  5
420
100
AcDbEntity
  8
ProjItem001
  6
ByLayer
 62
  256
370
   -1
100
AcDbLine
 10
136.6
 20
110
 11
136.6
 21
109.2
  0
LINE
  5
421
100
AcDbEntity
  8
ProjItem001
  6
ByLayer
 62
  256
370
   -1
100
AcDbLine
 10
136.6
 20
109.2
 11
136.6
 21
109.2
  0
LINE
  5
422
100
AcDbEntity
  8
ProjItem001
  6
ByLayer
 62
  256
370
   -1
100
AcDbLine
 10
136.6
 20
110
 11
136.6
 21
109.2
  0
LINE
  5
423
100
AcDbEntity
  8
ProjItem001
  6
ByLayer
 62
  256
370
   -1
100
AcDbLine
 10
136.6
 20
112.2
 11
136.6
 21
112.2
  0
LINE
  5
424
100
AcDbEntity
  8
ProjItem001
  6
ByLayer
 62
  256
370
   -1
100
AcDbLine
 10
136.6
 20
112.2
 11
136.6
 21
111.4
  0
LINE
  5
425
100
AcDbEntity
  8
ProjItem001
  6
ByLayer
 62
  256
370
   -1
100
AcDbLine
 10
136.6
 20
111.4
 11
136.6
 21
111.4
  0
LINE
  5
426
100
AcDbEntity
  8
ProjItem001
  6
ByLayer
 62
  256
370
   -1
100
AcDbLine
 10
136.6
 20
112.2
 11
136.6
 21
111.4
  0
LINE
  5
427
100
AcDbEntity
  8
ProjItem001
  6
ByLayer
 62
  256
370
   -1
100
AcDbLine
 10
136.6
 20
109.2
 11
136.6
 21
108.2
  0
LINE
  5
428
100
AcDbEntity
  8
ProjItem001
  6
ByLayer
 62
  256
370
   -1
100
AcDbLine
 10
136.6
 20
108.2
 11
136.6
 21
108.2
  0
LINE
  5
429
100
AcDbEntity
  8
ProjItem001
  6
ByLayer
 62
  256
370
   -1
100
AcDbLine
 10
136.6
 20
109.2
 11
136.6
 21
108.2
  0
LINE
  5
42A
100
AcDbEntity
  8
ProjItem001
  6
ByLayer
 62
  256
370
   -1
100
AcDbLine
 10
136.8
 20
112
 11
137.25
 21
112
  0
LINE
  5
42B
100
AcDbEntity
  8
ProjItem001
  6
ByLayer
 62
  256
370
   -1
100
AcDbLine
 10
137.25
 20
112
 11
137.7
 21
112
  0
SPLINE
  5
42C
100
AcDbEntity
  8
ProjItem001
  6
ByLayer
 62
  256
370
   -1
100
AcDbSpline
210
0
220
0
230
0
 70
    8
 71
    3
 72
   11
 73
    7
 74
    0
 42
1e-07
 43
1e-07
 40
3.14159
 40
3.14159
 40
3.14159
 40
3.14159
 40
3.92699
 40
3.92699
 40
3.92699
 40
4.71239
 40
4.71239
 40
4.71239
 40
4.71239
 10
138
 20
112
 30
0
 10
137.998
 20
112
 30
0
 10
137.969
 20
112
 30
0
 10
137.912
 20
112
 30
0
 10
137.856
 20
112
 30
0
 10
137.779
 20
112
 30
0
 10
137.7
 20
112
 30
0
  0
LINE
  5
42D
100
AcDbEntity
  8
ProjItem001
  6
ByLayer
 62
  256
370
   -1
100
AcDbLine
 10
137.8
 20
112
 11
137.8
 21
113.5
  0
LINE
  5
42E
100
AcDbEntity
  8
ProjItem001
  6
ByLayer
 62
  256
370
   -1
100
AcDbLine
 10
137.4
 20
112
 11
137.4
 21
112.11
  0
LINE
  5
42F
100
AcDbEntity
  8
ProjItem001
  6
ByLayer
 62
  256
370
   -1
100
AcDbLine
 10
136.7
 20
112.11
 11
137.4
 21
112.11
  0
LINE
  5
430
100
AcDbEntity
  8
ProjItem001
  6
ByLayer
 62
  256
370
   -1
100
AcDbLine
 10
136.7
 20
113.5
 11
136.7
 21
112.11
  0
LINE
  5
431
100
AcDbEntity
  8
ProjItem001
  6
ByLayer
 62
  256
370
   -1
100
AcDbLine
 10
136.7
 20
113.5
 11
137.8
 21
113.5
  0
LINE
  5
432
100
AcDbEntity
  8
ProjItem001
  6
ByLayer
 62
  256
370
   -1
100
AcDbLine
 10
137.7
 20
109.4
 11
137.25
 21
109.4
  0
SPLINE
  5
433
100
AcDbEntity
  8
ProjItem001
  6
ByLayer
 62
  256
370
   -1
100
AcDbSpline
210
0
220
0
230
0
 70
    8
 71
    3
 72
   11
 73
    7
 74
    0
 42
1e-07
 43
1e-07
 40
3.14159
 40
3.14159
 40
3.14159
 40
3.14159
 40
3.92699
 40
3.92699
 40
3.92699
 40
4.71239
 40
4.71239
 40
4.71239
 40
4.71239
 10
138
 20
109.4
 30
0
 10
137.998
 20
109.4
 30
0
 10
137.969
 20
109.4
 30
0
 10
137.912
 20
109.4
 30
0
 10
137.856
 20
109.4
 30
0
 10
137.779
 20
109.4
 30
0
 10
137.7
 20
109.4
 30
0
  0
LINE
  5
434
100
AcDbEntity
  8
ProjItem001
  6
ByLayer
 62
  256
370
   -1
100
AcDbLine
 10
137.25
 20
109.4
 11
136.8
 21
109.4
  0
LINE
  5
435
100
AcDbEntity
  8
ProjItem001
  6
ByLayer
 62
  256
370
   -1
100
AcDbLine
 10
136.75
 20
109.4
 11
136.75
 21
108.5
  0
LINE
  5
436
100
AcDbEntity
  8
ProjItem001
  6
ByLayer
 62
  256
370
   -1
100
AcDbLine
 10
136.6
 20
108.5
 11
136.6
 21
108.5
  0
LINE
  5
437
100
AcDbEntity
  8
ProjItem001
  6
ByLayer
 62
  256
370
   -1
100
AcDbLine
 10
136.6
 20
108.5
 11
136.75
 21
108.5
  0
LINE
  5
438
100
AcDbEntity
  8
ProjItem001
  6
ByLayer
 62
  256
370
   -1
100
AcDbLine
 10
136.8
 20
112
 11
136.6
 21
112
  0
LINE
  5
439
100
AcDbEntity
  8
ProjItem001
  6
ByLayer
 62
  256
370
   -1
100
AcDbLine
 10
136.6
 20
112
 11
136.6
 21
112
  0
LINE
  5
43A
100
AcDbEntity
  8
ProjItem001
  6
ByLayer
 62
  256
370
   -1
100
AcDbLine
 10
138
 20
111.45
 11
138
 21
112
  0
LINE
  5
43B
100
AcDbEntity
  8
ProjItem001
  6
ByLayer
 62
  256
370
   -1
100
AcDbLine
 10
138
 20
109.4
 11
138
 21
109.95
  0
LINE
  5
43C
100
AcDbEntity
  8
ProjItem001
  6
ByLayer
 62
  256
370
   -1
100
AcDbLine
 10
136.8
 20
109.4
 11
136.6
 21
109.4
  0
LINE
  5
43D
100
AcDbEntity
  8
ProjItem001
  6
ByLayer
 62
  256
370
   -1
100
AcDbLine
 10
136.6
 20
109.4
 11
136.6
 21
109.4
  0
LINE
  5
43E
100
AcDbEntity
  8
ProjItem001
  6
ByLayer
 62
  256
370
   -1
100
AcDbLine
 10
136.8
 20
112
 11
136.8
 21
111.6
  0
LINE
  5
43F
100
AcDbEntity
  8
ProjItem001
  6
ByLayer
 62
  256
370
   -1
100
AcDbLine
 10
136.6
 20
111.6
 11
136.6
 21
111.6
  0
LINE
  5
440
100
AcDbEntity
  8
ProjItem001
  6
ByLayer
 62
  256
370
   -1
100
AcDbLine
 10
136.6
 20
111.6
 11
136.8
 21
111.6
  0
LINE
  5
441
100
AcDbEntity
  8
ProjItem001
  6
ByLayer
 62
  256
370
   -1
100
AcDbLine
 10
136.8
 20
109.8
 11
136.6
 21
109.8
  0
LINE
  5
442
100
AcDbEntity
  8
ProjItem001
  6
ByLayer
 62
  256
370
   -1
100
AcDbLine
 10
136.6
 20
109.8
 11
136.6
 21
109.8
  0
LINE
  5
443
100
AcDbEntity
  8
ProjItem001
  6
ByLayer
 62
  256
370
   -1
100
AcDbLine
 10
136.8
 20
109.8
 11
136.8
 21
109.4
  0
LINE
  5
444
100
AcDbEntity
  8
ProjItem001
  6
ByLayer
 62
  256
370
   -1
100
AcDbLine
 10
138
 20
109.95
 11
138
 21
111.45
  0
LINE
  5
445
100
AcDbEntity
  8
ProjItem001
  6
ByLayer
 62
  256
370
   -1
100
AcDbLine
 10
136
 20
102.4
 11
136.6
 21
102.4
  0
LINE
  5
446
100
AcDbEntity
  8
ProjItem001
  6
ByLayer
 62
  256
370
   -1
100
AcDbLine
 10
136
 20
112.4
 11
136.6
 21
112.4
  0
LINE
  5
447
100
AcDbEntity
  8
ProjItem001
  6
ByLayer
 62
  256
370
   -1
100
AcDbLine
 10
136.6
 20
112.4
 11
136.6
 21
102.4
  0
LINE
  5
448
100
AcDbEntity
  8
ProjItem001
  6
ByLayer
 62
  256
370
   -1
100
AcDbLine
 10
136
 20
112.4
 11
136
 21
102.4
  0
LINE
  5
449
100
AcDbEntity
  8
ProjItem001
  6
ByLayer
 62
  256
370
   -1
100
AcDbLine
 10
137.855
 20
102.55
 11
139.495
 21
102.55
  0
LINE
  5
44A
100
AcDbEntity
  8
ProjItem001
  6
ByLayer
 62
  256
370
   -1
100
AcDbLine
 10
139.495
 20
105.601
 11
139.495
 21
102.55
  0
LINE
  5
44B
100
AcDbEntity
  8
ProjItem001
  6
ByLayer
 62
  256
370
   -1
100
AcDbLine
 10
139.495
 20
105.601
 11
139.495
 21
106.25
  0
LINE
  5
44C
100
AcDbEntity
  8
ProjItem001
  6
ByLayer
 62
  256
370
   -1
100
AcDbLine
 10
137.855
 20
102.55
 11
136.605
 21
102.55
  0
LINE
  5
44D
100
AcDbEntity
  8
ProjItem001
  6
ByLayer
 62
  256
370
   -1
100
AcDbLine
 10
136.605
 20
102.55
 11
136.6
 21
102.55
  0
LINE
  5
44E
100
AcDbEntity
  8
ProjItem001
  6
ByLayer
 62
  256
370
   -1
100
AcDbLine
 10
137.855
 20
103.05
 11
137.855
 21
102.55
  0
LINE
  5
44F
100
AcDbEntity
  8
ProjItem001
  6
ByLayer
 62
  256
370
   -1
100
AcDbLine
 10
137.205
 20
103.05
 11
137.855
 21
103.05
  0
LINE
  5
450
100
AcDbEntity
  8
ProjItem001
  6
ByLayer
 62
  256
370
   -1
100
AcDbLine
 10
137.205
 20
104.05
 11
137.205
 21
103.05
  0
LINE
  5
451
100
AcDbEntity
  8
ProjItem001
  6
ByLayer
 62
  256
370
   -1
100
AcDbLine
 10
136.6
 20
104.05
 11
137.205
 21
104.05
  0
LINE
  5
452
100
AcDbEntity
  8
ProjItem001
  6
ByLayer
 62
  256
370
   -1
100
AcDbLine
 10
138.055
 20
106.8
 11
136.6
 21
106.8
  0
LINE
  5
453
100
AcDbEntity
  8
ProjItem001
  6
ByLayer
 62
  256
370
   -1
100
AcDbLine
 10
138.055
 20
106.25
 11
138.055
 21
106.8
  0
LINE
  5
454
100
AcDbEntity
  8
ProjItem001
  6
ByLayer
 62
  256
370
   -1
100
AcDbLine
 10
139.055
 20
106.25
 11
138.055
 21
106.25
  0
LINE
  5
455
100
AcDbEntity
  8
ProjItem001
  6
ByLayer
 62
  256
370
   -1
100
AcDbLine
 10
139.055
 20
105.601
 11
139.055
 21
106.25
  0
LINE
  5
456
100
AcDbEntity
  8
ProjItem001
  6
ByLayer
 62
  256
370
   -1
100
AcDbLine
 10
139.495
 20
105.601
 11
139.055
 21
105.601
  0
LINE
  5
457
100
AcDbEntity
  8
ProjItem001
  6
ByLayer
 62
  256
370
   -1
100
AcDbLine
 10
139.055
 20
106.25
 11
139.495
 21
106.25
  0
LINE
  5
458
100
AcDbEntity
  8
ProjItem001
  6
ByLayer
 62
  256
370
   -1
100
AcDbLine
 10
139.055
 20
106.8
 11
138.055
 21
106.8
  0
LINE
  5
459
100
AcDbEntity
  8
ProjItem001
  6
ByLayer
 62
  256
370
   -1
100
AcDbLine
 10
139.055
 20
106.8
 11
139.055
 21
106.25
  0
LINE
  5
45A
100
AcDbEntity
  8
ProjItem001
  6
ByLayer
 62
  256
370
   -1
100
AcDbLine
 10
136.795
 20
106.8
 11
136.795
 21
107.5
  0
LINE
  5
45B
100
AcDbEntity
  8
ProjItem001
  6
ByLayer
 62
  256
370
   -1
100
AcDbLine
 10
136.795
 20
107.5
 11
136.6
 21
107.5
  0
LINE
  5
45C
100
AcDbEntity
  8
ProjItem001
  6
ByLayer
 62
  256
370
   -1
100
AcDbLine
 10
136.6
 20
107.5
 11
136.6
 21
107.5
  0
LINE
  5
45D
100
AcDbEntity
  8
ProjItem001
  6
ByLayer
 62
  256
370
   -1
100
AcDbLine
 10
136
 20
102.4
 11
136.6
 21
102.4
  0
LINE
  5
45E
100
AcDbEntity
  8
ProjItem001
  6
ByLayer
 62
  256
370
   -1
100
AcDbLine
 10
136
 20
112.4
 11
136.6
 21
112.4
  0
LINE
  5
45F
100
AcDbEntity
  8
ProjItem001
  6
ByLayer
 62
  256
370
   -1
100
AcDbLine
 10
136.6
 20
112.4
 11
136.6
 21
102.4
  0
LINE
  5
460
100
AcDbEntity
  8
ProjItem001
  6
ByLayer
 62
  256
370
   -1
100
AcDbLine
 10
136
 20
112.4
 11
136
 21
102.4
  0
LINE
  5
461
100
AcDbEntity
  8
ProjItem001
  6
ByLayer
 62
  256
370
   -1
100
AcDbLine
 10
137.855
 20
102.55
 11
139.495
 21
102.55
  0
LINE
  5
462
100
AcDbEntity
  8
ProjItem001
  6
ByLayer
 62
  256
370
   -1
100
AcDbLine
 10
139.495
 20
105.601
 11
139.495
 21
102.55
  0
LINE
  5
463
100
AcDbEntity
  8
ProjItem001
  6
ByLayer
 62
  256
370
   -1
100
AcDbLine
 10
139.495
 20
105.601
 11
139.495
 21
106.25
  0
LINE
  5
464
100
AcDbEntity
  8
ProjItem001
  6
ByLayer
 62
  256
370
   -1
100
AcDbLine
 10
137.855
 20
102.55
 11
136.605
 21
102.55
  0
LINE
  5
465
100
AcDbEntity
  8
ProjItem001
  6
ByLayer
 62
  256
370
   -1
100
AcDbLine
 10
136.605
 20
102.55
 11
136.6
 21
102.55
  0
LINE
  5
466
100
AcDbEntity
  8
ProjItem001
  6
ByLayer
 62
  256
370
   -1
100
AcDbLine
 10
137.855
 20
103.05
 11
137.855
 21
102.55
  0
LINE
  5
467
100
AcDbEntity
  8
ProjItem001
  6
ByLayer
 62
  256
370
   -1
100
AcDbLine
 10
137.205
 20
103.05
 11
137.855
 21
103.05
  0
LINE
  5
468
100
AcDbEntity
  8
ProjItem001
  6
ByLayer
 62
  256
370
   -1
100
AcDbLine
 10
137.205
 20
104.05
 11
137.205
 21
103.05
  0
LINE
  5
469
100
AcDbEntity
  8
ProjItem001
  6
ByLayer
 62
  256
370
   -1
100
AcDbLine
 10
136.6
 20
104.05
 11
137.205
 21
104.05
  0
LINE
  5
46A
100
AcDbEntity
  8
ProjItem001
  6
ByLayer
 62
  256
370
   -1
100
AcDbLine
 10
138.055
 20
106.8
 11
136.6
 21
106.8
  0
LINE
  5
46B
100
AcDbEntity
  8
ProjItem001
  6
ByLayer
 62
  256
370
   -1
100
AcDbLine
 10
138.055
 20
106.25
 11
138.055
 21
106.8
  0
LINE
  5
46C
100
AcDbEntity
  8
ProjItem001
  6
ByLayer
 62
  256
370
   -1
100
AcDbLine
 10
139.055
 20
106.25
 11
138.055
 21
106.25
  0
LINE
  5
46D
100
AcDbEntity
  8
ProjItem001
  6
ByLayer
 62
  256
370
   -1
100
AcDbLine
 10
139.055
 20
105.601
 11
139.055
 21
106.25
  0
LINE
  5
46E
100
AcDbEntity
  8
ProjItem001
  6
ByLayer
 62
  256
370
   -1
100
AcDbLine
 10
139.495
 20
105.601
 11
139.055
 21
105.601
  0
LINE
  5
46F
100
AcDbEntity
  8
ProjItem001
  6
ByLayer
 62
  256
370
   -1
100
AcDbLine
 10
139.055
 20
106.25
 11
139.495
 21
106.25
  0
LINE
  5
470
100
AcDbEntity
  8
ProjItem001
  6
ByLayer
 62
  256
370
   -1
100
AcDbLine
 10
139.055
 20
106.8
 11
138.055
 21
106.8
  0
LINE
  5
471
100
AcDbEntity
  8
ProjItem001
  6
ByLayer
 62
  256
370
   -1
100
AcDbLine
 10
139.055
 20
106.8
 11
139.055
 21
106.25
  0
LINE
  5
472
100
AcDbEntity
  8
ProjItem001
  6
ByLayer
 62
  256
370
   -1
100
AcDbLine
 10
136.795
 20
106.8
 11
136.795
 21
107.5
  0
LINE
  5
473
100
AcDbEntity
  8
ProjItem001
  6
ByLayer
 62
  256
370
   -1
100
AcDbLine
 10
136.795
 20
107.5
 11
136.6
 21
107.5
  0
LINE
  5
474
100
AcDbEntity
  8
ProjItem001
  6
ByLayer
 62
  256
370
   -1
100
AcDbLine
 10
136.6
 20
107.5
 11
136.6
 21
107.5
  0
LINE
  5
475
100
AcDbEntity
  8
ProjItem001
  6
ByLayer
 62
  256
370
   -1
100
AcDbLine
 10
136.6
 20
103.996
 11
136.6
 21
103.996
  0
LINE
  5
476
100
AcDbEntity
  8
ProjItem001
  6
ByLayer
 62
  256
370
   -1
100
AcDbLine
 10
136.6
 20
102.604
 11
136.6
 21
102.604
  0
LINE
  5
477
100
AcDbEntity
  8
ProjItem001
  6
ByLayer
 62
  256
370
   -1
100
AcDbLine
 10
136.6
 20
103.996
 11
136.6
 21
103.996
  0
LINE
  5
478
100
AcDbEntity
  8
ProjItem001
  6
ByLayer
 62
  256
370
   -1
100
AcDbLine
 10
136.6
 20
102.604
 11
136.6
 21
102.604
  0
LINE
  5
479
100
AcDbEntity
  8
ProjItem001
  6
ByLayer
 62
  256
370
   -1
100
AcDbLine
 10
137.7
 20
112
 11
137.7
 21
111.45
  0
LINE
  5
47A
100
AcDbEntity
  8
ProjItem001
  6
ByLayer
 62
  256
370
   -1
100
AcDbLine
 10
137.7
 20
109.4
 11
137.7
 21
109.95
  0
LINE
  5
47B
100
AcDbEntity
  8
ProjItem001
  6
ByLayer
 62
  256
370
   -1
100
AcDbLine
 10
137.7
 20
109.95
 11
137.7
 21
111.45
  0
LINE
  5
47C
100
AcDbEntity
  8
ProjItem001
  6
ByLayer
 62
  256
370
   -1
100
AcDbLine
 10
137.25
 20
112
 11
137.25
 21
111.45
  0
LINE
  5
47D
100
AcDbEntity
  8
ProjItem001
  6
ByLayer
 62
  256
370
   -1
100
AcDbLine
 10
137.25
 20
111.45
 11
137.25
 21
109.95
  0
LINE
  5
47E
100
AcDbEntity
  8
ProjItem001
  6
ByLayer
 62
  256
370
   -1
100
AcDbLine
 10
137.25
 20
109.4
 11
137.25
 21
109.95
  0
LINE
  5
47F
100
AcDbEntity
  8
ProjItem001
  6
ByLayer
 62
  256
370
   -1
100
AcDbLine
 10
137.7
 20
111.45
 11
137.25
 21
111.45
  0
SPLINE
  5
480
100
AcDbEntity
  8
ProjItem001
  6
ByLayer
 62
  256
370
   -1
100
AcDbSpline
210
0
220
0
230
0
 70
    8
 71
    3
 72
   11
 73
    7
 74
    0
 42
1e-07
 43
1e-07
 40
0
 40
0
 40
0
 40
0
 40
0.785398
 40
0.785398
 40
0.785398
 40
1.5708
 40
1.5708
 40
1.5708
 40
1.5708
 10
137.7
 20
111.45
 30
0
 10
137.779
 20
111.45
 30
0
 10
137.856
 20
111.45
 30
0
 10
137.912
 20
111.45
 30
0
 10
137.969
 20
111.45
 30
0
 10
137.998
 20
111.45
 30
0
 10
138
 20
111.45
 30
0
  0
SPLINE
  5
481
100
AcDbEntity
  8
ProjItem001
  6
ByLayer
 62
  256
370
   -1
100
AcDbSpline
210
0
220
0
230
0
 70
    8
 71
    3
 72
   11
 73
    7
 74
    0
 42
1e-07
 43
1e-07
 40
0
 40
0
 40
0
 40
0
 40
0.785398
 40
0.785398
 40
0.785398
 40
1.5708
 40
1.5708
 40
1.5708
 40
1.5708
 10
137.7
 20
109.95
 30
0
 10
137.779
 20
109.95
 30
0
 10
137.856
 20
109.95
 30
0
 10
137.912
 20
109.95
 30
0
 10
137.969
 20
109.95
 30
0
 10
137.998
 20
109.95
 30
0
 10
138
 20
109.95
 30
0
  0
LINE
  5
482
100
AcDbEntity
  8
ProjItem001
  6
ByLayer
 62
  256
370
   -1
100
AcDbLine
 10
137.7
 20
109.95
 11
137.25
 21
109.95
  0
LINE
  5
483
100
AcDbEntity
  8
leader
  6
ByLayer
 62
  256
370
   -1
100
AcDbLine
 10
124.7
 20
106.8
 11
124.7
 21
102.55
  0
LINE
  5
484
100
AcDbEntity
  8
leader
  6
ByLayer
 62
  256
370
   -1
100
AcDbLine
 10
136.6
 20
104.675
 11
139.495
 21
104.675
  0
DIMENSION
  5
485
100
AcDbEntity
  8
dim
  6
ByLayer
 62
  256
370
   -1
100
AcDbDimension
  2
*D1
 10
126.1
 20
114
 30
0
 11
113.4422947449386
 21
114.9375
 31
0
 70
   32
  1
2.8 TRAVEL
 71
    5
 72
    0
  3
Standard
 53
0
210
0
220
0
230
1
100
AcDbAlignedDimension
 13
123.3
 23
113.5
 33
0
 14
126.1
 24
113.5
 34
0
100
AcDbRotatedDimension
  0
LINE
  5
486
100
AcDbEntity
  8
leader
  6
ByLayer
 62
  256
370
   -1
100
AcDbLine
 10
138
 20
110.7
 11
136.6
 21
110.7
  0
DIMENSION
  5
487
100
AcDbEntity
  8
dim
  6
ByLayer
 62
  256
370
   -1
100
AcDbDimension
  2
*D2
 10
128.2
 20
100
 30
0
 11
124.7
 21
100.9375
 31
0
 70
   32
 71
    5
 72
    0
  3
Standard
 53
0
210
0
220
0
230
1
100
AcDbAlignedDimension
 13
121.2
 23
102.55
 33
0
 14
128.2
 24
102.55
 34
0
100
AcDbRotatedDimension
  0
DIMENSION
  5
488
100
AcDbEntity
  8
dim
  6
ByLayer
 62
  256
370
   -1
100
AcDbDimension
  2
*D3
 10
119
 20
102.55
 30
0
 11
118.0625
 21
104.675
 31
0
 70
   32
 71
    5
 72
    0
  3
Standard
 53
0
210
0
220
0
230
1
100
AcDbAlignedDimension
 13
121.2
 23
106.8
 33
0
 14
121.2
 24
102.55
 34
0
 50
90
100
AcDbRotatedDimension
  0
LINE
  5
489
100
AcDbEntity
  8
dim
  6
ByLayer
 62
  256
370
   -1
100
AcDbLine
 10
124.7
 20
102.55
 11
124.7
 21
101.642690380208
  0
LINE
  5
48A
100
AcDbEntity
  8
dim
  6
ByLayer
 62
  256
370
   -1
100
AcDbLine
 10
124.7
 20
99.73695649051018
 11
124.7
 21
99
  0
DIMENSION
  5
48B
100
AcDbEntity
  8
dim
  6
ByLayer
 62
  256
370
   -1
100
AcDbDimension
  2
*D4
 10
124.7
 20
97
 30
0
 11
122.2
 21
97.9375
 31
0
 70
   32
 71
    5
 72
    0
  3
Standard
 53
0
210
0
220
0
230
1
100
AcDbAlignedDimension
 13
119.7
 23
102.4
 33
0
 14
124.7
 24
99.73695649051018
 34
0
100
AcDbRotatedDimension
  0
MTEXT
  5
48C
100
AcDbEntity
  8
0
  6
ByLayer
 62
  256
370
   -1
100
AcDbMText
 10
121.6966379512368
 20
93
 30
0
 40
1
 41
6.416666666666666
 71
    1
 72
    1
  1
TOP VIEW
  7
standard
210
0
220
0
230
1
 50
0
 73
    2
 44
1
  0
MTEXT
  5
48D
100
AcDbEntity
  8
0
  6
ByLayer
 62
  256
370
   -1
100
AcDbMText
 10
146.9299455833061
 20
93
 30
0
 40
1
 41
9.194444444444445
 71
    1
 72
    1
  1
BOTTOM VIEW
  7
standard
210
0
220
0
230
1
 50
0
 73
    2
 44
1
  0
MTEXT
  5
48E
100
AcDbEntity
  8
0
  6
ByLayer
 62
  256
370
   -1
100
AcDbMText
 10
134.5389095665434
 20
93
 30
0
 40
1
 41
6.638888676886801
 71
    1
 72
    1
  1
SIDE VIEW
  7
standard
210
0
220
0
230
1
 50
0
 73
    2
 44
1
  0
LINE
  5
48F
100
AcDbEntity
  8
dim
  6
ByLayer
 62
  256
370
   -1
100
AcDbLine
 10
123.3
 20
113.5
 11
126.1
 21
113.5
  0
DIMENSION
  5
490
100
AcDbEntity
  8
dim
  6
ByLayer
 62
  256
370
   -1
100
AcDbDimension
  2
*D5
 10
124.7
 20
116
 30
0
 11
127.2
 21
116.9375
 31
0
 70
   32
 71
    5
 72
    0
  3
Standard
 53
0
210
0
220
0
230
1
100
AcDbAlignedDimension
 13
129.7
 23
112.4
 33
0
 14
124.7
 24
112
 34
0
100
AcDbRotatedDimension
  0
DIMENSION
  5
491
100
AcDbEntity
  8
dim
  6
ByLayer
 62
  256
370
   -1
100
AcDbDimension
  2
*D6
 10
128.05
 20
109.95
 30
0
 11
124.7
 21
110.8875
 31
0
 70
   32
 71
    5
 72
    0
  3
Standard
 53
0
210
0
220
0
230
1
100
AcDbAlignedDimension
 13
121.35
 23
109.4
 33
0
 14
128.05
 24
109.4
 34
0
100
AcDbRotatedDimension
  0
LINE
  5
492
100
AcDbEntity
  8
leader
  6
ByLayer
 62
  256
370
   -1
100
AcDbLine
 10
124.7
 20
109.8010019976651
 11
124.7
 21
109.4
  0
LINE
  5
493
100
AcDbEntity
  8
leader
  6
ByLayer
 62
  256
370
   -1
100
AcDbLine
 10
124.7
 20
112
 11
124.7
 21
111.5007160716297
  0
DIMENSION
  5
494
100
AcDbEntity
  8
dim
  6
ByLayer
 62
  256
370
   -1
100
AcDbDimension
  2
*D7
 10
119
 20
112
 30
0
 11
118.0625
 21
110.7
 31
0
 70
   32
 71
    5
 72
    0
  3
Standard
 53
0
210
0
220
0
230
1
100
AcDbAlignedDimension
 13
121.35
 23
109.4
 33
0
 14
121.35
 24
112
 34
0
 50
90
100
AcDbRotatedDimension
  0
DIMENSION
  5
495
100
AcDbEntity
  8
dim
  6
ByLayer
 62
  256
370
   -1
100
AcDbDimension
  2
*D8
 10
136.6
 20
116
 30
0
 11
136.3
 21
116.9375
 31
0
 70
   32
 71
    5
 72
    0
  3
Standard
 53
0
210
0
220
0
230
1
100
AcDbAlignedDimension
 13
136
 23
112.4
 33
0
 14
136.6
 24
112.4
 34
0
100
AcDbRotatedDimension
  0
DIMENSION
  5
496
100
AcDbEntity
  8
dim
  6
ByLayer
 62
  256
370
   -1
100
AcDbDimension
  2
*D9
 10
138
 20
114
 30
0
 11
139
 21
115
 31
0
 70
   32
 71
    5
 72
    0
  3
Standard
 53
0
210
0
220
0
230
1
100
AcDbAlignedDimension
 13
136.6
 23
112.4
 33
0
 14
138
 24
112
 34
0
100
AcDbRotatedDimension
  0
DIMENSION
  5
497
100
AcDbEntity
  8
dim
  6
ByLayer
 62
  256
370
   -1
100
AcDbDimension
  2
*D10
 10
140
 20
110.7
 30
0
 11
139.0625
 21
111.55
 31
0
 70
   32
 71
    5
 72
    0
  3
Standard
 53
0
210
0
220
0
230
1
100
AcDbAlignedDimension
 13
136.6
 23
112.4
 33
0
 14
138
 24
110.7
 34
0
 50
90
100
AcDbRotatedDimension
  0
DIMENSION
  5
498
100
AcDbEntity
  8
dim
  6
ByLayer
 62
  256
370
   -1
100
AcDbDimension
  2
*D11
 10
142
 20
104.675
 30
0
 11
141.0625
 21
103.5375
 31
0
 70
   32
 71
    5
 72
    0
  3
Standard
 53
0
210
0
220
0
230
1
100
AcDbAlignedDimension
 13
136.6
 23
102.4
 33
0
 14
139.495
 24
104.675
 34
0
 50
90
100
AcDbRotatedDimension
  0
DIMENSION
  5
499
100
AcDbEntity
  8
dim
  6
ByLayer
 62
  256
370
   -1
100
AcDbDimension
  2
*D12
 10
154.948
 20
107.9
 30
0
 11
151.448
 21
108.8375
 31
0
 70
   32
 71
    5
 72
    0
  3
Standard
 53
0
210
0
220
0
230
1
100
AcDbAlignedDimension
 13
147.948
 23
107.9
 33
0
 14
154.948
 24
107.9
 34
0
100
AcDbRotatedDimension
  0
DIMENSION
  5
49A
100
AcDbEntity
  8
dim
  6
ByLayer
 62
  256
370
   -1
100
AcDbDimension
  2
*D13
 10
147.948
 20
107.9
 30
0
 11
140.9853920647917
 21
108.754751354752
 31
0
 70
   32
  1
2x 1.5
 71
    5
 72
    0
  3
Standard
 53
0
210
0
220
0
230
1
100
AcDbAlignedDimension
 13
146.448
 23
112.4
 33
0
 14
147.948
 24
107.9
 34
0
100
AcDbRotatedDimension
  0
DIMENSION
  5
49B
100
AcDbEntity
  8
dim
  6
ByLayer
 62
  256
370
   -1
100
AcDbDimension
  2
*D14
 10
147.948
 20
107.9
 30
0
 11
147.0105
 21
105.15
 31
0
 70
   32
  1
2x 5.5
 71
    5
 72
    0
  3
Standard
 53
0
210
0
220
0
230
1
100
AcDbAlignedDimension
 13
146.448
 23
102.4
 33
0
 14
147.948
 24
107.9
 34
0
 50
90
100
AcDbRotatedDimension
  0
DIMENSION
  5
49C
100
AcDbEntity
  8
dim
  6
ByLayer
 62
  256
370
   -1
100
AcDbDimension
  2
*D15
 10
154.948
 20
107.9
 30
0
 11
151.4414813247141
 21
105.629625201881
 31
0
 70
   36
  1
2x R0.8
 71
    5
 72
    0
  3
Standard
 53
0
210
0
220
0
230
1
100
AcDbRadialDimension
 15
154.4252846523977
 25
107.3607693764437
 35
0
 40
0
  0
DIMENSION
  5
49D
100
AcDbEntity
  8
dim
  6
ByLayer
 62
  256
370
   -1
100
AcDbDimension
  2
*D16
 10
156.448
 20
114
 30
0
 11
151.448
 21
114.9375
 31
0
 70
   32
 71
    5
 72
    0
  3
Standard
 53
0
210
0
220
0
230
1
100
AcDbAlignedDimension
 13
146.448
 23
112.4
 33
0
 14
156.448
 24
112.4
 34
0
100
AcDbRotatedDimension
  0
DIMENSION
  5
49E
100
AcDbEntity
  8
dim
  6
ByLayer
 62
  256
370
   -1
100
AcDbDimension
  2
*D17
 10
159
 20
102.4
 30
0
 11
158.0625
 21
107.4
 31
0
 70
   32
 71
    5
 72
    0
  3
Standard
 53
0
210
0
220
0
230
1
100
AcDbAlignedDimension
 13
156.448
 23
112.4
 33
0
 14
156.448
 24
102.4
 34
0
 50
90
100
AcDbRotatedDimension
  0
DIMENSION
  5
49F
100
AcDbEntity
  8
dim
  6
ByLayer
 62
  256
370
   -1
100
AcDbDimension
  2
*D18
 10
162
 20
102.4
 30
0
 11
161.0625
 21
107.95
 31
0
 70
   32
 71
    5
 72
    0
  3
Standard
 53
0
210
0
220
0
230
1
100
AcDbAlignedDimension
 13
152.848
 23
113.5
 33
0
 14
156.448
 24
102.4
 34
0
 50
90
100
AcDbRotatedDimension
  0
MTEXT
  5
4A0
100
AcDbEntity
  8
0
  6
ByLayer
 62
  256
370
   -1
100
AcDbMText
 10
230.622678000926
 20
55.14118519194523
 30
0
 40
4.25
 41
48.99305465454642
 71
    5
 72
    1
  1
WIRELING SWITCH
  7
standard
210
0
220
0
230
1
 50
0
 73
    2
 44
1
  0
MTEXT
  5
4A1
100
AcDbEntity
  8
0
  6
ByLayer
 62
  256
370
   -1
100
AcDbMText
 10
231.6634056522993
 20
46.17498974250736
 30
0
 40
4
 41
21.33333248532474
 71
    5
 72
    1
  1
AST1029
  7
standard
210
0
220
0
230
1
 50
0
 73
    2
 44
1
  0
MTEXT
  5
4A2
100
AcDbEntity
  8
0
  6
ByLayer
 62
  256
370
   -1
100
AcDbMText
 10
195.113259
 20
27.58106258447588
 30
0
 40
2
 41
40.05555658413045
 71
    4
 72
    1
  1
PROJECT: Wirelings\P\PDATE: 7/30/2020\P\PAUTHOR NAME: Jason Marcum
  7
standard
210
0
220
0
230
1
 50
0
 73
    2
 44
1
  0
DIMENSION
  5
4A3
100
AcDbEntity
  8
dim
  6
ByLayer
 62
  256
370
   -1
100
AcDbDimension
  2
*D19
 10
140
 20
100
 30
0
 11
138.0475
 21
100.9375
 31
0
 70
   32
 71
    5
 72
    0
  3
Standard
 53
0
210
0
220
0
230
1
100
AcDbAlignedDimension
 13
136.6
 23
102.4
 33
0
 14
139.495
 24
102.55
 34
0
100
AcDbRotatedDimension
  0
DIMENSION
  5
4A4
100
AcDbEntity
  8
dim
  6
ByLayer
 62
  256
370
   -1
100
AcDbDimension
  2
*D20
 10
140
 20
97
 30
0
 11
137.7475
 21
97.9375
 31
0
 70
   32
 71
    5
 72
    0
  3
Standard
 53
0
210
0
220
0
230
1
100
AcDbAlignedDimension
 13
136
 23
102.4
 33
0
 14
139.495
 24
102.55
 34
0
100
AcDbRotatedDimension
  0
ENDSEC
  0
SECTION
  2
OBJECTS
  0
DICTIONARY
  5
C
330
0
100
AcDbDictionary
281
    1
  3
ACAD_GROUP
350
D
  0
DICTIONARY
  5
D
330
C
100
AcDbDictionary
281
    1
  0
PLOTSETTINGS
  5
4A5
  6
1x1
 40
0
 41
0
 42
0
 43
0
  0
ENDSEC
  0
EOF
